<?xml version="1.0" standalone="no"?>
<!DOCTYPE svg PUBLIC "-//W3C//DTD SVG 1.1//EN" "http://www.w3.org/Graphics/SVG/1.1/DTD/svg11.dtd" >
<svg xmlns="http://www.w3.org/2000/svg" xmlns:xlink="http://www.w3.org/1999/xlink" version="1.1">
<metadata></metadata>
<defs>
<font id="liebedorisbold" horiz-adv-x="868" >
<font-face units-per-em="2048" ascent="1638" descent="-410" />
<missing-glyph horiz-adv-x="319" />
<glyph horiz-adv-x="0" />
<glyph horiz-adv-x="682" />
<glyph unicode=" "  horiz-adv-x="319" />
<glyph unicode="&#x09;" horiz-adv-x="319" />
<glyph unicode="&#xa0;" horiz-adv-x="319" />
<glyph unicode="!" horiz-adv-x="419" d="M39 1315q36 29 76 35q12 6 35.5 2.5t33 -5.5t32.5 -9.5t32 -10.5q64 -21 86 -49q5 -7 7 -16.5t5 -12.5q9 -6 11 -27.5t0.5 -42.5t0.5 -40q13 -100 10.5 -176.5t-7.5 -193t-1 -181.5q1 -13 5.5 -57t3.5 -70q-1 -3 -6.5 -5.5t-6.5 -4.5q8 -23 -7 -43t-13 -35 q-5 -2 -13.5 -6.5t-15.5 -7t-16 -1.5q-5 2 -13 9.5t-14 7.5q-4 0 -20 -8.5t-39 -10.5t-86 11q-11 3 -22 25.5t-15 41.5q-5 14 -6.5 30.5t-2.5 43.5t-1 33q-10 132 -6 233q2 46 8.5 114.5t10.5 115t2 106.5t-13 111q-10 42 -33 65q-20 14 -2 29zM68 221q5 2 8.5 7t-0.5 10 q41 25 97.5 26.5t107 -13.5t90.5 -40q0 -9 13.5 -16.5t14.5 -16.5q1 -6 -7 -23.5t-9 -27.5q-2 -7 -2 -20.5t-2 -18.5q0 -2 -1 -4t-2 -3.5t-2.5 -3.5t-2.5 -3q-2 -7 -4.5 -19t-4.5 -21t-6 -14q-14 -4 -24 -22q-5 -1 -8.5 4.5t-4.5 5.5q-9 0 -4 -10q-10 1 -24 -2t-20 -3.5 t-15 5.5q3 -12 -6 -21.5t-19 0.5q-8 -4 -8 -12q-8 9 -31 17t-30 16q-6 28 -33 45q-2 7 -12 28t-13 31q-2 7 -7.5 23.5t-8.5 29t-2 21.5q4 26 -18 45zM94 723q-2 -29 1 -108t11 -97q7 12 -2 35q-2 17 -0.5 51t0 73t-9.5 46zM94 766q4 2 5 15t0 38.5t-1 30.5q-19 -64 -4 -84z M115.5 461q4.5 -29 15.5 -45q1 19 0.5 28.5t-3 28.5t-3.5 31q-2 0 -3.5 1t-2.5 1q-8 -16 -3.5 -45zM322 768q11 8 13 26.5t0 45.5t-1 39q-2 43 -9 46q-3 1 -1 -16q-2 -20 -1 -71.5t-1 -69.5z" />
<glyph unicode="&#x22;" horiz-adv-x="673" d="M12 1376q2 17 39 35q22 10 59.5 10.5t82.5 -12.5l41 -17q42 -17 61 -18q1 -13 17.5 -74t9.5 -98q-5 -19 -42 -107t-38 -116q1 -19 -26 -40.5t-52.5 -26.5t-34.5 8q-11 14 -31 -0.5t-24 -6.5q-24 43 -26 136.5t3.5 166.5t-14.5 134q-3 6 -8 10t-9 6t-6.5 4.5t-1.5 5.5z M351.5 1041q-0.5 42 10 88t14 108.5t-8.5 130.5q10 3 15 7t4.5 8t-0.5 7.5t1.5 5.5t10 2t24.5 -3q5 10 54.5 7.5t109.5 -18t61 -30.5q-6 -34 -10 -134t-19.5 -176t-54.5 -122q-7 -10 -58.5 9.5t-62.5 12.5q-24 -8 -28 -1.5t-14 18t-29 10.5q-19 28 -19.5 70z" />
<glyph unicode="#" horiz-adv-x="1239" d="M41.5 358.5q0.5 7.5 2 20t1.5 16.5q5 36 14 55.5t26 25.5t32 6t44.5 -3t51.5 -2q16 38 48 157.5t42 172.5q-15 0 -49.5 -1t-47 -0.5t-31.5 6t-34 17.5q-6 7 -6.5 17t2.5 19.5t9.5 21.5t13 21.5t14.5 21.5l12 18q0 13 23 14t62.5 -4t56.5 -4q14 38 41.5 145t44.5 154 q5 20 5 40.5t1 28t10 9.5q35 8 115.5 -4t132.5 -8q15 -4 16.5 -22t-2.5 -31q-5 -54 -34.5 -159.5t-34.5 -143.5q37 -5 151 0q4 16 13.5 57t15.5 65t15.5 58t19 61.5t20.5 50.5q7 35 76.5 45.5t138 0.5t76.5 -25q5 -8 -10.5 -61t-39.5 -129t-32 -117q10 0 29 1t29 0.5t23 -2 t21.5 -6.5t14.5 -14q0 -6 -9.5 -5t-15.5 -5q6 -4 1 -17q-1 -4 3 -3q13 0 16.5 -16t-5.5 -23q-14 -9 -21 -23q8 -3 9.5 -9t-5.5 -11q-6 -4 -125 -23q-63 -233 -94 -334q18 0 58 -1t53 -1q5 -5 -5 -10q2 -5 14 -9t19.5 -16.5t3.5 -40.5q-1 -2 -2.5 -1t-2.5 2.5t-2.5 3 l-2.5 2.5q1 -9 4.5 -20t3.5 -21q-12 -9 -33.5 -13.5t-37.5 -5.5t-51 -1.5t-46 -0.5q-35 -106 -62.5 -207.5t-35.5 -124.5q-1 -10 -6 -5q-3 3 -4 3q0 -16 -7 -15q-2 1 -5 3q-6 3 -10 12t-7 13q-5 -1 -6.5 -4t-2.5 -9.5t-1 -7.5q0 -8 -8 -5q-5 2 -8 7q-5 7 -70 13t-70 12 q-3 4 -6.5 0.5t-5 -7t-4.5 0.5q-5 8 -20.5 23.5t-20.5 25.5q7 17 14 44t22.5 85t35.5 127q-24 1 -53 0t-59.5 0.5t-39.5 5.5l-34 -119t-25.5 -88.5t-15 -56t-13.5 -58.5q-3 0 -5 -1t-3.5 -1.5t-3 -2.5t-2 -3t-2 -3.5t-2.5 -4.5q-7 -5 -16.5 -1.5t-27 13t-20.5 10.5 q-3 0 -7 -9t-11 -11q-10 -1 -17.5 0t-13.5 2.5t-10.5 2.5t-7 0t-3.5 -5q-4 -5 -10.5 1.5t-13.5 18t-10 13.5q-4 2 -6.5 -1.5t-6.5 -2.5q-7 8 -46 19.5t-44 21.5q14 16 32 68.5t36.5 120t21.5 77.5q-17 0 -67.5 2.5t-53.5 -0.5q-12 0 -17 6.5t-4.5 14zM506 473q80 -7 147 8 q7 30 43 164t43 164q-19 2 -149 2q-64 -235 -84 -338zM788 72q-5 -10 5 -9q9 0 10 7q2 8 9.5 21.5t11 19.5t-0.5 12q2 14 31.5 106.5t28.5 112.5q-8 -1 -11.5 -7.5t-5 -17.5t-2.5 -14q-5 -18 -37.5 -112.5t-38.5 -118.5zM899 498q-4 -10 3 -11t9 7q74 258 78 294 q-8 -31 -47.5 -156t-42.5 -134z" />
<glyph unicode="$" horiz-adv-x="724" d="M45.5 348q8.5 62 36.5 88q6 50 17 53q2 -2 3 -4q0 38 38 27q44 -13 84 -67q13 -17 22 -35q10 27 22 5q7 -12 11 -36q-7 -7 4 -57q19 -10 20 -27t-5 -36.5t3 -49.5q16 -72 53 -78q32 -5 55 45q14 30 17 74q3 36 -5.5 73t-17 56t-31 59.5t-26.5 48.5q-12 23 -67.5 112 t-100.5 179.5t-69 179.5q-22 93 -3 170.5t72 137.5q28 33 90 49q-15 86 8 184q7 8 44 -11.5t55 -8.5q4 7 6 -8q1 -13 2 -60q0 -71 4 -92q74 -37 86 -49q2 6 0 37.5t0 40.5q1 16 48 -12q34 -20 42 -21q6 -17 11.5 -33.5t9 -36t6.5 -33t5 -37t3 -34.5t1.5 -38.5t1 -36t1 -40.5 t0.5 -39q-4 0 -8 -11t-12 -7q-14 6 -22 1t-10 -13.5t-7.5 -13.5t-14.5 1q-3 3 -12.5 13.5t-14 16.5t-11.5 16t-11 21t-6 23q-1 6 -2 25t-4.5 30.5t-11.5 18.5q-46 9 -63 -32.5t3 -94.5q16 -48 115 -219t121 -221q52 -111 45.5 -227t-80.5 -191q-39 -39 -139 -90 q1 -16 1 -21.5t-2 -21t-3 -25.5q8 -76 -9 -104q-12 -15 -61 -17.5t-59 9.5q-12 16 -14.5 75.5t3.5 79.5q-28 -2 -65.5 9.5t-77.5 37t-74 73t-47 108.5q-12 50 -3.5 112zM279 379q2 -2 2 -12z" />
<glyph unicode="%" horiz-adv-x="1312" d="M68 954q-10 86 17 173t77 145q23 25 35 37t34.5 30.5t46.5 28.5t52 14q53 9 120.5 -25.5t98.5 -86.5q29 -50 45 -121.5t9 -160t-46 -159.5q-32 -56 -84.5 -91t-110.5 -44q-120 -19 -200 57.5t-94 202.5zM195 35q0 24 73 154t129 223q41 71 176.5 310.5t227 397 t104.5 166.5q4 5 12.5 17.5t15.5 21t15 14.5q17 1 40.5 7t41.5 2q-1 -4 22 -11.5t47 -14.5t25 -9q0 -7 -5.5 -28.5t-8.5 -27.5q-6 -21 -29.5 -67t-54 -102t-35.5 -66q-21 -42 -44.5 -87.5t-39.5 -74t-62 -110t-73 -129.5q-48 -87 -164.5 -292.5t-134.5 -234.5 q-8 -17 -33.5 -52t-38.5 -42q-14 -7 -75 0.5t-74 -0.5q-5 -7 -19 -5t-27.5 14.5t-10.5 25.5zM341 941q4 -60 44 -77q35 -6 61.5 38.5t36.5 106.5t5.5 125.5t-25.5 92.5q-22 0 -53 -50t-52 -113t-17 -123zM711 291q9 59 41 124.5t69 104.5q29 35 76.5 65t97.5 31 q71 3 127.5 -21t75.5 -79q1 -7 2 -34t6 -40q0 -5 5.5 -12.5t5.5 -11.5q4 -21 0 -59t0 -54q6 7 9.5 17t4.5 23.5t1 23.5t-0.5 27.5t-0.5 25.5q0 6 -2 19.5t-2.5 21t1 18t7.5 17.5q31 -63 20 -168t-55 -189q-39 -65 -106.5 -113.5t-145.5 -58.5q-76 -11 -136 33t-87 122.5 t-14 166.5zM951 232.5q-29 -71.5 10 -148.5q45 -12 90 33q45 40 55.5 131.5t-16.5 157.5q-15 3 -62.5 -49.5t-76.5 -124z" />
<glyph unicode="&#x26;" horiz-adv-x="1374" d="M106 434q42 166 197 309q-23 32 -42.5 70.5t-36.5 110.5t-11 143q12 135 113 218.5t235 66.5q70 -7 101 -58q5 1 13.5 5.5t12 5t10.5 -4.5q86 -102 72 -256q-5 -44 -25 -89.5t-39 -73t-51.5 -70t-42.5 -57.5q98 -209 250 -377q49 52 117 201q47 120 61 241 q-28 -8 -52.5 -25.5t-35 -28.5t-28.5 -34q-1 -3 -6.5 -7t-6.5 -7q-7 2 -26.5 2t-26.5 2q-33 -24 -92 -10q7 8 3 8.5t-14 3.5t-12 10q6 81 43.5 149.5t98.5 104.5q46 26 96 37t133 20q35 3 60 10t50.5 22t38 43.5t11.5 68.5q15 17 15.5 52.5t-3.5 57.5q31 -18 31 -112 q8 -8 10 -23.5t1 -30t1 -30.5q0 -6 3 -18t3 -15q-3 -61 -51 -125q-31 -45 -72 -66.5t-116 -37.5q1 -9 4 -15t10 -13.5t8 -8.5q21 -81 4 -168q-15 -81 -66.5 -196.5t-101.5 -180.5q13 -21 39.5 -41.5t40.5 -26.5q63 -29 120 0.5t85 85.5q2 7 7.5 4.5t8.5 4.5q0 1 4 11.5 t6 14.5t7.5 13t10.5 13.5t13 9t17 5.5q6 -14 -13 -67q-14 -39 1 -41q3 -1 8 0q16 0 -2 -32q-20 -37 -15 -44q-5 -38 -47 -80q-99 -102 -252 -88q-52 4 -110 35t-84 65q-57 -61 -162.5 -97.5t-224 -28.5t-195.5 69q-75 60 -109 161t-2 230zM390.5 345.5 q-3.5 -91.5 68.5 -146.5q49 -32 110.5 -29t116.5 41q-131 152 -227 307q-65 -81 -68.5 -172.5zM527.5 1059q0.5 -49 25.5 -96q30 34 50.5 77t20.5 80.5t-28 48.5q-27 10 -48 -25.5t-20.5 -84.5z" />
<glyph unicode="'" horiz-adv-x="354" d="M46.5 1211q6.5 106 4.5 137q18 7 29 10v9q-2 2 -6 1q3 2 10.5 5t12 6t3.5 7q30 2 72 19q10 0 10 -7t4 -9q24 9 43 9t30.5 -4.5t27 -10.5t28.5 -7q-7 -55 -1 -125.5t-1 -154.5t-34 -119q-65 -29 -74 -35q-13 2 -26 -5.5t-29 -4.5q-8 -2 -9.5 -9t-3.5 -8q-38 -10 -49 -14 q-34 38 -41 121t-0.5 189z" />
<glyph unicode="(" horiz-adv-x="614" d="M96 633q8 419 121 702q50 126 91 179t71 34q9 -13 31 -3.5t39 -4.5q18 -15 48 -22.5t51.5 -12t39 -29t20.5 -71.5q0 -30 -18.5 -73.5t-44 -88.5t-29.5 -53q-66 -152 -101.5 -359t-19.5 -430q10 -143 64.5 -292.5t126.5 -192.5q12 -4 15 -10.5t0 -20.5t-3 -20q-2 -6 -9 -7 t-9 -3q-3 -7 -15 -21.5t-16 -23.5q-2 -5 -4.5 -17.5t-6 -21.5t-8.5 -13q-3 -4 0 -10.5t8.5 -12.5t4.5 -12t-13 -8q-7 -4 -13 -1.5t-10 0t-5 -14.5q-91 30 -163.5 105.5t-117 171t-74 213.5t-41 227t-10.5 217zM231 68q0 -44 46 -114t75 -83q5 5 -12.5 28.5t-51.5 72.5 t-57 96zM387.5 -178q-5.5 -3 1.5 -8q14 -14 39 -33.5t25 -11.5q-1 4 -7.5 14t-3.5 16q28 -16 54 -16q-11 6 -76 70q-32 32 -32 25q-1 -1 1 -5q10 -19 7 -33.5t-8.5 -17.5z" />
<glyph unicode=")" horiz-adv-x="622" d="M20 1468q20 1 36 26.5t18 27.5q9 9 21 13.5t31.5 4t28.5 -1t35 -4.5l25 -4q103 -21 135 -47q21 -15 39 -45t33 -75t23 -74t20 -79q84 -382 43 -743q-22 -192 -82 -371.5t-109 -257.5q-7 -11 -31 -31.5t-36 -27.5q-7 -3 -11.5 -13.5t-7.5 -18.5t-14 -8.5t-31 13.5 q-18 8 -24 5.5t-17.5 -12t-21.5 -11.5q-21 -1 -27.5 0t-25 10t-25.5 12q-7 4 -7 13t5.5 22t11.5 24.5t14 26t11 21.5q55 109 102 311q53 278 37 543q-33 515 -174 717q-2 3 -12.5 15t-12.5 19z" />
<glyph unicode="*" horiz-adv-x="720" d="M20.5 1281q13.5 17 38.5 11q25 50 64 33q2 -1 149 -70q7 27 9 102.5t14 104.5h5.5t6 0.5t5.5 0t5 -1t3.5 -2.5t1.5 -5q1 0 6 5t12 3q7 0 17.5 -1t24 -6.5t13.5 -14.5q12 -1 31 -3q43 -4 45 -9v-5q-1 -7 0 -12t4.5 -13t6.5 -24.5t3 -44.5q0 -4 -1.5 -18.5t-0.5 -24.5 q18 9 53 31t64.5 36.5t61.5 22.5q0 -1 3.5 -2l7 -2t5.5 -2.5t-1 -4t-11 -5.5q0 -3 5.5 -7.5t9.5 -8.5t0.5 -9t-17.5 -10q0 -1 14 -3.5t18.5 -7.5t-6.5 -20q4 -5 -4.5 -16.5t-27 -27.5t-36 -29.5t-38.5 -30t-27 -21.5q2 -2 46 -35q38 -27 18 -28q-10 0 -33 6q18 -12 42.5 -27 t33.5 -21.5t23 -22.5t30 -42l-25 7q-6 -12 4 -17q-11 -14 -32 -8q-2 -1 -2 -9t0.5 -16t-0.5 -12q-24 -1 -45.5 2t-42.5 10t-34 12.5t-36.5 16.5t-34.5 16q-11 -29 -16 -133q-15 -15 -17 -34q-8 -5 -57.5 -7t-54.5 -12q-8 3 -25.5 -3t-26.5 -7q-33 55 -24 145q9 13 4 51 q-8 -4 -62.5 -33.5t-87.5 -41.5q-6 4 -6 9t5.5 11.5t11.5 11.5t12.5 10t7.5 7q-21 7 -72 -21q-23 0 -32 24.5t10 41.5q32 30 172 102q-20 16 -60.5 30t-75 30.5t-48.5 42.5q-20 39 -6.5 56z" />
<glyph unicode="+" horiz-adv-x="878" d="M35 834q20 4 53 -3.5t47 -7.5q53 0 105 6h36v48q7 129 14.5 160.5t37.5 72.5q3 4 7 4.5t9.5 -0.5t9.5 0q0 42 15 64q6 9 12 6q6 -6 16 0t13 2q18 -25 36 -29q66 -19 99 -75t33 -115q0 -31 4 -133q135 0 166 -5q13 1 16 -2.5t0 -8.5t-5.5 -9.5t-0.5 -5.5q17 -2 27.5 -3.5 t21.5 -5t14.5 -8.5t-0.5 -12q16 -1 19 -4.5t-1.5 -8t-3 -11t14.5 -11.5q8 -8 10.5 -25t-13 -33.5t-54.5 -16.5q-35 -10 -199 -17v-12q4 -63 1.5 -103.5t-8.5 -61t-15 -30t-17 -11t-15.5 -4.5t-9.5 -9q-12 -10 -20 -4.5t-19.5 18.5t-17.5 14q-7 -36 9 -77.5t16 -49.5 q-6 -10 -10.5 -22t-5.5 -19l-1 -6q-21 -10 -31 -9.5t-12.5 6.5t-6.5 24t-11 31q-13 -59 -22 -59q-6 0 -15 16q-10 -2 -15 8t-6.5 22.5t-7.5 20t-18 0.5q-19 -39 -26 13q-2 12 -4 41l-3 36q0 32 -12 92t-10 98v29h-17q-68 -2 -111.5 6t-60.5 37q-28 15 -41.5 60t-15.5 92z " />
<glyph unicode="," horiz-adv-x="358" d="M-10 -262q-2 4 16.5 38t37.5 90t15 107q-4 13 -11 30.5t-10 27t-7.5 30t-3.5 38.5t2 53q2 18 15.5 43t14.5 28q2 8 15.5 16t13.5 19q130 75 248 4q-4 -5 -1 -10.5t7 -7.5q-22 -19 -18 -45q6 -35 -2 -99q-7 -69 -31 -151q-19 -65 -40.5 -113t-42.5 -83t-22 -38 q-8 -8 -31.5 -15.5t-31.5 -16.5q2 8 -6 12q-11 -10 -22 18q-6 17 -3 25q-23 -20 -59 -23q0 2 2.5 13t4 18.5t-0.5 9.5q-3 -1 -12 -21t-13 -20q-8 21 -24 23z" />
<glyph unicode="-" horiz-adv-x="696" d="M57 834q20 4 53.5 -3.5t47.5 -7.5q52 0 104 6q177 0 266 -12q13 1 16.5 -2.5t0 -8.5t-5.5 -9.5t0 -5.5q17 -2 27.5 -3.5t21.5 -5t14.5 -8.5t-0.5 -12q16 -1 19 -4.5t-1.5 -8t-3 -11t14.5 -11.5q8 -8 10.5 -25t-13.5 -34t-55 -17q-21 -6 -55 -9t-71.5 -4t-68 -0.5t-59.5 1 t-32 0.5q-68 -2 -111.5 6t-60.5 37q-28 16 -42 61t-16 91z" />
<glyph unicode="." horiz-adv-x="395" d="M16 -2q9 9 11 18t0 21.5t-2 15.5q0 83 43 164q20 41 51 55q3 0 4 -1.5t1 -3t1 -1.5q4 2 4 13q7 -1 40 5.5t40 4.5l78 -19q5 -10 13.5 -14.5t22 -7.5t21.5 -6q15 -18 24.5 -48.5t6.5 -56.5q-3 -15 -19.5 -40.5t-29.5 -35.5q-33 -31 -84 -59.5t-95 -40.5q-3 -2 -5 2t-5 4 q-12 -5 -24.5 -5.5t-25 2t-22 5.5t-22.5 8t-20 7z" />
<glyph unicode="/" horiz-adv-x="696" d="M0 73q-3 4 0 15q10 42 43 108.5t41 86.5q10 27 36 92.5t44.5 116.5t34.5 100q15 50 26 78q6 18 25 80q55 145 61 168q15 52 48.5 147t37.5 106q37 113 62 164q10 23 74.5 32.5t82.5 -5.5q7 -5 21.5 -20.5t27 -24t25.5 -8.5q10 -4 7 -33.5t-16 -70t-26 -60.5 q-8 -13 -14.5 -35t-11.5 -33q-16 -31 -30 -69t-28.5 -84t-15.5 -50q-23 -60 -39 -124q-17 -44 -51 -139t-51 -140q-2 -9 -7.5 -25t-7.5 -22q-5 -16 -23 -73t-27 -81t-25.5 -67.5t-34.5 -75t-39 -59.5q-5 -8 -17.5 -25t-13.5 -18q-3 -5 -12.5 -18t-13.5 -18t-11.5 -12.5 t-14 -10.5t-13.5 -3q-9 1 -27 8t-26.5 7.5t-26.5 -5.5q-8 -6 -12.5 1.5t-13.5 33.5t-21 47q-2 2 -13 8t-14 10z" />
<glyph unicode="0" horiz-adv-x="737" d="M31 754q6 127 44.5 293.5t88.5 255.5q15 23 36.5 46t35.5 29q28 -5 43 2q140 -60 194 -110q1 4 -4.5 13.5t-8.5 15.5t1 10q9 2 17 -0.5t19 -13.5t15 -15.5t18 -22.5q36 -50 60 -96q59 -118 82 -223q25 -102 33 -175.5t8 -172.5q-3 -280 -95 -434q-11 -18 -28 -37 t-27 -30.5t-10 -20.5q-2 -39 -131 -84q-2 -1 -23 -10.5t-30 -10.5q-70 -8 -129 43q-34 30 -69 85.5t-71.5 145t-56 225.5t-12.5 292zM340 680q-3 -69 0.5 -138t27.5 -166t70 -153q55 42 81.5 105.5t41.5 148.5q30 138 12 326q-12 100 -45.5 199.5t-66.5 140.5 q-106 -192 -121 -463z" />
<glyph unicode="1" horiz-adv-x="770" d="M10 856q12 6 26.5 17t32.5 28.5t32.5 32t35.5 38t31 35t30 35.5t23 27q51 58 68 105q2 13 11 5.5t11 -1.5q2 9 6 36t8.5 48.5t8.5 27.5q7 10 53 39q4 3 11 11t14 12t18 4q7 0 33 2.5t41.5 1t19.5 -9.5q4 -7 17 -8t16 -9q1 -3 8 -24.5t6 -30.5q46 -72 59.5 -188.5 t-9.5 -206.5q3 -101 -6.5 -346t-4.5 -377q15 -1 68 -1.5t78 -6.5q4 -2 5.5 -13.5t10.5 -15.5q3 -2 -9 -20.5t-5 -22.5q5 -2 -8 -11.5t-26.5 -20t-8.5 -15.5q4 -5 1.5 -8t-8 -7.5t-6.5 -7.5q4 -4 -6 -6q-7 -1 -27 -2q-39 -1 -51 -6q-86 5 -163 0t-172 -3t-156 17q0 3 -9 8 t-3 13q7 15 0 26.5t-4 14.5q5 4 -0.5 5t-12.5 1q-7 2 6 11q9 8 7 11q-24 18 -25 20q-2 5 8 7q14 1 57 6.5t81.5 9.5t60.5 4q-18 74 -12.5 336t0.5 353q-60 -57 -127 -76q-17 -5 -32.5 -4.5t-26.5 3.5t-25.5 13t-23.5 18t-28 25q0 13 19 23q-2 5 -13.5 9t-13.5 9z" />
<glyph unicode="2" horiz-adv-x="815" d="M11 133.5q0 6.5 4.5 15t4.5 9.5q-3 57 41 116q3 4 9.5 13t11.5 18t8 19q-20 -2 29 64t135.5 173t120.5 156q61 87 90.5 167.5t15.5 184.5q-2 14 -8.5 30t-13.5 19q-18 9 -64 -37q-44 -44 -59.5 -104t-9.5 -146q-10 -29 -63 -58t-66 -48q-19 -33 -73 11q-59 48 -91 127 l-13 38q-19 81 7 178q20 74 76 142.5t130 111.5q6 3 18 12t17 11q43 11 87.5 4.5t84.5 -21.5q85 -33 160.5 -88t110.5 -100q52 -65 67.5 -172.5t-8.5 -192.5q-13 -49 -33 -86q-57 -100 -178.5 -269.5t-161.5 -215.5q21 -1 79.5 -7.5t99.5 -4.5t73 18q40 20 58 43t36 66 q12 24 23 24q6 0 8 -31q0 -12 3 -14q2 -1 7 4q8 9 9 -9q3 -37 -15 -99q-1 -5 3 -7t9 -2.5t8 -4t-1 -11.5q-6 -16 -8 -34.5t-6 -28t-17 -17.5q0 -3 3 -9t5 -11.5t3.5 -11t-1.5 -8.5t-10 -3q-24 -3 -53.5 -24t-46.5 -25q-10 -3 -48 -4.5t-49 -3.5q-33 -4 -129 0t-143 0 q-33 -2 -80 -2q-79 0 -162 22q0 3 3.5 6.5l4.5 4.5q-3 3 -10.5 4.5t-9.5 3.5q-1 3 0.5 11t0 14t-10.5 10q-8 3 -2.5 26.5t-10.5 26.5q-9 0 -9 6.5z" />
<glyph unicode="3" horiz-adv-x="774" d="M29 330q11 89 53 196q110 -19 160 -69q84 -84 67 -144q-55 -47 -18 -145q33 -4 61 11.5t45 39.5q31 41 40 95.5t-11 115.5q-48 127 -213 207q-13 1 -12.5 13.5t-7.5 25.5q-16 8 -4.5 34.5t28.5 39.5q18 7 82 55q47 33 89 81t46 89q8 71 -41 96q-23 13 -43.5 -11.5 t-24 -61t8.5 -68.5q-25 -32 -39 -35q-3 -4 -6.5 -10t-7 -10t-7.5 -7q-4 -1 -16 11q-2 -9 -11 -12.5t-14 3.5q-5 6 -16.5 11.5t-17.5 11.5q-4 -1 -9 -14t-8 -13t-7.5 8t-4.5 13q-5 -2 -16 -7t-17 -8q-10 -2 -14.5 -0.5t-15 9t-13.5 8.5q-5 4 -6.5 8.5t-0.5 10.5l1 7 q-27 73 -27 121q0 26 4 52t9 46t17.5 45t19.5 39.5t25 39.5t24.5 34t26.5 35t24 31q36 9 72 -12q61 18 127.5 1.5t115.5 -55.5q94 -67 156 -180t49 -201q-11 -75 -69.5 -158t-104.5 -110q105 -56 161 -171.5t25 -254.5q-13 -59 -53 -108t-76 -71.5t-71 -35.5 q-114 -45 -281 6q-26 8 -55 22.5t-65.5 43t-63.5 63t-42 85.5t-7 108z" />
<glyph unicode="4" horiz-adv-x="974" d="M29.5 483.5q2.5 2.5 7.5 4.5t4 6q-2 14 2 13q1 0 5 -3q4 -5 4 -1q-1 5 -7 23q-9 15 -4 39.5t12.5 41t20 52.5t18.5 72q5 23 7.5 49t3.5 47.5t0.5 49.5t-1 46t-3 45.5t-4 39.5t-4.5 37.5t-3 29.5q-2 14 -1 40t-1 34q-2 6 -9.5 15.5t-6.5 17.5q4 4 14.5 9t15.5 9 q-6 9 -18 12q7 9 35 13q1 4 -1 9t-1 9q40 10 121 -6q34 -5 49 -7.5t42 -9.5t41.5 -15.5t30 -23t23.5 -34.5q36 -100 32.5 -277t-36.5 -317q85 -10 162 -10q4 55 4 194q1 148 10.5 297.5t9.5 196.5q0 32 -20 78q8 2 20 9t19 9q-2 4 -11.5 12t-9.5 17q94 4 146 -19l6 -12 q96 -26 118 -176q13 -90 2 -332q-1 -41 -2 -57q-2 -57 -2 -230q22 -4 37 -12.5t51 -34.5q-2 -9 -15.5 -6t-16.5 2q8 -6 22.5 -13.5t16.5 -8.5q13 -4 2 -12q-7 -5 -17 -5q-7 -2 -1.5 -11t-6.5 -15q-13 -5 -1 -22.5t-3 -20.5q-34 -14 -70 -17q0 -26 2.5 -93t1.5 -105 q0 -4 -0.5 -13.5t0 -14t1.5 -11.5t3 -10.5t7 -7t12 -3.5q5 0 6 -13.5t6 -16.5t0 -11t-12.5 -19t-5.5 -18q6 -9 -61 -19l-31 -3q-43 -17 -110.5 -15t-104.5 21q-7 6 -14.5 16t-10.5 13q-6 5 6 7q15 3 17 5q-2 6 -8.5 16.5t-10 19.5t-4.5 19q0 5 5 8.5t5 4.5q-7 149 2 231 q-5 0 -95.5 1t-156 2.5t-141 10t-100.5 21.5q-3 1 2.5 7.5t-0.5 8.5q-10 3 -17.5 15.5t-14.5 32t-13 28.5q-6 12 -3.5 14.5z" />
<glyph unicode="5" horiz-adv-x="808" d="M32 369.5q7 90.5 46 146.5q-2 6 1.5 15.5t2.5 17.5q8 5 11.5 11.5t5 19t3.5 18.5q13 2 40 -6t42 -4q19 -10 31 -8q32 -24 51 -43l13 -13q2 -2 8.5 -2.5t7.5 -1.5q7 -7 24 -29.5t21 -31.5q7 -14 4 -34t-7.5 -32t-12.5 -29.5t-11 -27.5q-7 -23 -8 -65t14 -85t48 -49 q47 -11 79 40t41.5 127.5t1.5 152.5q-11 95 -49 167.5t-94 88.5q-12 -3 -25 0t-30 10t-27 10q-11 2 -36.5 8t-42 8.5t-31.5 2.5q-9 0 -3.5 10t-3.5 12q-7 1 -21.5 -2t-22 -1t-11.5 13q1 4 7.5 8t6.5 9q-4 66 9 176t12 162q-1 27 -5.5 44.5t-9.5 23t-9.5 9.5t-4.5 7 q2 5 12.5 5t10.5 5q0 20 -25 41q-4 2 2 3q10 2 11 5q1 2 -7 6q-11 5 0 6q10 -1 11 4t-1 9.5t5 5.5q33 -7 33 2q2 4 -4 5q-14 3 -13 2q-1 2 4 5q10 6 28.5 6t43.5 -3t37 -3q34 -4 104.5 4t98.5 8q20 1 107 -2t97 4q6 2 12 -6.5t13.5 -20t13.5 -14.5t-5 -6q-9 -3 -10 -5 q0 -1 5 -3q9 -2 14.5 -7t-0.5 -13q-10 -10 -3.5 -48.5t5.5 -41.5q-5 -28 -18 -15q-3 3 -5 -1t-3.5 -10t-3.5 -7q-24 -13 -70 -17q-204 -17 -301 -2q31 -92 31 -229q25 3 95.5 -10t121.5 -41q90 -50 135 -105t78 -127q43 -130 33 -223q-5 -69 -22 -127.5t-41 -98t-49 -69 t-53.5 -48t-46 -27.5t-34.5 -15q-18 -19 -94 -25.5t-144.5 2t-68.5 27.5q-51 16 -104.5 67.5t-78.5 119.5q-30 84 -23 174.5z" />
<glyph unicode="6" horiz-adv-x="763" d="M25 563q1 20 4 41t9.5 52t8.5 40q6 49 14 86q37 133 45 158q24 73 92.5 192.5t127.5 186.5q41 52 94 39q7 0 24.5 -9.5t24.5 -11.5q10 -2 35 -3.5t35 -7t10 -21.5q0 -15 7.5 -40.5t9.5 -40t-9 -42.5q-9 -11 -31.5 -39t-33.5 -43t-28.5 -39.5t-30 -47.5t-23.5 -48 q66 1 140.5 -43.5t106.5 -98.5q82 -129 88 -270q6 -148 -27.5 -252.5t-105.5 -187.5q-10 -11 -34 -43.5t-37 -46t-13 -0.5q-2 16 -18 -3q-20 -25 -27 -23q-2 0 -4 3q-14 7 -31.5 2t-49 -15t-46.5 -10q-161 10 -247 164.5t-80 421.5zM313 483q0 -79 12.5 -142t29.5 -93.5 t34 -30.5q27 0 55.5 44t46.5 112.5t17 132.5q-1 83 -20 141.5t-46 84.5t-50.5 36t-43.5 8q-19 -61 -27 -150t-8 -143z" />
<glyph unicode="7" horiz-adv-x="813" d="M-8.5 1282.5q5.5 3.5 4.5 5.5q-2 3 2 3q2 0 5 -1q10 -1 15 0q0 5 -4 12t-4 11q7 -1 23 -1t26 -1q-1 4 -10 14q-4 4 2 4q60 6 123.5 6.5t141 -2t114.5 -2.5h30h33t28.5 1t32.5 3.5t26.5 6.5t27.5 10q9 6 26.5 -2t24.5 -7q5 1 14.5 -7.5t20.5 -2.5q3 2 8.5 -4.5t16.5 -5.5 q10 1 11 -3.5t-3 -10.5t-5 -11.5t5 -5.5q11 0 22 -7.5t13 -12.5q1 -6 9 -1.5t9 -4.5q0 -1 5 -7.5t1 -15.5q-2 -5 -1 -6t6 3q12 9 16 5q4 -6 2.5 -11.5t-6.5 -19t-6 -22.5q-3 -88 -70 -186q-34 -50 -49 -73t-53 -93.5t-70 -149.5q-95 -234 -104 -457q0 -11 3 -43t3 -43 q0 -12 -3.5 -25.5t-9.5 -29t-8 -20.5q9 -20 2 -33q-3 -6 -8 -2q-4 3 -19 -15.5t-24 -15.5q-18 5 -36.5 -4.5t-22.5 -7.5q-7 7 -17.5 3t-21.5 -1q-3 -1 -6.5 -7.5t-10.5 -4.5q-15 6 -21 -6.5t-7 -12.5q-5 1 -16 11.5t-21 7.5q-3 16 -17 40t-18 39q-2 9 -8 -2q-7 -11 -10 -2 q-13 39 -13 84q0 10 2 52.5t2 54.5q2 57 18.5 164t37.5 176q41 144 101 286.5t110 223.5q-190 19 -279 55q-91 36 -141 117q-6 7 -0.5 10.5zM258 449q5 3 10 21t6 32.5t0 17.5q-3 -7 -12 -39t-4 -32zM284 540q0 -3 1 -3q-1 2 6.5 28.5t14 51t3.5 24.5q-1 0 -6 -13 q-9 -25 -12 -24q-1 6 -3 -3q-7 -36 -4 -61zM365 754q3 -2 8 6t9.5 21t8.5 26t5.5 22t0.5 9q-3 0 -19 -41.5t-13 -42.5z" />
<glyph unicode="8" horiz-adv-x="817" d="M38 399.5q10 135.5 77 216.5q3 2 -0.5 8.5t0.5 12.5q15 22 54.5 50t55.5 46q-45 56 -64.5 82t-45.5 78t-33 104q-23 170 98 322q8 11 34 32.5t34 37.5q3 0 4.5 -1.5t2 -4t1.5 -3.5q3 2 8 13t12 12q4 1 6 -0.5t4.5 -4.5t6.5 -5q7 -4 27 -9.5t26 -9.5q9 -6 21.5 -19.5 t15.5 -15.5q1 -1 5 0.5t7 -2.5q5 -5 46 -22.5t44 -22.5q18 3 36.5 -6.5t27.5 -11.5q2 2 -5.5 9t-4.5 9q10 0 24.5 -14.5t18.5 -13.5q3 1 5.5 -1t3 -4.5t2 -4.5t3.5 -1q3 3 -2.5 8t-10.5 10t-3 7q21 -8 44.5 -37.5t32.5 -36.5q6 -19 23.5 -55t26.5 -69t6 -74q0 -4 -3.5 -7.5 t-4.5 -5.5q-1 -53 -29.5 -108.5t-63.5 -95.5q150 -177 185 -299q35 -124 4 -246q-18 -64 -42 -106t-75 -91q-20 -19 -67 -39.5t-78 -27.5q-45 -10 -131.5 -8t-128.5 14h-23q-65 33 -78 41q-9 14 -28.5 32.5t-34 37t-19.5 40.5l-14 19q-2 4 -1.5 8t-0.5 8q-52 90 -42 225.5z M236 397q-26 -95 10 -172.5t108 -85.5q81 -8 121.5 58t30.5 157q-2 15 -5 30t-9.5 31t-11.5 28t-16 29t-16.5 26.5t-19 28t-18.5 25t-20.5 26.5t-18.5 24q-34 -26 -78.5 -93.5t-56.5 -111.5zM340 1051q3 -12 10 -25t20.5 -29t21 -24.5t27 -28.5t23.5 -24q6 7 26 27.5 t29 32.5t17.5 35.5t7.5 49.5q-1 15 -6.5 30t-9.5 22t-17 30q-17 22 -25.5 32.5t-24 23.5t-29.5 18q-1 1 4 6q-2 2 -9.5 12.5t-13.5 13.5q0 -4 -2.5 -20.5t0.5 -26.5q1 -3 5 -1q5 2 5 -3t-2 -7.5t-7.5 -5.5t-6.5 -3q5 -10 -6 -21q-26 -22 -35.5 -54.5t-1.5 -59.5zM375 1329 q0 -2 2 -9t4.5 -15t6 -14t5.5 -5q0 4 -7.5 23.5t-10.5 19.5zM399 1306q1 -7 5 -14t8 -6q2 2 -3.5 15.5t-9.5 13.5q-1 -2 0 -9z" />
<glyph unicode="9" horiz-adv-x="856" d="M28.5 755q-16.5 118 4.5 218q25 120 76.5 206.5t144.5 145.5q2 1 7.5 4.5t9 6t8 6t7.5 7.5t5 9q94 0 125 -23q183 -18 286 -172.5t123 -400.5q11 -141 -4.5 -291.5t-64.5 -251.5q-112 -235 -373 -235q-92 0 -173.5 45.5t-127 126.5t-31.5 174q2 11 7.5 16t12 6t16.5 6.5 t19 16.5q3 4 21 -1t20 5q7 18 21 -5q3 -5 6 -12q3 -9 18 -13.5t17 -20.5q1 -10 3.5 -14t5 -3.5t6 -3.5t5.5 -14q1 -3 7 -20.5t8.5 -24t10 -20t14 -19.5t18 -11t24.5 -5q42 1 85.5 29t72.5 65q57 71 72 186q-39 -24 -45 -27q-51 -27 -113 -32q-179 -9 -291 155 q-47 68 -63.5 186zM231 485q8 -15 36.5 -23t49 -7t25.5 4q-16 0 -31.5 2.5t-25.5 5.5t-27.5 9t-26.5 9zM305 438q22 -9 71 -9t50 17q-18 -3 -63.5 -4.5t-57.5 -3.5zM326 825q-2 -56 13.5 -122t51.5 -78q43 -11 84 30q30 26 64 84q-4 170 -37 271q-9 36 -25.5 68.5 t-36.5 39.5q-108 -97 -114 -293z" />
<glyph unicode=":" horiz-adv-x="438" d="M51 938q17 58 115 104q3 2 13 8t12 7t10.5 4t12.5 1.5t13 -3t17.5 -7t21 -13.5t27.5 -19q26 -16 39 -37q6 -8 18 -21t17 -22t6 -22q4 -44 -2 -77.5t-15 -51.5t-26.5 -31t-28 -17.5t-28.5 -9.5q-5 -1 -7 -2q-20 -6 -80 2q-33 6 -68 24.5t-48 49.5q-14 27 -17 41 q-14 52 -2 92zM53 180q6 28 23 70q11 26 42.5 48t63.5 30q35 9 68 6q7 -1 22.5 5t30.5 3q20 -5 34 -16.5t22 -31.5t12.5 -36t9.5 -43t8 -39q2 -8 2.5 -15t-1.5 -14.5t-3.5 -12.5t-6 -12t-6 -9.5t-6.5 -9.5l-6 -7q-19 -26 -30 -39.5t-31.5 -29.5t-40.5 -19t-48.5 1.5 t-60.5 17t-57 32t-37.5 51.5t-3.5 70z" />
<glyph unicode=";" horiz-adv-x="397" d="M37 -205q2 41 30.5 84.5t28.5 93.5q-24 23 -34 51.5t-7 77.5q6 48 21.5 76t48.5 55q4 3 14 12.5t18.5 14t18.5 4.5q2 0 23.5 9.5t29.5 2.5q11 -7 43 -12t39 -12q44 -47 35 -117q-1 -10 -7 -31t-7 -26q-16 -85 -17 -92q-24 -80 -69 -131l-17 -17q-4 -8 -26.5 -19 t-26.5 -16q-12 0 -22 -10q-6 -1 -10.5 0.5t-6.5 1.5q-4 -1 -10.5 -6.5t-11.5 -7.5q-9 3 -12.5 2.5t-10.5 -4t-12 -4.5v8q-6 -2 -14.5 -1.5t-12.5 -0.5q-6 6 -6 16q-2 1 -5 -3t-5 1zM38.5 875.5q-3.5 12.5 0.5 19.5q0 4 3.5 11t9 15.5t7.5 12.5q9 21 23 35q36 41 72 47l10 -1 q10 -1 12 1q57 4 68 2q14 -4 28 -12t21.5 -14.5t20.5 -19.5l18 -18q25 -57 26 -77v-68q-9 -8 -22 -35t-21 -39q-12 -19 -45 -41q2 -3 -1.5 -8t-4.5 -8q-4 6 -26 10q-46 15 -54 21q-70 36 -114 98q-1 1 -7 10t-7.5 12t-7.5 13.5t-6 15.5t-3.5 17.5z" />
<glyph unicode="&#x3c;" horiz-adv-x="700" d="M55 598q-4 22 2 74.5t17 62.5q86 109 160.5 182t211.5 189q3 7 11 10.5t24 -7.5t33 -44q37 -6 89.5 -66.5t37.5 -83.5q-61 -78 -160.5 -178t-144.5 -151q1 -1 50.5 -62t92.5 -92q5 -8 23.5 -25.5t45 -40t32.5 -28.5q34 -34 39 -41q22 -32 -15 -37q6 -2 1 -11t-5 -16 q-9 3 -39.5 -21.5t-46.5 -16.5q-8 2 -67.5 42.5t-65.5 43.5q-44 25 -72.5 52t-50 53.5t-37.5 39.5q-5 4 -34 33q-19 20 -21 1q-1 -6 0 -16q1 -25 -30 8q-45 48 -72 116q-6 16 -9 30z" />
<glyph unicode="=" horiz-adv-x="864" d="M70 924q2 4 2.5 11.5t0.5 13t2.5 9.5t8.5 3q56 0 102 6q48 7 126.5 -3t101.5 -10q16 -2 120.5 4.5t122.5 6.5q11 0 26 3t25 6t29 9t25 8q11 5 12 -5q0 -4 -2 -15q-3 -16 -2 -21q11 -33 2 -49q21 -5 24 -44.5t7 -43.5q15 -19 -41 -41q-39 -16 -100 -27q-163 -23 -160 4 q1 5 8 11q-319 0 -350 8q-30 6 -43 17.5t-19 30.5t-10 24q-7 9 -14.5 40.5t-3.5 43.5zM74 659q1 24 2 35q1 4 2.5 4.5t4.5 -1.5t6 -5t9 -7t13 -7q64 -29 104 -29q32 -1 124 0.5t116 3.5q28 -1 105 8t124 3q11 -2 34.5 0.5t41 1.5t24.5 -11q8 0 11 -7t4 -19t2 -15q16 6 15 -1 q0 -4 -6 -15q-13 -24 -1 -25q7 -2 7.5 -6t-4 -9.5t-10.5 -11.5t-12 -14.5t-8 -15.5q-4 -14 -18.5 -21t-20.5 -8t0 -16q13 -18 -60 -32q-126 -25 -332 -22q-115 1 -148 13q-34 12 -60.5 40.5t-39.5 61.5t-21.5 68t-7.5 59zM541 768q3 -11 98 1t96 24q-7 7 -49.5 2 t-92.5 -14.5t-52 -12.5z" />
<glyph unicode="&#x3e;" horiz-adv-x="692" d="M37 954q11 11 33 7q4 7 -9.5 20.5t-3.5 24.5q15 9 48.5 77t48.5 70q0 -1 20 -7t21 -18q24 -5 39.5 -20.5t27.5 -22.5q18 -10 51.5 -26.5t46.5 -24.5q31 -21 100 -83.5t79 -76.5q13 -9 31.5 -30t41 -49.5t27.5 -34.5q0 9 7 -5q10 -17 5 -28q-4 -25 -17.5 -52t-31.5 -28 q4 -17 -73.5 -90t-175.5 -147.5t-148 -94.5q-16 -21 -23 -30t-15.5 -15t-14 -2.5t-11.5 15.5q-10 -22 -44 12q-19 20 -27 39q-3 5 8 13t8 15q-8 0 -13 5.5t-1 17.5q8 20 61.5 68.5t137 117.5t108.5 91q-10 15 -80.5 67t-150.5 116t-111 109z" />
<glyph unicode="?" horiz-adv-x="651" d="M23 1149q10 2 22 14q2 2 2.5 9t1.5 8q16 12 39.5 35t26.5 26q6 5 18.5 13.5t18.5 13.5q5 4 15 15t15 15q33 22 87 37.5t102 14.5q54 -3 100 -35q29 -20 47.5 -46.5t44.5 -76.5q74 -136 49 -266q-21 -95 -104 -199q-35 -45 -70 -82q-7 -7 -27.5 -25.5t-30.5 -29.5t-21 -30 t-13 -38q-3 -19 -0.5 -49t-1.5 -51q-5 -4 -14 -6.5t-14.5 -6.5t-6.5 -12q-2 0 -3 3.5t-3 2.5q-1 -2 -8 -7t-6 -13q-20 1 -38 -15.5t-28 -19.5q-6 2 -10 19q-7 -1 -23 -17q-3 1 -13 4.5t-14.5 3.5t-15.5 -4q-2 1 -0.5 9t0.5 12q-27 9 -37.5 50.5t-8.5 81.5t10 83q5 29 28 82 q8 19 21 38.5t22 30.5t28.5 33t25.5 29q25 36 49 63q2 3 26.5 32.5t34.5 49.5q27 63 21 139q-26 -2 -80.5 -26t-85.5 -23q-65 0 -92 19q-1 1 -2.5 4t-2.5 4q-6 6 -27.5 18.5t-27.5 18.5q-5 5 -9 12.5t-9 18t-8 16.5zM66 242q2 2 6 14q7 2 23 7.5t26.5 8.5t26.5 3.5t30 -5.5 q2 1 5 5t7 4q99 -35 164 -97q13 -12 28.5 -34.5t16.5 -36.5q3 -22 -6 -52t-22 -43q-7 -4 -27 -10t-27 -16q-13 2 -38 -13q-14 5 -21 3q-3 0 -4 1t-1 3.5t-1 3.5q-14 5 -26.5 -6t-14.5 -11q-7 -1 -19 5t-22 4q0 12 -2 14q-2 0 -3 -3t-3 -3q-10 4 -18.5 12.5t-17 21 t-13.5 17.5q10 25 -13 43q0 16 2 18q-28 25 -28 93q3 0 4.5 -2.5t3.5 -2.5q6 6 4.5 15t-5 14.5t-8.5 13t-7 11.5zM309 1325q10 -14 47 -2q-1 1 0 3t1 3q2 4 -1 4q-4 -1 -23 -1.5t-24 -6.5zM367 1331q4 1 5.5 -2t1.5 -7t1.5 -7t5.5 -2q3 0 2 6t2 6q5 -1 16.5 -3.5t16.5 -2.5 t16 2q-46 15 -67 10zM395 1313q19 -19 41 -13q-11 9 -41 13z" />
<glyph unicode="@" horiz-adv-x="1437" d="M83 566q14 171 87 345q59 140 132.5 232t172.5 162q90 63 209 95.5t244 16.5q172 -21 299 -182q47 -60 82.5 -153t42.5 -183q15 -170 -18 -327t-120 -255q-50 -56 -121 -78.5t-139.5 -6.5t-111.5 65q-45 53 -82 211q-75 -3 -150 0q-12 -25 -26 -71t-26 -77.5t-26 -40.5 q-49 -32 -104 -4q-13 7 -16 22.5t5 48t17.5 61t30.5 83.5q-50 12 -82 66.5t-21 73.5q49 -19 140 -19q23 59 157 379l33 78q0 12 -6 23t-12 17l-6 5q0 72 137 72q33 0 59 -4t45 -13t32.5 -18.5t22 -26.5t14 -30t8.5 -36t4 -38t2.5 -42.5t2.5 -43.5q25 -369 41 -434t49 -91 q26 -21 45 5q33 45 50.5 121t18.5 156.5t-7 164.5q-10 89 -42.5 180.5t-76.5 136.5q-48 51 -105 77.5t-141 25.5q-55 0 -122.5 -27.5t-106.5 -64.5q-77 -72 -148 -188.5t-108 -217.5q-33 -92 -47.5 -184t-4 -186t49.5 -164q44 -78 108.5 -124.5t163.5 -72.5q82 -22 196 -12 t202 47q8 4 33 20.5t42 18.5q-6 -9 -8 -20.5t-2.5 -28.5t-1.5 -27q-22 -109 -147 -156q-130 -48 -259 -50t-236.5 38.5t-190 124t-121.5 199.5q-50 155 -36 326zM106 449q0 -24 8 -78.5t15 -61.5q-1 2 -2 15t-2 32t-2 27q-13 151 2 281q2 8 5.5 21t6 23.5t4.5 20.5t1.5 15.5 t-5.5 5.5q-35 -117 -31 -301zM649 637q80 3 105 8q-1 50 -9.5 123t-9.5 100q-4 -10 -36.5 -99t-49.5 -132z" />
<glyph unicode="A" horiz-adv-x="811" d="M-6 -43q14 19 26.5 55t28 93t23.5 83q-1 1 -16.5 10t-25.5 17t-7 12q4 3 13.5 4.5t14.5 4.5q-6 3 -19 6t-21.5 6.5t-8.5 7.5q3 3 12 1.5t15 2.5q0 5 -6 11.5t-5 15.5q19 0 41 9.5t37 12.5q40 136 103 420.5t82 360.5q2 8 7.5 25.5t6.5 25.5q0 49 -10 104q-3 18 -9.5 30.5 t-17.5 18t-25 -7.5q1 6 2.5 11t4.5 9l4.5 6t7.5 5.5t8 4.5t10.5 4.5t10.5 4.5q4 2 10.5 6.5t9.5 5.5q14 5 35 5q29 0 74 -9q92 -32 100 -51q1 -3 4 -8t4 -8q14 -4 23 -15t13.5 -27.5t6.5 -32.5t4.5 -37t5.5 -34q1 -4 5.5 -12t5.5 -12q8 -22 15.5 -69t12.5 -66 q16 -61 88 -484q6 -25 9 -59q9 -63 34 -213q2 -10 8.5 -31.5t9.5 -37t1 -31.5q-2 -8 -21 -13q-12 -65 -55 -106q-5 10 -25 12t-39 -0.5t-34 0.5q-4 -16 -26 -20.5t-40 2.5q-3 13 -18.5 29t-18.5 22q-16 31 -39 139q-15 0 -50.5 2t-58 2.5t-53.5 -0.5t-55 -4 q-38 -122 -68.5 -160.5t-103.5 -60.5q-10 -3 -23.5 -5t-25.5 -0.5t-12 7.5zM264 330q110 8 160 8q-56 330 -64 362q-11 -47 -96 -370z" />
<glyph unicode="B" horiz-adv-x="829" d="M31 1251q2 6 2.5 11t0.5 8.5t-1 11t-2 12.5q3 0 7 -2.5t9 -1.5q136 57 280 57q123 0 251 -42q87 -31 114 -58q22 -20 44.5 -49.5t29.5 -52.5q4 -11 6 -24t2.5 -23t-0.5 -25t-2 -23.5t-3 -26t-3 -24.5q0 -3 -4 -10.5t-4 -11.5q0 -3 1 -11t1 -12q-12 -57 -40.5 -115 t-53 -92.5t-70.5 -91.5q18 -7 48.5 -23.5t45.5 -23.5q-1 -1 -2 -3l-1 -4q5 3 9 1q60 -66 88 -126q23 -50 24 -123q0 -13 -1 -27q-5 -74 -86 -174q-24 -31 -53 -54q-6 -5 -14.5 -14.5t-10.5 -11.5q-24 -18 -76.5 -35t-68.5 -25q-88 -16 -117 -16q-15 0 -40 -3t-40 -3 q-18 -1 -57 1.5t-58 2.5q-20 1 -32 2t-29.5 5.5t-26.5 11.5t-15 21t-3 34q-1 0 -9.5 3t-11 4.5t-8 5t-7.5 7.5t-3 10q11 -1 16 2.5t8 9.5t7 9q-10 95 -10 202t3 227q2 72 2 131q0 39 -1 71v27q0 113 14 296q2 23 9 65.5t9 63.5q-24 0 -36 11q-3 3 -1 4q1 2 7.5 2.5t7.5 1.5 q-2 2 -29 3q-4 2 -4 3q5 7 4.5 9t-7.5 7.5t-9 7.5zM313 1206q44 -222 53 -324q5 -59 5 -118q33 37 68 110.5t61 149.5q10 24 10 64v14q-2 50 -23 67q-23 21 -93.5 27.5t-80.5 9.5zM375 545q2 -69 2.5 -212.5t1.5 -187.5q60 15 104 41q57 36 76 74q22 44 22 97q0 18 -3 38 q-8 74 -58 121q-32 30 -71 30q-22 0 -46 -9q-16 8 -24 10z" />
<glyph unicode="C" horiz-adv-x="743" d="M29 741q10 80 34 150q37 100 68 160.5t88 128.5q11 15 76 80q39 33 84 55q42 18 66 18h6q8 -3 17.5 -18t16.5 -21q5 -8 15.5 -19.5t18 -22t11.5 -23.5q23 82 23 135q12 -6 46.5 -15t51.5 -22q0 5 1 14.5t1 10.5q9 -2 17.5 -14.5t18 -33t13.5 -26.5q10 -4 21.5 -29.5 t9.5 -36.5q3 0 7 -4t5 -4q1 -15 -11 -39t-13 -32q-1 -5 1 -19t1 -20q-1 -13 -5 -32.5t-5 -29.5q0 -36 -8 -67q-3 -21 -13 -60.5t-12 -58.5q-4 -17 6 -23q-6 -5 -10 -19.5t-6 -17.5q-45 -9 -64 -49q-42 -6 -71 -32q-21 25 -35 118q-3 16 -4 34.5t-2 33t-0.5 35.5t1 32 t2.5 34.5t2.5 31t3.5 33.5t3 30q-52 -24 -90.5 -73t-75.5 -121q-64 -122 -65 -259q0 -12 1 -24q5 -127 50 -262q31 -79 75 -129q14 -28 21 -35q32 -32 62 -32q10 0 20 4q43 17 97.5 133t76.5 211q5 -3 4.5 -10.5t-2.5 -12.5q0 -3 7 -3q3 1 1 -3q0 -13 -7 -40t-5 -40 q5 -1 6 3t0 9t2 7q2 -9 2 -15t-4 -22t-4 -19q0 -6 2.5 -16.5t-0.5 -15.5q3 -1 4.5 -1t2.5 4.5t1 7.5v7q2 -8 2 -17q0 -26 -14 -59q2 -12 2 -24q0 -21 -6 -40q-10 -30 -29 -60t-25 -50q-41 -56 -111 -86q-46 -20 -96 -20q-26 0 -53 6q-101 21 -174 102.5t-114 210.5 q-48 144 -48 310q0 62 7 128zM51 641q-1 -18 -1 -36q0 -179 55 -324q60 -160 169 -230q-7 10 -53.5 62.5t-64.5 91.5q-31 56 -68 203q4 5 4.5 12t-1 17t-1.5 14q-2 20 -10 78q-8 57 -10 87q-1 13 -2 32q0 22 2 50q1 10 4 27.5t5.5 32.5t4.5 29.5t1 23t-5 8.5 q-2 -6 -3.5 -22.5t-4.5 -24.5q-18 -59 -21 -131zM100 866q8 6 23.5 36.5t25.5 58.5t3 28t-28.5 -53.5t-23.5 -69.5zM270 432q8 -79 58 -186q4 0 8 -6t0 -15q39 -40 86 -80q-10 16 -33.5 43t-32.5 43q-51 79 -86 201z" />
<glyph unicode="D" horiz-adv-x="851" d="M38 1286.5q-9 20.5 9 44.5q8 1 19.5 -3t17.5 -5q97 15 188 15h42q110 -4 218 -40q16 -5 97 -47q81 -47 135 -149q37 -71 55 -205q8 -62 8 -126q0 -84 -14 -169q-16 -94 -45.5 -164.5t-79.5 -152.5q-24 -18 -63.5 -63t-59.5 -62q-9 -8 -30 -24t-31 -25q-7 -6 -15 -12.5 t-14.5 -11.5t-16.5 -11t-15.5 -9.5t-17.5 -10t-17 -9t-18.5 -9.5t-17.5 -9t-20 -9.5t-20 -9.5q-63 -30 -108 -30h-11q1 14 -16 20t-19 8q-3 0 -3.5 -1t0.5 -3l2 -4t1 -4t-2 -4q-7 -1 -13.5 -1.5t-13.5 0.5t-11 1.5t-12 3.5t-10 3.5t-11.5 4.5t-10.5 4q-3 8 -13 26.5 t-16 35.5t-8 36q-5 29 -5 132v57q1 92 1 146v55q-2 63 -2 124q0 122 8 236q7 92 17 169t16 116.5t6 58.5q-37 23 -37 31q0 2 5 3.5t6 2.5q-2 3 -8 6t-10.5 5t-2.5 5h19q-23 13 -32 33.5zM362 209q12 6 28.5 24.5t25.5 36.5q18 34 59 154q4 13 16.5 48.5t20.5 62.5t12 53 q21 90 21 201q-1 12 -1 24q-2 125 -32 209q-20 52 -53 91t-76 44l-4 -4q-3 -121 -6.5 -448t-10.5 -496z" />
<glyph unicode="E" horiz-adv-x="638" d="M16 1274q25 12 27 14q-3 4 -11 11.5t-12 15t-4 18.5q55 10 97 10q53 0 84 -16q26 -1 62 -1q61 0 151 3q45 2 81 2q77 0 105 -8q8 -2 -8 -9q-2 0 -4 -1q5 -10 28.5 -5.5t24.5 -4.5q3 -17 -12.5 -39.5t-14.5 -30.5q0 -8 -18.5 -14.5t-52 -10.5t-65 -6.5t-72.5 -5t-60 -4.5 q16 -93 16 -207q0 -81 -8 -174h14q33 0 98 3q46 2 83 2q27 0 49 -1q2 -6 -0.5 -18t-1.5 -17q0 -5 5 -13t5 -13q1 -13 -5 -25.5t-10 -17.5t-21 -19l-17 -14q-5 -2 -7 1.5t-5 0.5q-19 -9 -45.5 -12.5t-44 -3.5t-56 2t-51.5 2q-3 -25 -3 -64q0 -69 9 -182q-4 -37 -4 -107v-19 v-51v-77q16 -4 33.5 -6t41 -3.5t36.5 -2.5q104 -11 155 -11h15q17 0 18 -15t-9 -45t-11 -38q-25 -24 -81.5 -38t-104.5 -18t-120 -7q-18 -1 -34 -1q-98 0 -150 21q-3 1 0.5 5t-2.5 14q-8 10 -15.5 23.5t-12 21t-7.5 8.5q-6 -7 10.5 -35t14.5 -31q-10 2 -18.5 9.5t-12 12 t-10.5 19.5t-8 17q-4 42 -5 88q0 23 -0.5 53.5t0.5 69.5q1 77 1 92q0 82 -3 168q0 590 -12 661q-8 61 -35 74z" />
<glyph unicode="F" horiz-adv-x="696" d="M31 1307q22 16 24 20q35 8 66 8q42 0 78 -14q175 27 315 27q78 -2 168 -50q0 -17 12 -22q0 -3 -4.5 -7.5t-5.5 -8.5q7 -14 3.5 -25t-3.5 -22.5t12 -16.5q-11 -6 -16 -4q-5 -21 -18.5 -31t-28 -12.5t-38.5 -3.5h-3h-3h-3q-16 -1 -38 -1q-30 0 -71 2q-26 1 -47 1 q-36 0 -55 -4q-1 -25 -1 -64q0 -47 2 -115q1 -56 1 -98q0 -50 -2 -78q-1 -11 -5 -52.5t-3 -50.5t2 -58q14 1 32 1q27 0 61 -2q49 -3 90 -3q7 1 13 1q46 0 82 11q-4 -6 -6 -20t-4 -34t-2 -22q-1 -4 -5.5 -21.5t-6.5 -23.5q-8 -18 -60 -47q-27 -10 -87 -10q-2 1 -6 1h-12 q-57 0 -89 -5q-5 -2 -5 -73v-16q0 -86 1 -102q-1 -18 -3 -58q-2 -28 -1 -49v-17q1 -26 8 -46q-8 -13 -15.5 -44t-11.5 -40q-14 0 -20 -2q-3 -2 -5.5 1t-6 8.5t-5.5 7.5q-10 -12 -29 -3q-6 -4 -26 -34q-9 -2 -37 1t-33 -5q-7 0 -10 6.5t-6 7.5q-14 -4 -51.5 0t-46.5 4 q16 47 18 51q-10 31 -14 37q-1 5 2 9t2 9q-13 34 -15 76q-1 13 -1 28q0 32 4 76q4 62 4 93q2 120 2 197.5t-2 113.5q-3 34 -3 64q1 6 -1 6l-5 2q1 34 1 74q0 164 -23 415q11 27 -4 56z" />
<glyph unicode="G" horiz-adv-x="704" d="M27 598q-2 37 -2 73q0 123 26 232q36 145 112.5 264.5t182.5 188.5q31 -13 85 -41t73 -37q0 17 -6 41q8 2 11.5 6.5t3 9t-2.5 14t-2 15.5q29 18 69 18h8q45 -2 64 -24q13 -14 27.5 -52.5t15.5 -66.5v-16q0 -80 -33 -242q-15 -12 -41 -54.5t-55 -52.5q-3 -3 -16 -18.5 t-21 -21.5q-3 21 -11 69.5t-12 76t-7 69.5q-1 23 -1 45q0 18 1 34q-15 6 -47 -31t-56 -85q-37 -67 -59 -160q-22 -85 -32 -168q-5 -46 -5 -93q0 -40 4 -81q8 -89 37 -158q29 -61 76 -119q35 -43 59 -43q9 0 16 5q21 15 35.5 37t24 57t13.5 54t9.5 65.5t6.5 52.5h-33.5 t-55.5 3.5t-57 12.5q-9 21 -37 74q8 0 14.5 6.5t8.5 7.5q7 1 31 5t32 5.5t28.5 4t29.5 3t27 2t29 0t26.5 -3t29 -4.5t27.5 -8q1 -9 1 -17q0 -26 -11 -48q-2 -8 -1 -17t-2.5 -16.5t-13.5 -7.5q0 -41 -2 -57q-9 -74 -15.5 -113.5t-21.5 -91t-37 -86.5q-4 -6 -10 -21.5 t-10 -21.5q-32 -48 -113 -74q-39 -12 -76 -12q-38 0 -73 14q-43 21 -100 86q-30 33 -52 72q-51 84 -78 166q-21 68 -27.5 127.5t-8.5 146.5z" />
<glyph unicode="H" horiz-adv-x="937" d="M8 1300q13 4 26.5 17.5t22.5 15.5q29 7 57 7q60 0 119 -31q52 -25 80 -56t43 -82q25 -93 26 -205q0 -12 -1 -24q-1 -62 -6.5 -200.5t-5.5 -206.5q102 0 209 -7q1 31 1 114q-1 42 -1 96v24q0 143 6 190q12 152 12 154v19q0 26 -2 64q-2 54 -2 75q2 12 2 22q0 24 -10 41 q3 4 11.5 6.5t11 4t-0.5 10.5q96 -9 119 -19q13 -7 51 -35q43 -27 68.5 -58t36.5 -83q12 -57 11 -128q0 -57 -7 -124q-12 -96 -12 -204q0 -23 1 -46q-1 -12 -3 -32.5t-3 -36.5t0 -31v-42.5v-59v-59v-42.5v-48.5t2.5 -63t8.5 -72.5q2 -9 6.5 -28.5t6.5 -31.5t4.5 -30t0.5 -30 t-6 -24t-14.5 -19.5t-26.5 -10.5q-4 0 -14 1t-15 1q-7 0 -18 -1l-16.5 -1.5t-13 2t-13.5 8.5q-22 -7 -32.5 -9.5t-27 -1t-28.5 12.5q-4 -1 -5 -8t-5 -8q-8 4 -21.5 7.5t-15.5 4.5q-22 39 -25 57q-20 191 -20 330q-24 1 -67 -5q-36 -5 -65 -5h-10q-8 0 -34.5 1t-38.5 1 q8 -157 8 -215v-12q-1 -6 -1 -32t-3 -38q-10 -55 -77 -55h-7q-5 -7 -17 -18t-16 -17q-13 4 -66.5 6t-70.5 18q-3 4 -14.5 13t-12.5 12q-10 12 -16 70q-4 27 -4 77.5v63.5q-8 135 -8 294q0 48 1 97q1 58 5 130t6 117q2 38 3 81q-1 9 -1 18q0 54 -6 98q-15 156 -56 158 q3 5 8.5 8.5t15 6t13.5 4.5q-2 2 -21 11.5t-20 26.5z" />
<glyph unicode="I" horiz-adv-x="407" d="M51 1286q0 6 6 2q2 -1 3.5 -1.5t3 -0.5t2.5 2q2 7 -6 25.5t-1 25.5q9 -2 30 -8t34 -6q0 5 -19 23q-9 8 -2 8q36 -2 70.5 -17t52.5 -41q11 -1 19 -6t16 -12.5t14 -11.5q4 -4 15 -12.5t14 -12.5q16 -22 27.5 -72.5t15.5 -91.5q3 -20 3 -61q-1 -20 -1 -46q-1 -43 -1 -72 q0 -23 1 -36q0 -158 -10 -270q-1 -10 -5 -48t-5 -51.5t-3.5 -45t-2.5 -50t1 -45t3 -51.5q2 -23 8 -70q4 -47 8 -81q3 -26 4 -57q0 -9 -1 -18q-1 -42 -9 -71l-6 -12q-6 -12 -13 -14q-8 1 -51 28q-26 0 -39 8q-10 -2 -27.5 -13t-37.5 -9q-3 0 -2 -7t-2 -7q-4 -7 -20 -3t-21 3 q-11 15 -17 50t-9.5 79t-6.5 61q-24 168 -24 396q0 10 -1 20q0 215 11 362q-3 32 -3 64q0 19 1 39q2 26 2 56.5t-2 64.5q-3 69 -17 114z" />
<glyph unicode="J" horiz-adv-x="772" d="M14 311q0 8 6 21.5t7 17.5v29q7 68 55 94q21 -12 83.5 -32t88.5 -40q37 -32 43 -53q1 -20 1.5 -23t-4.5 -29t-5 -28q-2 -21 -2 -41q0 -39 7 -73q12 -52 32 -52q26 0 41 39.5t30 110.5q3 13 4 20q14 72 16 154q1 21 1 42q0 55 -4 100q-6 61 -13 140t-8 130v22q0 29 1 66 q3 50 6 82.5t10.5 100.5t9.5 87q-37 0 -92.5 3t-75.5 3q-103 0 -120 4q-28 6 -11 23q2 2 -1 5t-7 9.5t-2 16.5q2 8 -8.5 10.5t-31 2.5t-28.5 1q-1 31 18.5 45.5t50 14.5t66.5 -1q104 0 344 10h15q85 0 149 -53q2 -23 24.5 -46t26.5 -38q1 -4 1 -10q0 -22 -11 -76 q-16 -87 -16 -229q0 -12 3.5 -107.5t4.5 -182.5v-11q0 -83 -13 -186q-15 -110 -47 -177q-33 -62 -102 -131q-12 -11 -34 -34.5t-33.5 -33t-37 -21t-59.5 -17.5q-8 -1 -22.5 -6.5t-22.5 -6.5q-13 -3 -32 -3q-17 0 -40 2q-46 5 -75 18l-27 18q-58 36 -98.5 89.5t-55.5 115.5 q-6 29 -6 94z" />
<glyph unicode="K" horiz-adv-x="845" d="M47 1280q0 4 4 5t10 0.5t9 0.5q2 36 46 50q24 8 50 8q21 0 44 -6q50 -12 66 -38q29 5 48 -14v-18q16 -44 25.5 -96t11 -126t1.5 -110q0 -4 1 -8q-1 -38 -5 -124q-4 -96 -4 -108q44 16 99 107q67 113 104 220t47 241q10 30 10 51q0 9 -2 16q5 -2 7.5 0.5t3 5.5t0.5 9v2 q3 4 8 2.5t9 1t3 12.5q2 0 9 -2q14 -5 14 -1q1 1 0 3q-2 0 -1 1t3 1q13 -1 33.5 -10t25.5 -10q26 -26 102 -115q8 -30 5 -62q0 -13 2 -39t2 -40q-2 -27 -16 -81t-17 -69q-4 -21 -10.5 -43.5t-18 -52.5t-14.5 -39q-29 -73 -90 -182q-32 -56 -87 -126.5t-77 -86.5q5 -6 82 -93 q89 -96 112 -115q24 -19 43 -22q12 -2 24 0t22.5 3.5t18.5 2.5t12.5 -4t4.5 -16v-10q0 -59 -55 -144q-6 -3 -15.5 -8.5t-16.5 -8.5t-16 -6t-19.5 -2.5t-22.5 5.5q-25 11 -90 69q-29 24 -81 75t-79 75q-14 13 -38 36.5t-42 39.5q-1 -9 -1 -25q0 -26 3 -72q0 -5 4 -46.5 t4 -57.5q-1 -5 -6 -23t-4 -28q-7 -4 -13.5 -15t-15 -19t-24.5 -7q-3 -10 -11 -6.5t-17 9.5t-21 -3q-15 -6 -35 -4t-27 12q-22 -8 -42.5 -4.5t-30.5 18.5q-8 8 -16.5 36.5t-18.5 35.5q-9 57 -13.5 130.5t-4.5 121.5q0 16 -1 38q0 42 1 104q1 93 1 126q0 20 0.5 51.5 t-0.5 73.5t-1 73.5t1 51.5q-1 22 -1 66.5t-1 64.5q-1 8 -1 19q0 28 4 78q3 43 3 74q0 18 -1 32q-2 15 -10 43.5t-9 44.5z" />
<glyph unicode="L" horiz-adv-x="638" d="M27 1319q63 20 139 20q21 0 43 -2q19 -1 37.5 -9t28.5 -16t27.5 -23.5t23.5 -20.5q32 -84 45 -209q3 -24 3 -64q0 -13 1 -30q0 -33 -1 -79q-1 -69 -1 -98q0 -48 -3.5 -133.5t-4.5 -119.5q-2 -31 -2 -95q0 -42 1 -98v-66q0 -90 -4 -131q72 -5 117 -5q19 0 33 1q45 0 63 4 q2 1 9 5.5t13 7t11 2.5q8 -2 20 -20t21 -19q-2 -9 -1 -10.5t5.5 -4t5.5 -6.5q-9 -25 11 -45q-4 -8 -18 -17t-17 -13q-10 -6 -21 -10t-24 -6.5t-22.5 -4t-26.5 -2t-24.5 -0.5h-28h-27.5q-54 -3 -100.5 -3t-84.5 3q-13 0 -38 0.5t-37.5 0.5t-31.5 -1.5t-36 -5.5 q-7 6 -33.5 8.5t-34.5 7.5q2 2 11 2q-1 3 -8.5 5.5t-8.5 5.5q-1 4 3 5q6 0 8 -3q-3 5 -12 8.5t-9 11.5q-1 4 0 5t4 0.5t4 0.5q-12 1 -15 17t1 28q11 -3 25 0q-3 6 -19 14t-14 17q0 4 6.5 4.5t13.5 -0.5t13 0q4 304 4 655q-1 22 -1 69t-1 69q-1 20 -1 61t-1 71.5t-5 57.5 q-3 22 -4.5 72.5t-7 82.5t-22.5 48z" />
<glyph unicode="M" horiz-adv-x="1095" d="M12 -16q-2 20 6 57t9 45q10 126 18 186q8 65 11.5 181t6.5 153q3 59 3 236q0 19 6 160q4 85 4 145q0 40 -2 70q-15 9 -28 39t-21 38q4 5 32 11q40 37 123 45q5 -1 16.5 -4t16.5 -3t14 3q2 -1 4 -7t5 -6q6 0 16 1t18 1t15 -2q2 0 3.5 -1t2.5 -3t1.5 -4t1.5 -5t1 -5 q20 6 35 0q2 -2 4 -14t8 -13q2 -14 16 -58q12 -38 12 -57q0 -3 -1 -6q13 -20 21 -44t15.5 -62t10.5 -51q9 -28 23.5 -83t23.5 -83q7 -23 28.5 -100.5t38 -125.5t37.5 -90q82 358 144 559q3 9 11 29t11.5 35t1.5 31q-2 37 -20 131q3 2 15.5 10.5t22.5 12t23 3.5q3 2 13 11.5 t14 12.5t13.5 7.5t19.5 4t22 -4.5q6 -1 17.5 -11t17.5 -13q7 -2 16.5 -4.5t16 -4t10.5 -4.5q4 -2 10 -9t10 -9q6 -2 20 -3t21 -7q0 -15 13.5 -31.5t15.5 -20.5q1 -5 1 -15q0 -27 -11 -77q-2 -18 -2 -65l-1 -91q0 -19 4 -89q4 -78 5 -95v-30q0 -95 10 -252q11 -152 25 -244 q2 -11 10.5 -46t9.5 -54q2 -23 -3.5 -62t-6.5 -49q-9 -10 -37 -57q-13 -7 -52.5 -18t-55.5 -27q-16 3 -29.5 -8t-22.5 -9q-27 45 -36 88q-3 9 -13 46t-14 53t-10 45.5t-9 56.5q-24 228 -32 342q-1 16 -8.5 61.5t-8.5 73.5q-9 -34 -30 -111.5t-37 -135t-33 -109.5 q2 -9 14.5 -30t10.5 -34q0 -13 -60 -53q-38 -33 -43 -59q-30 -15 -70 -15h-19q-52 4 -62 29q-4 8 -11 24q-101 209 -138 329l-7 22q-2 -17 -7 -53t-7 -56q-12 -110 -23 -272q-8 -123 -24 -178q-3 -6 -6.5 -6t-7 3t-5.5 1t-2 -13q0 -16 -16.5 -20.5t-43 -4.5t-34.5 -3 q-11 4 -34 0.5t-32 -2.5z" />
<glyph unicode="N" horiz-adv-x="759" d="M18 1284q-4 3 2 6l14 7t7 10q-2 5 1 6.5t10.5 1t15.5 -0.5t17.5 3.5t14.5 11.5q15 14 48.5 11.5t64.5 -19.5q29 -16 61 -78q22 -42 43 -104q82 -224 138 -385q64 -184 116 -303q1 49 4 188.5t3 237.5v80.5v85t1 74.5t3 77t6 63.5t10 61.5q2 6 8 9t12.5 3h12.5t9.5 1 t2.5 5q7 7 11 3t13 -12t17 -7q12 -20 19.5 -42.5t10 -54.5t2.5 -49.5t-1.5 -62.5t-1.5 -59q-2 -37 -3 -113t-3 -111q-9 -175 -9 -262q0 -54 -4 -144t-4 -147q0 -14 -5.5 -49t-2.5 -49q1 -7 11.5 -31t8.5 -38q-6 -9 -13 -30t-13 -30q-3 -4 -11 -9t-13 -10.5t-5 -13.5 q-18 0 -18 -12q-41 -18 -76 -18q-45 0 -80 30q-51 45 -94 142q-27 54 -57 135.5t-47 133.5t-50 161t-39 129v-11q0 -46 5 -256q4 -183 5 -255q0 -24 -1 -35q-1 -5 -5.5 -19.5t-5.5 -21.5t-2 -24t-1.5 -23.5t-2.5 -19t-5.5 -19t-10 -13.5t-15.5 -12q-17 -11 -52 -14.5 t-42 -5.5q13 94 15 200q1 32 1 69q1 81 -3 181q-4 144 -5 209q0 26 -0.5 97.5t-0.5 106.5t2.5 88t7.5 95q0 1 4.5 21t4 21t-0.5 20q0 24 -21 97t-39 91z" />
<glyph unicode="O" horiz-adv-x="860" d="M25 639q3 91 18 192q15 123 82 279q8 19 31.5 51.5t29.5 42.5q41 64 72 82q1 3 2 10.5t2 10.5q13 10 34 7.5t33 -7t32.5 -13.5t31.5 -12q12 -5 33 -12t36.5 -13t26.5 -14q7 -18 34 -30t34 -19q1 -4 5 -12t4 -10.5t-3 -12.5q3 -10 14 -21t15 -18q-4 -9 -11.5 -17.5 t-14 -13.5t-19 -14.5t-17.5 -13.5q-12 -11 -23.5 -24t-24.5 -32t-20 -29.5t-23 -36.5t-21 -34q-48 -88 -68 -193q-13 -72 -12 -165q0 -43 2 -90q8 -121 61 -205q41 -67 93 -70q22 -1 36.5 6t27.5 20.5t20 18.5q84 113 110 275q19 123 19 234q0 158 -39 292q-46 164 -88 225 l-35 52q-3 4 -13.5 16.5t-16 21t-5.5 13.5q-1 11 7 16.5t16 6.5t20 1q3 3 -2.5 10t-3.5 9q26 9 55 -17.5t49 -58.5q2 -3 10 -18.5t13 -22.5q4 -6 14 -17.5t14 -17.5q31 -54 54 -117q73 -202 78 -428v-28q0 -148 -29 -297q-25 -132 -90 -244q-4 -7 -10.5 -15t-15.5 -16.5 t-13 -13.5q-14 -16 -36 -40t-36 -40q-28 -5 -49.5 -19t-75.5 -14q-93 8 -114 23q-7 4 2 8q-8 8 -25.5 20t-24.5 19q-4 -3 2.5 -9.5t4.5 -8.5t-8.5 0.5t-8.5 1.5q-2 -2 3.5 -6.5t12 -10t5.5 -8.5q-7 1 -17.5 7.5t-23.5 16t-15 11.5q-8 6 -7 3q0 -1 2 -4q3 -5 1 -5 q-2 -3 -18.5 10t-18.5 10q2 -11 28.5 -26.5t29.5 -18.5q-17 0 -41 12q-95 67 -150 160q-17 23 -13 23q1 0 6 -3q11 -5 11 -1q-77 161 -77 404v36zM244 100q-5 -2 1 -8.5t19 -16.5t17 -14q-12 3 -11 -1q0 -4 9 -9q11 -7 21 -1q5 3 -3 7q-41 36 -53 43z" />
<glyph unicode="P" horiz-adv-x="811" d="M14 1241q1 4 8 6.5t9 5.5q-2 3 -6 10t-7 9q1 4 6.5 7.5t6.5 4.5q0 1 -5 2.5t-3 7.5q2 2 22 2q3 3 -2 7.5t-2 7.5q15 3 20 10q4 1 14 1t15.5 1.5t7.5 5.5h15q51 -1 144 5q61 4 113 4q40 0 74 -2q80 -5 148 -31q44 -18 92 -60q49 -36 74 -96q24 -59 31 -125q4 -36 4 -68 q0 -26 -3 -50q-6 -52 -20 -97q-93 -309 -412 -354q-2 -54 -2 -97v-41q2 -57 6 -157t5 -135q0 -5 -2.5 -6.5t-6 -0.5t-7.5 2.5t-7.5 2.5t-5.5 0q-5 -3 -15.5 -18t-21.5 -17l-14 2q-7 3 -27.5 -1.5t-32.5 -0.5l-30 12q-7 0 -27 4q-2 -8 -13.5 -9.5t-23.5 0t-20 -2.5 q-8 2 -11.5 9.5t-4 14.5t-4 10.5t-11.5 0.5q-13 -6 -15.5 -1t0.5 15.5t-1 17.5q-9 27 -9 101.5t4 128.5q2 44 2.5 112.5t-2.5 159.5q-2 59 -2 131q0 205 17 512q-8 0 -22.5 4.5t-24.5 1.5q0 5 8 7t10 6q-4 4 -12 3.5t-12 0.5q2 3 12 4.5t12 3.5q-8 6 -33 6zM362 604 q71 39 117.5 130.5t57.5 203.5q5 46 5 82q0 74 -22 108q-19 30 -61.5 46t-87.5 16q-2 -12 0 -58q1 -23 1 -40t-1 -29q-9 -220 -9 -459z" />
<glyph unicode="Q" horiz-adv-x="880" d="M27 479q-1 17 -1 48t1 77q3 90 10 146q24 170 96 317q55 113 147.5 208t155.5 99h5q40 0 115 -47q80 -50 122 -113q-2 -8 -4 -37.5t-12 -39.5q-22 -3 -35 -19q-115 -40 -183 -135q-109 -146 -133 -395q-5 -49 -5 -96q0 -80 14 -156q24 -123 88 -160q19 274 53 414 q12 15 25.5 17t23.5 -3t27 -16.5t26 -16.5q7 -3 21 -7t18 -5l19 -18q4 -5 10.5 -12t10.5 -12t5 -9q1 -5 1 -15q0 -36 -8 -139q-11 -132 -11 -147q46 54 79 167q33 109 33 210v6q-4 264 -104 430q0 5 2 10t5.5 10t4.5 7q53 0 86 -33q19 -27 45 -77t37 -81q20 -48 31 -144 q9 -75 9 -131q0 -16 -1 -30q-6 -112 -32 -209.5t-62 -163t-71.5 -108t-69.5 -62.5q-13 -65 -13 -144q0 -28 2 -57q-14 -1 -31 4.5t-26 14.5q-3 -6 -17 -6t-20 -2q-6 -3 -11.5 -8t-12.5 -14.5t-9 -12.5q-7 -5 -26 -1.5t-29 1.5q-1 1 -2.5 7.5t-7.5 6.5q3 7 0 14.5t-9 16.5 t-8 14q-11 36 -11 101q0 18 1 39q-1 -1 -9.5 0.5t-16 1t-7.5 -6.5q-2 -5 -7 -5.5t-9.5 2t-12 6t-12.5 4.5q-141 45 -233 237q-42 87 -57 258z" />
<glyph unicode="R" horiz-adv-x="813" d="M25 1319q5 1 9 -0.5t6 -3.5l1 -2q3 0 4.5 5.5t3.5 6.5q10 2 62 6q103 12 200 12q141 0 203 -18q9 -2 27.5 -4t29 -6.5t17.5 -16.5q95 -35 150.5 -92t62.5 -157q1 -10 1 -21q0 -44 -14 -92q-18 -58 -37.5 -94.5t-52.5 -87.5q-6 -9 -4 -10q1 -1 8 2q8 4 9 2t-6 -11 q-14 -26 -31 -50t-40 -53.5t-32 -41.5q-21 -27 -56.5 -67.5t-51.5 -61.5q15 -29 44 -69t68.5 -89t50.5 -63l1 -1q1 -1 3.5 -4t4.5 -5.5t5 -6l6 -7t5.5 -7t4 -6.5l2.5 -5t1 -3q-2 -5 -8 0t-8 4q-1 -13 16.5 -29.5t20.5 -21.5q0 9 -9 22.5t-8 15.5q5 4 15 -5q3 -2 4 -3 q59 -51 71 -51q4 0 13 3t14 1q7 -16 -20 -39q-4 -2 -2 -3t5 -2t1 -3q-3 -9 -16 -21.5t-17 -19.5q-3 -3 -6 -8.5t-6.5 -9t-8.5 -7.5q-3 -2 -8 -8.5t-6 -7.5q-27 -21 -63.5 -21t-67.5 21q-4 3 -9.5 8t-12 12.5t-9.5 10.5q-15 13 -107 134.5t-108 147.5q0 -10 2 -59 q3 -50 4 -82q0 -16 0.5 -34t-0.5 -38q-1 -40 -4 -57q-8 -15 -41 -35q-7 -4 -11 -6t-6.5 -2.5t-9 -2t-14.5 -3.5q-5 -2 -18 -7.5t-18 -6.5t-14.5 -2t-16.5 2.5t-15 11.5q-3 1 -8.5 -4.5t-9.5 -1.5q-5 0 -12.5 6t-12.5 6q-7 1 -17.5 -3.5t-12.5 -4.5q-11 0 -28 6t-21 12 q-9 13 -13 35q-2 46 -2 63t4.5 70.5t5.5 69.5q2 33 2 109q0 95 -3 255.5t-3 247.5q0 69 2 90q2 25 8 66.5t9.5 67.5t5.5 65.5t-4 58.5q-5 5 -16 3t-29 4q0 4 2 7t3 4t6.5 3t6.5 2q-1 2 -20 11q-11 5 -4 9q7 8 -1 30t-1 36zM358 602q125 145 168 354q5 25 5 53q0 21 -3 44 q-7 52 -24 82q-39 55 -135 55q-5 -4 -4.5 -60.5t0.5 -64.5q-7 -317 -7 -463zM553 344q0 -6 46.5 -60.5t53.5 -54.5q0 5 -47 60t-53 55zM627 215q-2 -2 4 -12t16.5 -21t18.5 -16q-3 8 -8 16t-8.5 11.5t-12 11.5t-10.5 10zM657 221q0 -4 9 -14q4 -4 4 0q0 5 -5 11t-8 3z M670 160q-2 -3 1 -7.5t7.5 -7.5t5.5 -2q3 3 -4 11t-10 6zM690 137q3 -8 11.5 -19t17 -18t10.5 -4q-16 32 -39 41zM719 147q7 -12 26 -30.5t23 -14.5q-4 10 -24 27.5t-25 17.5z" />
<glyph unicode="S" horiz-adv-x="700" d="M37 434q2 18 29.5 27.5t29.5 25.5q57 -2 93 -16t61 -51q12 -28 26 -49q12 -33 16 -78t4 -75.5t15 -60t49 -44.5q46 13 60 55q8 22 8 48q0 22 -6 46q-12 52 -33 99.5t-45 84.5q-15 25 -66.5 99t-80.5 110q-3 5 -28.5 38t-39 52t-32.5 53t-29 64q-23 74 -23 139q0 34 6 65 q18 92 80 171q8 12 38.5 37.5t35.5 30.5q9 7 39 18q7 9 16 31q4 11 33 0t73 -34.5t60 -29.5q15 -7 23 -41q21 19 19.5 58.5t16.5 56.5q15 3 28 3q91 0 116 -120q5 -28 7.5 -62.5t4 -75t1.5 -58.5q1 -5 4 -22.5t3.5 -25.5t0.5 -20.5t-3 -21.5q-3 -5 -9 -14t-10 -17t-5 -17 q-7 9 -18 0.5t-11 -18.5l-4 3q-3 3 -8 3q-2 -3 -3 -13.5t-4 -13.5q-4 -1 -6 2t-3.5 7.5t-2.5 5.5q-2 -3 -20 -12q-1 0 -10 -7t-15 -6q-13 0 -23 19.5t-12 40.5q-13 18 -20 43.5t-8.5 43.5t-2 52t-1.5 47q-27 -15 -49.5 -40.5t-28.5 -51.5q-5 -18 -5 -37q0 -56 44 -125 q6 -10 56 -85.5t78.5 -121t61.5 -106.5t41 -94q11 -41 15 -79q3 -29 4 -53v-15q-2 -30 -8.5 -58t-14 -46.5t-18.5 -37.5t-18 -28t-16 -20l-9 -10q-12 -29 -19 -34l-14 -7q-7 -5 -26.5 -22.5t-32.5 -24.5q-4 -1 -19 -6.5t-19 -7t-17.5 -6t-19 -5.5t-17.5 -4t-18.5 -3.5 t-17.5 -2t-19.5 -1t-19 1t-20.5 2.5q-83 15 -125 43q-48 39 -91.5 127.5t-47.5 185.5q-5 41 -5 72q0 13 1 24z" />
<glyph unicode="T" horiz-adv-x="653" d="M4 1298q1 2 9 4t7 9q10 -5 13 -8q42 15 144.5 21t193 8t94.5 3q87 0 162 -10q0 -1 -5 -6t-4 -12q2 -3 3.5 -2.5t5.5 2t6 0.5q1 -5 -2.5 -15t0.5 -12q3 -2 7 -1.5t9 -6.5q2 -9 -6 -17q1 -4 4.5 -3t5.5 3q4 -3 1.5 -10.5t-5 -12t5.5 -5.5q-2 -3 -4 -7.5t-3 -6.5t-4 -4 t-7 -1q-11 -22 -41.5 -34.5t-54.5 -15t-70 -5.5q0 -7 -1 -29.5t-1 -36.5q0 -33 -5 -363t-5 -355q0 -15 6 -119q4 -63 4 -101q0 -26 -2 -40q0 -1 -3.5 -9.5t-4.5 -13.5q-1 -13 -2 -20t-5.5 -13t-6.5 -8t-13 -8.5t-18 -11.5q-2 -2 -10 -8t-14 -10t-15 -7.5t-17 -3.5t-14.5 3 t-13.5 8t-11 7q-18 -9 -24 -24q-21 9 -47 -8q-12 8 -27 32t-24 31q-3 11 4 18q-12 47 -12 191q0 45 1 100q2 36 3.5 111t3.5 113q2 67 2.5 189.5t1.5 160.5q2 55 2 98q0 96 -8 139q-17 1 -50 2.5t-51.5 3t-41.5 8.5t-40 19q-2 7 -1.5 17.5t3.5 13.5q-13 17 -13 39q0 14 5 30 z" />
<glyph unicode="U" d="M14 1239q9 0 13 8q-4 5 0 13t-4 10q0 4 7 6t9 6q-3 11 4 20t19 18.5t16 16.5q2 1 3 -1.5t3 -2.5q2 1 4 7.5t2 7.5q11 -3 16 -2.5t16 4t17 4.5q20 -10 33 -4q11 -6 23.5 -9t31 -5t23.5 -3q22 -7 54.5 -28.5t43.5 -26.5q9 -13 11.5 -35.5t0.5 -37t-6 -42.5q0 -5 11 -12 q-10 -20 -12 -43t1.5 -60t3.5 -57q2 -37 2 -131q0 -72 -1 -174q-1 -45 -1 -84q0 -172 11 -246q4 -42 41 -110q4 -3 12.5 -9t13 -9t13 -6t18.5 -3q62 0 97.5 43.5t60.5 124.5q10 32 20 170v29q-1 68 -3 262q-4 249 -3 282q0 134 14 187q6 4 17.5 7t18.5 6.5t7 10.5q7 3 11 -4 l2 -2q5 18 23 15t24 -21q4 -1 5 -0.5t1.5 3t0.5 4.5t1 3.5t4 1.5q4 -9 8.5 -23t7.5 -20q1 -1 8.5 -9t8.5 -13q4 -10 4 -39q1 -20 5.5 -80t4.5 -94q0 -32 1 -118v-155q0 -23 1 -46q0 -48 -1 -102q-1 -80 -4 -137.5t-9 -82.5q-12 -59 -25 -96q-12 -47 -28 -80q-5 -15 -33 -58 q-4 -6 -11.5 -19t-10 -18t-8.5 -14t-11 -14.5t-12.5 -13t-16.5 -15.5q-38 -34 -57 -47q-26 -21 -77.5 -38.5t-98.5 -22.5q-12 -2 -43 -2q-26 0 -63.5 8t-51.5 18q-76 53 -102 86q-6 8 -17 31t-18 33q-17 28 -39 96q-1 3 -9.5 29t-9.5 41q-9 84 -9 184q0 11 -1 22q0 92 4 206 q4 128 4 192q0 129 -14 227q-6 24 -6 25q-3 32 -25 57zM354 23q3 -9 18.5 -10t18.5 5q-6 -1 -18.5 2t-18.5 3zM406 20q2 -2 6 -3q3 -1 2 -7q74 10 82 31q-14 -6 -46 -11t-44 -10zM508 37q41 4 86.5 39t60.5 65q-29 -25 -63 -48.5t-57 -37.5t-27 -18z" />
<glyph unicode="V" horiz-adv-x="745" d="M0 1221q0 61 37 88q10 2 30.5 13.5t36.5 12.5q11 2 24 2q29 0 71 -8q6 0 15 1t16 1t12 -2q3 0 9.5 -2.5t10.5 -1.5q20 -5 30 -8t25 -10t24 -17t13 -24q-1 -9 -1 -23q1 -73 27 -281q32 -248 54 -341q1 -6 10 -53t16.5 -81t12.5 -47q15 58 50.5 243.5t47.5 266.5 q12 86 13 92q9 57 16.5 93.5t14 61t6.5 26.5q2 11 5 41.5t7 40.5q3 9 17 18.5t18 15.5q19 -2 29.5 -9t17.5 -27q3 2 9 10.5t11 9.5q9 -3 -2 -38q-11 -32 2 -32h4q5 0 5.5 -10.5t-2.5 -27t-7.5 -33.5t-9.5 -33q-2 -10 0 -9q1 0 7 9q13 20 13 6q0 -17 -21.5 -131.5 t-23.5 -132.5q-9 -57 -26 -113q-8 -39 -20.5 -116.5t-20.5 -116.5q-2 -9 -11.5 -51t-13.5 -66q-27 -175 -35 -238q-2 -13 -5.5 -48t-7 -53.5t-14 -41t-26.5 -33.5q-12 -7 -32.5 -9.5t-26.5 -4.5q-5 -1 -14 -6t-13 -6q-12 -3 -26 -3q-18 1 -40 5q-40 8 -59 22 q-22 17 -40 44.5t-31.5 67t-22 71t-20 81t-17.5 72.5q-1 27 -15.5 74.5t-17.5 66.5q-6 30 -44.5 216.5t-69.5 342.5t-31 173z" />
<glyph unicode="W" horiz-adv-x="1286" d="M0 1243q0 3 10.5 11.5t11 12t-19.5 7.5q8 20 39 41q33 14 65 22q7 1 17 1q19 0 48 -4q44 -6 62 -5q22 -7 42.5 -28.5t31.5 -38.5t31 -52q0 -10 7.5 -26t8.5 -21q79 -275 162 -764q3 12 21 68.5t22 73.5q10 32 31 114q34 130 35 133q-4 40 -21 136q-15 133 -26 170 q8 31 0 39q1 34 22.5 53.5t47 25.5t66.5 12q7 1 11 1q9 -4 38 -12.5t44 -18.5q32 -28 57 -41q-4 -7 3 -23t7 -20q-1 -12 -1 -25q1 -27 5 -53q6 -40 22.5 -107t25.5 -116q5 -31 23 -104.5t22 -114.5q5 -47 26 -105q10 26 17 60t14.5 80.5t11.5 68.5q8 47 27 170 q3 17 11.5 67.5t17.5 96.5q8 36 19 98t20 107.5t14 60.5q7 29 33 39.5t71 12.5q0 -11 14.5 -20.5t16.5 -16.5q6 -15 -2 -52q-5 -71 -29 -190.5t-30 -165.5q-2 -15 -10.5 -43t-10.5 -43q-3 -11 -4 -24.5t-1 -30t-1 -25.5q-17 -59 -20 -76q-7 -29 -45.5 -222.5t-67.5 -284.5 q-10 -34 -14 -35q-1 0 -3 8q-3 11 -6 12q-15 -45 -51 -94q-23 -31 -22 -10q1 29 -5 22q-10 -10 -17 -47q-1 -3 -1 -4q0 -6 -2.5 -9t-7.5 -3t-9 0.5t-10.5 2t-9.5 1.5h-6q-39 0 -74 57q-31 51 -65 217q-5 38 -27 119q-6 25 -14.5 63.5t-15 66t-15.5 52.5 q-12 -45 -32.5 -136.5t-40 -158.5t-44.5 -122q-18 -37 -74.5 -90.5t-66.5 -65.5q-5 0 -10.5 -3.5t-7.5 -4.5q-8 2 -27.5 -3t-26.5 -12q-3 1 -11.5 9t-18.5 2q-4 0 -6 -1t-5 1.5t-5 3.5t-5 5t-4 5.5t-3.5 6t-3.5 6.5t-3 5.5t-2 4.5q-4 8 -14.5 21.5t-14.5 23.5q0 1 -8.5 38 t-20 86t-20.5 78q-6 19 -30.5 135t-28.5 158q-7 30 -20.5 93.5t-20.5 93.5q-8 40 -30.5 132t-40 165t-17.5 90q0 2 -1 15.5t-2.5 25.5t-4.5 26t-7 24.5t-10 14.5z" />
<glyph unicode="X" horiz-adv-x="751" d="M2 1206q-5 8 9 9q2 1 6 1q5 1 8 1q-2 6 -9 11.5t-10 10t0 10.5q5 4 9.5 8t8 9t6 8t6 9.5t5 9t5.5 11t5 11.5q8 13 19 16.5t34.5 0.5t32.5 -3q7 -1 25.5 1.5t27.5 0.5q10 -1 29.5 -8.5t28.5 -9.5q4 -1 15 -4.5t15 -5t12.5 -5t12 -6t9.5 -7t9 -9.5t6.5 -11.5t5.5 -15 t3 -18.5q1 -15 15 -47t18 -51q5 -20 30.5 -91.5t30.5 -87.5q20 41 64 129.5t74.5 150t35.5 75.5q9 3 22.5 20.5t26.5 18.5q2 0 3.5 -1t1.5 -3v-4t-0.5 -5t-0.5 -4q7 1 32 6t40 2q0 -3 5 -22.5t3 -37.5t-14 -40v-6q0 -24 -26 -95q-30 -81 -54 -132v1l-24 -61 q-27 -66 -58 -140.5t-33 -80.5q5 -11 21 -51.5t37 -91t43 -97.5q20 -42 57 -144t53 -163q10 -44 10 -75q0 -48 -24 -66q-17 -10 -25 -21q-25 -11 -59 -15.5t-75.5 -6t-61.5 -4.5q-5 10 -19 10q-29 56 -78 193t-73 188q-19 -35 -71.5 -150t-94.5 -182q-12 -28 -28 -38 t-33.5 -13.5t-26.5 -13.5q-5 3 -8.5 3t-9 -2.5t-7.5 -2.5q-4 4 -13 14.5t-15 15.5l-4 6t-3 5t-2 5l-1.5 4.5t-1 5t-0.5 5t-0.5 7t-0.5 7.5q0 1 -5 17t-3 30q2 9 36 73t36 69q8 18 63 125l109 235q-18 55 -52 133t-38 95q-27 40 -39 94q-20 38 -55 135t-64 143z" />
<glyph unicode="Y" horiz-adv-x="888" d="M1 1294q-2 5 4 10t10.5 7.5t13 6t12.5 5.5q22 11 65 15q18 2 35 2q20 0 37 -3q32 -4 56.5 -9t43 -11t28.5 -10t26.5 -12.5t21.5 -10.5q23 -18 29 -22q10 -15 11.5 -32.5t-0.5 -39.5t-1 -35q3 -29 13.5 -70t25.5 -85t27 -77.5t25 -67.5t14 -36q1 -3 18 -42t29 -56 q12 35 52 129t58 151q5 21 13.5 43.5t21 52.5t17.5 44q9 22 27.5 82.5t33.5 87.5q4 5 7.5 18t9.5 18t20 3q8 -1 18 -10.5t15 -12.5q5 -2 12.5 -4.5t13 -4t10 -4.5t5.5 -7q10 -23 0 -43q-7 -15 -18 -49.5t-17 -49.5q-36 -90 -64 -200q-17 -51 -70.5 -201t-68.5 -184l-14 -27 q-2 -9 -10 -143t-15 -158q5 -53 5 -101q0 -56 -7 -104q-9 1 -23 -10t-18 -12q-3 -1 -26 -5.5t-31 -15.5q-7 8 -24.5 1.5t-22.5 -5.5q-5 -12 -18 -15t-23 9q-23 -11 -45 -11q-15 0 -30 5q-37 13 -46 49q-3 10 -4.5 24.5t-3 34.5t-2.5 33v26q0 37 1 98q3 86 3 114q1 10 3.5 40 t3 47t0 41.5t-5 43.5t-12.5 34q-22 33 -70 124.5t-77 164.5q-26 60 -61 170q-15 46 -21 94q-2 12 -6 53t-11.5 65.5t-23.5 35.5q-3 9 -5 14z" />
<glyph unicode="Z" horiz-adv-x="747" d="M24 86q-1 12 -1 26q0 26 5 52q8 40 16.5 69.5t23.5 67.5q1 4 19.5 45.5t60 146.5t106.5 277q17 40 55.5 128.5t57.5 135.5q2 3 4 12t4 13q3 8 22 41t23 55q-20 2 -92 4t-117 9.5t-72 25.5q-11 1 -21.5 4t-23 7.5t-18.5 6.5q0 9 -11.5 17t-13.5 14q3 1 10 2t9 2 q-4 7 -16.5 14.5t-14.5 8.5q3 2 11.5 2t10.5 2t-3 5t-1 7q6 1 15.5 5.5t17.5 4.5q0 6 -10 6.5t-10 6.5q88 26 279 26q71 0 155 -4q7 0 22.5 2t22.5 2q136 0 170 -55q-6 -2 -2 -14.5t4 -14.5q-1 -10 -5 -32.5t-5 -32.5q-1 -5 -1 -15.5t-1 -15.5q0 -6 -7 -16t-8 -13 q-4 -17 -8 -51t-8 -51q-4 -18 -11 -37.5t-18 -44t-16 -37.5q-9 -24 -24.5 -69t-18.5 -52l-119 -342q-31 -80 -55 -116q-2 -6 -11.5 -30t-13.5 -34t-12 -28.5t-16 -32.5t-17 -27q19 0 58.5 -1t73 -1t61.5 2q38 4 64 24.5t52.5 60t36.5 50.5v-16q0 -25 4 -57q3 -18 -3 -49 t-5 -46q0 -5 1.5 -16.5t1 -19t-4.5 -13.5q-4 -8 -23 -25t-24 -26q0 -1 -6 -13.5t-12 -17.5q-22 -3 -48 -14q-8 2 -28.5 0.5t-22.5 1.5q-36 -10 -110 -10h-13q-65 0 -175 8q-122 10 -167 12q-1 4 -14 8q-15 32 -19 70z" />
<glyph unicode="[" horiz-adv-x="573" d="M96 -74q0 124 15 754q2 74 4.5 341t5.5 382q-1 4 -5.5 14.5t-6.5 19t0 15.5q1 5 6.5 7.5t5.5 8.5q0 4 0.5 11.5t0.5 11t-1.5 7.5t-5.5 7q48 9 72 8.5t72.5 -5.5t74.5 -5q21 0 74.5 5.5t82 7.5t54.5 -5q8 -23 -8 -104q-44 -25 -105 -21q-9 -7 -11.5 -59t-4.5 -192 q-1 -35 -1.5 -152.5t-2.5 -165.5q-4 -125 -3.5 -460t-0.5 -451q14 -2 42.5 -1.5t45.5 -0.5q7 2 6 -10v-1.5v-1.5q10 3 41 3q2 -13 -4 -31t-8 -26t8 -21q-15 -23 -13 -43q-47 5 -102 -3t-94.5 -18.5t-91.5 -15.5t-93 4q1 6 9.5 6t11.5 2q-2 4 -11 6.5t-12 5.5q0 5 -1.5 16 t-1 18t4.5 11q0 1 -1.5 2.5t-2.5 1.5q-10 8 0 9q-17 14 -29.5 58t-15.5 50z" />
<glyph unicode="\" horiz-adv-x="589" d="M2 1395q8 2 16 10q-3 13 1 35t1 35q13 0 21 8q23 -19 35 -19q22 -11 41.5 -27t34.5 -32.5t30.5 -46t26 -52t26 -65t25 -71.5t28 -85.5t31.5 -93.5q8 -23 46.5 -142t54.5 -163q41 -117 71.5 -212.5t48 -157t28.5 -109t14 -72t3 -41.5t-2.5 -22.5l-5 -11t-2.5 -9.5 q-5 -2 -17 7t-19.5 13.5t-12.5 -5.5q1 -21 24 -54.5t30 -56.5q-13 -3 0 -47q-13 -9 -22.5 -5.5t-13 9t-10 16t-14.5 15.5q0 -42 -4 -46.5t-12 -0.5q-9 3 -25 36q-12 22 -18 11q-2 -4 -4 -11q-7 -29 -29 29q-3 7 -8 21q-8 21 -10 26q-50 126 -125 333.5t-88 256.5 q-10 41 -35.5 119t-38.5 127q-9 36 -29 113.5t-35.5 138t-31 127t-22.5 111.5t-3 61z" />
<glyph unicode="]" horiz-adv-x="595" d="M-31 -109q24 11 59 15t84.5 4t71.5 2q-10 74 -11.5 225.5t0.5 327.5t1 237q-1 50 -3 204.5t-5 281t-8 196.5q-7 1 -57 2.5t-81 12.5q-2 7 -15 26t-13 33q0 6 3.5 10t4.5 7q1 4 -0.5 15t4.5 13q10 3 23 0q23 18 47 26t58.5 11.5t45.5 5.5q27 -6 77 -4t75 -4l18 -6 q39 -9 68 -21q30 -10 59 -36q15 -12 39 -39q6 -15 5.5 -34.5t0.5 -31.5q-10 -15 -13.5 -35.5t-3 -56t0.5 -43.5q-2 -43 -4.5 -254t-5.5 -270q-2 -56 -5.5 -279t-5.5 -276q0 -5 -3 -30.5t-3 -39.5q0 -10 2 -31t2.5 -34t-0.5 -32.5t-4 -35.5q-3 0 -4.5 -5.5t-3.5 -6.5 q-4 -4 -6 1t-4 5q-1 -1 -2.5 -6.5t-4.5 -7.5t-8 -1q12 -62 -22 -135q-4 -8 -7.5 -14t-9 -11t-8 -8t-10.5 -5.5t-10.5 -4t-13.5 -3t-14 -2t-17.5 -2t-18.5 -1.5q-143 -9 -280 14q-23 9 -37.5 27.5t-3.5 42.5q-26 22 -23 61z" />
<glyph unicode="^" horiz-adv-x="974" d="M30 756v12.5t1.5 10.5t3.5 5q9 2 13.5 15.5t8.5 13.5q24 4 27 18q0 3 -5.5 3.5t-6.5 3.5q29 89 135 223q11 15 10 3v-3l2 -2q29 30 73 103.5t64 97.5q2 10 -2 14q5 1 13.5 7.5t13.5 -1.5q2 4 6.5 6.5t8 3l10.5 1.5t10 1q3 23 145 33q2 1 2.5 -1t0 -7t-0.5 -6 q30 -20 96 -88t107 -136q3 -5 37 -57t49 -84q5 -14 29.5 -59.5t31.5 -67.5q4 -1 7.5 -9.5t5.5 -10.5q12 -26 -10.5 -38.5t-55.5 -20t-39 -19.5q-3 -14 -13.5 -10t-12.5 2q-6 11 -58 -15q0 -2 0.5 -5.5t1 -6t0 -5t-2 -2.5t-5.5 1q-49 28 -111 119t-111 173t-67 91 q-29 -34 -81 -120t-99 -128q0 -1 0.5 -6.5t-4.5 -7.5q-5 -5 -32.5 -37t-49.5 -50t-43 -22q-4 0 -5 1.5t-1 4t-2 4.5q-8 -3 -39 4t-35 7q1 8 -9 12t-11 8q0 3 -0.5 10t-0.5 13zM289 895q4 4 10 -2q1 3 34 48.5t63.5 88.5t27.5 43q-1 -1 -29.5 -37.5t-61 -79.5t-44.5 -61z" />
<glyph unicode="_" horiz-adv-x="958" d="M-51 -156q-3 20 8 28.5t32.5 13t30.5 10.5q-3 0 -10 1.5t-13.5 1t-12.5 -4.5q0 4 2 8t2 8q14 5 63 14t66 27q75 15 133 6q13 1 96.5 3.5t140.5 8.5l117 6q85 11 94 11q14 1 42 -3.5t38 -5.5q13 -1 37.5 -1h39.5t34.5 -3.5t34.5 -9.5q0 -6 4 -18q14 -1 33.5 -12t31.5 -13 q-3 -13 0 -20q-22 -15 -26 -29q-35 -35 -111 -72q-10 0 -28 -9t-25 -11q-20 -6 -63 -12.5t-56 -8.5q-61 -9 -172 9q-37 6 -122 5.5t-157 6.5q-3 2 -6 10t-4 10q-73 0 -104 13q0 7 8.5 7t9.5 1q-39 12 -143 8q0 9 -13.5 13.5t-31.5 2.5z" />
<glyph unicode="`" horiz-adv-x="1228" d="M-2 1610q-12 63 43 80q18 0 53.5 23t59.5 13q12 -7 40 -42t68 -64q-2 -12 6 -18q137 -132 164 -156q-1 -7 -5 -16.5t-4.5 -12.5t3.5 -8q-4 -3 -7 -2.5t-9.5 2.5t-10.5 2q-3 -6 3 -10t6 -6q-6 1 -8.5 -1.5t-2.5 -4.5v-7q-11 2 -15 -0.5t-1 -13.5q-31 4 -39 8 q-98 42 -160 84q-2 1 -25.5 16t-30.5 20l-28 20t-33.5 26.5t-31 29.5t-35.5 38zM39 1642q3 -6 1.5 -14t0.5 -14q3 -1 5 1.5t5 2.5q-5 6 -1 17.5t3 17.5h-8q0 -8 -6 -11z" />
<glyph unicode="a" horiz-adv-x="747" d="M-16 10q31 19 73 209q46 206 94 501.5t70 403.5q2 8 11.5 36t9.5 42q2 19 1 34t1 31.5t10 28.5q6 11 33.5 30t40.5 20q16 5 42 7t46 -3q7 -3 27.5 -25t25.5 -31q11 -22 47 -106q4 -11 12 -34t13.5 -41.5t9.5 -35.5q5 -21 8.5 -44.5t7 -54t6.5 -48.5q5 -42 50 -365 q2 -15 10 -44t10 -40q22 -135 27 -153q6 -31 23 -92t27 -111q8 -38 8 -71q0 -10 -1 -19q-1 0 -5 -3t-5.5 -4t-4.5 -3.5t-4.5 -4t-3.5 -4t-3 -5t-1 -5.5q-21 -1 -36.5 -12t-18.5 -23q-15 1 -35.5 13t-29.5 14q-3 -1 -1 -6.5t-1 -7.5q-10 6 -56 26q-2 -2 -4 -5.5t-4 -5 t-8 -1.5q-5 3 -7 9.5t-7 10.5q-3 7 -14.5 15t-14.5 12q-8 17 -13 67.5t-8 61.5q-49 1 -143.5 7t-128.5 7q-15 -97 -29 -133q-17 -39 -45 -55q-27 -16 -59 -21t-45 1q-4 2 -3 4t4.5 6.5t2.5 7.5q-1 5 -6.5 6t-5.5 6zM201 328q76 10 192 10q-12 68 -33 191t-36 209t-23 116 q-21 -89 -52 -268.5t-48 -257.5z" />
<glyph unicode="b" horiz-adv-x="800" d="M27.5 1305q-0.5 8 0.5 19t1 15q3 3 4.5 1t9.5 -10t16 -11q18 -11 55 -7.5t62 11t70.5 19.5t81.5 18q57 8 107 9q120 0 200 -48q120 -71 120 -209q0 -22 -3 -45q-4 -35 -26 -85.5t-44 -80.5q-65 -92 -164 -174q24 0 64 -8q90 -22 139 -74q28 -31 44 -83q15 -48 15 -102v-7 q-7 -88 -30 -134q-46 -90 -103 -155.5t-115.5 -99.5t-110.5 -49.5t-104 -16.5q-24 -1 -78 -19q-37 -12 -67 -12q-13 0 -25 2q-2 5 0.5 10t8.5 5q-1 2 -10.5 3t-12.5 3q-1 3 0.5 9t-0.5 11q-4 1 -18 -2q-3 8 -17 26.5t-18 28.5q-1 6 -0.5 20.5t-1.5 18.5q-12 99 -12 113 q-4 141 -4 287q0 212 8 436q2 39 4 125.5t4 126.5q-25 2 -37 22q3 5 8 5q1 3 -3.5 5t-9.5 4.5t-5 6.5q2 2 3.5 2t8 -2.5t10.5 -3.5q-3 5 -9.5 9.5t-10.5 6.5t-4 4t1 2.5t2.5 0.5h3.5t5 -0.5t6 -0.5q0 6 -2 11t-6.5 12.5t-7.5 15.5q-3 7 -3.5 15zM143 18q2 -5 12.5 -4t22.5 7 t12 12q-3 0 -23.5 -7.5t-23.5 -7.5zM332 547q-1 -57 -1 -114q0 -133 5 -265q83 25 147 111q25 36 37.5 56t26 53.5t14.5 62.5v13q0 56 -24.5 80.5t-76.5 24.5h-11q-12 -2 -34 -3.5t-33 -3t-25.5 -5.5t-24.5 -10zM336 862q0 -18 1 -51.5t1 -48.5q39 25 86.5 78.5t79.5 99.5 q26 39 46 96q14 40 14 70q0 13 -3 24q-14 60 -78 66q-33 6 -65 6q-37 0 -74 -8q0 -28 -1 -91t-1 -110q0 -12 -3 -66t-3 -65z" />
<glyph unicode="c" horiz-adv-x="677" d="M40 817q30 223 110 359q37 63 110 118q5 3 21.5 16.5t28.5 18t28 0.5q21 -4 62 -32t46 -31q-1 10 -1 21q0 41 16 79q17 2 35 2q24 0 48 -4q40 -8 58 -29q32 -36 46 -72t20 -94q1 -10 1 -22q0 -38 -12 -100q-4 -32 -26 -78q-3 -6 -6.5 -20t-6.5 -19q-2 -8 -24 -29l-19 -35 q-8 -8 -25 -23t-24 -22q-2 -3 -5 -9.5t-6 -11.5t-7 -9q-9 3 -16.5 12t-10.5 17t-7.5 24t-6.5 22q-20 76 -20 178q0 54 6 115q-50 -6 -72 -98q-53 -198 -54 -444q0 -13 1 -27q0 -78 22.5 -221t63.5 -181q37 14 73 80q66 114 68 201q4 4 6 13t5.5 14.5t11.5 5.5q8 1 12.5 -3.5 t6.5 -13t3 -17t2 -20.5t2 -20q2 -16 11 -48.5t10 -51.5q1 -13 -0.5 -27.5t-3 -25t-6.5 -26.5t-7.5 -23t-9 -24.5t-8.5 -21.5q-24 -48 -47.5 -77t-63.5 -54q-5 -3 -17 -12t-22 -13.5t-22 -5.5q-44 -32 -90 -32h-14q-54 6 -93 43q-142 129 -178 362q-17 106 -17 217 q0 102 14 209z" />
<glyph unicode="d" horiz-adv-x="880" d="M62 208q0 27 2 76.5t2 69.5q0 48 3 144t3 141v24q0 63 -4 163q-5 118 -5 213.5t11 172.5q2 7 -4 23t4 22q16 13 -8 23q4 5 -0.5 21.5t0.5 25.5q9 -3 16.5 -5t14.5 -1.5t11 1t11.5 2.5t11.5 3q36 8 193 12q81 0 163 -20q89 -21 159 -63.5t121.5 -107t73.5 -157.5 q14 -58 14 -125q0 -39 -5 -82q-12 -121 -47 -221q-16 -46 -49.5 -122t-57.5 -107q-87 -120 -231 -223q-63 -47 -107 -68q-5 -3 -23 -11.5t-26 -12.5t-23 -10t-29 -10t-30 -7q-10 -1 -40 -5t-40 -4.5t-43 1.5q-4 14 -16.5 42t-15.5 46q-6 30 -8 70q-2 33 -3 57q1 5 1 9z M378 972q0 -56 5 -102q10 -158 10 -314q0 -171 -12 -341q21 14 49 61q69 108 100 228q30 103 41 198q8 74 8 136q0 219 -98 303q-42 34 -88 34q-6 0 -12 -1q1 -17 -1 -82q-1 -49 -2 -92v-28z" />
<glyph unicode="e" horiz-adv-x="655" d="M37 1319q3 -3 5.5 -2t3 2.5l1.5 4.5t2 5q32 15 74 15h15q52 -3 87 -23q20 2 72.5 8.5t86.5 8.5q34 4 78 4h4q42 0 74 -9q34 -9 58 -26q2 0 5.5 2t6.5 2q5 -12 19.5 -25.5t17.5 -17.5q-2 -3 -0.5 -13.5t-1.5 -19.5q-1 -3 3 -4t3 -4q-13 -17 -22 -21q-1 -5 3 -7t3 -7 q-4 -3 -39 -8q-2 -7 -12.5 -11.5t-12.5 -7.5h-35q-31 1 -76 1q-32 1 -56 0q-32 0 -50 -1v-32q0 -60 5 -147q6 -98 6 -146q0 -7 -1 -13q14 4 48 2t47 -4t45 -7t43 -8q0 -5 -7.5 -4t-9.5 -1q33 -15 52 -31q0 -2 -1 -7.5t-1 -8.5q3 -3 12.5 -8t15 -10.5t6.5 -14.5h-18 q-1 -7 0 -12t2.5 -8t0.5 -5.5t-7 -5.5q-2 -4 2.5 -8t1.5 -6q-13 -6 -38.5 -9t-33.5 -5q-3 -1 -10 -6.5t-12 -6.5q-7 -1 -23 -1q-19 0 -49 2q-21 1 -37 1q-26 0 -35 -4q4 -13 6 -28t2 -34.5t-0.5 -30t-3 -36.5t-2.5 -33q-1 -22 -1 -90q1 -34 1 -79v-20q0 -117 -6 -132h16 q33 0 76.5 3t77.5 3h17q16 0 31.5 2t26.5 5t20.5 6.5t16 6t11 3t6.5 -2.5t2 -10q-3 -36 -10 -69q-4 -8 -10 -11q-3 -12 -10.5 -22.5t-13 -15.5t-19 -14.5t-17.5 -12.5l-6 -2t-4 -2t-2 -6q-24 -7 -114 -21q-24 -4 -69.5 -13.5t-51.5 -10.5q-42 -4 -77 -4t-63 4q-13 2 -12 4 q3 12 35 12q-7 6 -21 10t-27 5.5t-25.5 2.5t-19.5 4t-5 9q10 7 22.5 5t32.5 1q-3 8 -14 8.5t-15 3.5q-7 5 -14 14q-6 8 -20 21.5t-23.5 26t-13.5 24.5q-13 35 -13 93v22v162q1 55 3 161q3 105 4 163v63.5v75.5q-1 81 -5 147q-1 23 -2.5 74.5t-2.5 82t-5 71t-10 69.5z" />
<glyph unicode="f" horiz-adv-x="688" d="M41 121q3 18 15 -3q7 -11 7 -4v5q0 317 7 454q2 34 2 86v27q-1 24 -1 45q0 41 1 68q-4 258 -4 372q-4 90 -21 117q7 0 15 -1t12 -1q-20 26 -23 39q30 -9 47 -6q0 2 -2 2.5t-5 1t-5 2.5q15 -1 31 -1q37 0 81 5q64 7 109.5 14t106.5 8h9q56 0 99 -12q9 -1 43 -10t49 -10 q12 -1 26 1.5t38 2.5q-4 -15 4.5 -34t3.5 -34v-18q-2 -5 -5.5 -16.5t-7.5 -18.5t-11 -14t-14 -22t-13 -21q-39 -3 -101 -3t-149 3q-5 -16 -6.5 -32t-0.5 -42.5t1 -32.5v-14q0 -23 -2 -61.5t-2 -62.5v-15q0 -41 -4 -122t-4 -122q15 2 35 2q23 0 53 -3q32 -2 60 -2q21 0 40 2 q43 3 70 24q-1 -3 -4 -14t-3.5 -16t-2 -14t-0.5 -18t3 -18l3 -13q1 -2 5 -5l5 -3q1 -4 -5.5 -18t-0.5 -21q-8 2 -11.5 -1.5t-5 -10t-4.5 -8.5q-28 -12 -33 -31q-36 -11 -124 -14.5t-93 -3.5q-12 -80 -12 -182v-42q1 -20 4.5 -56t4.5 -56.5t-5 -46t-22 -43.5v-19 q-11 4 -20 0.5t-17.5 -11.5t-10.5 -9q-14 16 -44 12t-35 -16q-4 2 -30 3.5t-28 4.5q-5 12 -18 13t-22.5 -5.5t-8.5 -11.5q-5 -1 -13 2t-14 2q3 10 3 24q0 18 -4 40q-9 41 -21 63z" />
<glyph unicode="g" horiz-adv-x="770" d="M41 829q22 105 45 173t66 157q48 94 94 135q8 7 19 13.5t24 13t20 10.5q102 -39 137 -61q2 0 5 -10q13 -5 22.5 -13t21 -23.5t15.5 -19.5q0 3 -2 64q-1 20 -1 34q0 28 3 31q1 21 35.5 26.5t56.5 -1.5q3 -1 10 -1t12 -1t9 -4q5 -2 9 -8t7 -7q5 -5 12 -7l7 -3q2 -3 7 -8 l5.5 -5.5t3.5 -5t2 -5.5t0.5 -7t-0.5 -10q5 -3 13 1.5t14 2.5q14 -14 2 -35q5 -21 5 -58q0 -18 -1 -40q-1 -24 2.5 -61.5t6 -65.5t1 -57t-14.5 -48.5t-38 -27.5q-3 -5 -16.5 -17t-14.5 -22q-4 -1 -6.5 3.5t-5.5 4.5q-1 -4 -8.5 -13.5t-8.5 -16.5q-17 7 -26.5 -12.5 t-16.5 -20.5q-5 11 -24 76q-40 129 -40 215q0 11 1 22q-30 -22 -76 -100q-74 -124 -94 -228q-13 -63 -18 -134q-3 -35 -3 -72q0 -41 3 -86q6 -87 28 -152q12 -39 40 -74t59 -39q6 -1 11 -1q56 0 108 70q59 77 77 153q-16 1 -46.5 1.5t-48.5 1t-41.5 6t-39.5 15.5 q-1 1 -11.5 12t-21.5 11q4 3 5 7.5t0.5 8.5t3 6.5t12.5 1.5q-3 3 -18 12t-21 17q3 0 8.5 1t7.5 1q-3 3 -11 8t-12.5 10.5t-4.5 14.5q8 -1 57 10q4 0 5.5 5t4.5 7q6 1 35.5 6t36.5 6t31.5 4t34 2.5t29.5 -1.5t32 -4.5t28 -9t31 -13.5q5 -5 11.5 -19t11.5 -18q-1 -5 -3.5 -8.5 t-10.5 -8.5l-7 -5q4 -8 2 -15q-11 -6 -10 -17t7 -21.5t3 -18t-20 -6.5q0 -224 -88 -340q-81 -108 -197 -131q-34 -4 -59 -4t-42 4q-36 7 -85 33q-44 24 -72.5 63t-62.5 111q-42 82 -58 174q-27 140 -27 266q0 100 17 190zM45 563v-15q0 -44 14 -126q17 -95 37 -127 q-8 36 -14.5 71.5t-10.5 61.5t-7 50l-5 40t-4.5 27.5t-4.5 15.5t-5 2zM109 266q11 -56 45 -86q-3 7 -8.5 22t-10 25t-11.5 21.5t-15 17.5zM213 76q4 -3 22.5 -20t30.5 -19q1 12 -7.5 20.5t-23 16.5t-18.5 12q1 -1 -4 -10zM506 481q40 -8 65 -8q17 0 27 4q0 7 -40 8.5 t-52 -4.5z" />
<glyph unicode="h" horiz-adv-x="1046" d="M12 645q0 24 4 25q5 3 15.5 1t15.5 1q-3 4 -17 7t-16 11q20 25 55 25h5q-5 88 -5 179q0 144 13 298q4 42 4 65q0 16 -2 23q-2 13 -12 29t-11 22q14 0 34.5 11t27.5 12q28 2 45.5 4t40 -3.5t35.5 -9.5t32.5 -14t30.5 -16.5t29 -18.5q25 -19 33 -29.5t20 -39.5 q3 -8 11 -22.5t12.5 -26.5t5.5 -25q2 -18 2 -42q0 -65 -14 -175q-12 -103 -12 -173q0 -34 3 -61q58 2 111 2q79 0 145 -4q0 37 4 115q5 55 5 163v66q-2 158 -21 207q-2 7 -15.5 26.5t-13.5 33.5q2 7 12 5.5t15 0.5q3 2 1.5 12.5t4.5 13.5q43 10 65 11h5q22 0 61 -8 q65 -14 101 -37q2 -2 9 -12.5t13 -12.5q4 -2 25.5 -8t29.5 -14q13 -17 22 -40.5t13.5 -40t7 -50.5t3 -44t0 -50t-0.5 -42q0 -40 -9.5 -159t-10.5 -131q-9 -124 -9 -254t9 -265q1 -13 3 -37t2 -31.5t-1 -23.5q-3 -9 -21 -28t-20 -33q-3 -1 -19 -9.5t-27.5 -11.5t-27.5 -2 q-29 -21 -56 -21q-18 0 -34 9q-6 1 -8.5 -5t-7.5 -5q-33 9 -51.5 22t-26.5 41q0 3 -2 4q-3 45 -13 150.5t-14 176.5q-3 47 -3 90q0 21 1 42q-140 -3 -252 -12l-6 -281q-1 -13 2.5 -48.5t-0.5 -47.5q-3 -16 -10.5 -32t-19 -35.5t-15.5 -26.5q-16 0 -33.5 -14.5t-21.5 -16.5 q-20 -1 -46 -6.5t-43 -9.5t-39.5 -1.5t-43.5 13.5q-4 6 -15.5 35t-23.5 39q-7 67 -8 226t-2 181q0 7 1 18t1 20t-2 17q-11 6 -17.5 13.5t-14.5 20t-15 20.5q-4 6 -1 6q2 -1 8 -2q7 -2 7 0q-5 8 -10.5 27t-20.5 28z" />
<glyph unicode="i" horiz-adv-x="385" d="M24.5 1266.5q-1.5 6.5 0.5 17.5q5 1 11 -0.5t9 -1.5q1 7 -5.5 15.5t-4.5 13.5q3 5 9 6.5t18.5 2.5t15.5 1q3 4 -2.5 6.5t-14 4.5t-10.5 5q40 5 47 2q1 3 -1.5 5t-6 2.5l-7 1t-6 2t-1.5 4.5q9 6 32 7q14 0 33 -3q3 1 3.5 0t1 -4t1.5 -4q22 5 39.5 -4.5t6.5 -32.5 q12 -5 24 2.5t23 5.5q4 -1 24 -12t37 -6q5 -5 7.5 -11.5t3 -10t0 -15.5t-0.5 -15q7 -1 35 -12q-2 -61 -9 -264.5t-9 -292.5q-1 -6 1.5 -14t2.5 -11q-33 -364 -35 -393q-5 -131 -5 -180q0 -16 1 -23q0 -4 -1.5 -6t-6 -6t-6.5 -6q4 -26 0 -33h-10t-13 4q-2 -8 -16.5 -10.5 t-16.5 -11.5q-4 -1 -6.5 4.5t-7.5 5.5q-7 -7 4 -12q-25 0 -33 -10q-3 7 -18.5 13t-14.5 17q-7 -11 -26 -6q-12 31 -20.5 64.5t-14 77.5t-8 67t-7 80t-5.5 69q-7 151 -7 252q-1 30 -4 115.5t-4 130.5q-1 30 -5 89t-5 85q-1 16 -1 98.5t-5 104.5q-1 4 -5 13.5t-5.5 16zM86 922 q0 -35 1 -205t3 -282.5t6 -112.5q8 1 5.5 16t2.5 18q5 0 11 -79q2 -36 -2 -33q11 -110 20 -144q9 8 4 31q-1 33 -8 100.5t-11.5 113.5t-0.5 46q2 0 3 -8.5t3 -9.5q3 7 2 24t-4.5 52.5t-3.5 50.5q1 1 3 -5q2 -5 5 -18q6 -22 8 -22q3 4 2.5 28.5t-3.5 57.5t-7 45q-2 -4 -1 -25 t1.5 -36.5t-2.5 -18.5q-12 57 -12 94q0 21 4 35q3 0 4.5 -13.5t5.5 -15.5q3 10 3 22q0 22 -9 52q-5 -2 0 -25q1 -9 -2 -8q-16 48 -23 213q-3 62 -8 62zM111.5 728.5q0.5 -20.5 7.5 -32.5q0 2 1 8.5t1.5 14t0.5 15t-2 12.5t-5 6q-4 -3 -3.5 -23.5zM178 270q0 -36 8 -55 q5 42 -8 55z" />
<glyph unicode="j" horiz-adv-x="794" d="M16 366.5q-1 19.5 5 62t9 61t10.5 59t10.5 55.5q5 -1 27.5 -10.5t38.5 -7.5q3 2 -1.5 8.5t-0.5 9.5q16 -4 27 -10t15.5 -11t13.5 -17t15 -19q16 -4 31 -15t23.5 -20.5t22 -27t20.5 -25.5q-1 -14 8.5 -28t11.5 -23q5 -6 5 -26q0 -15 -3 -38q-5 -36 -5 -67q0 -13 1 -25 q3 -39 29 -62q13 -13 29 -13q14 0 30 11q16 10 25.5 37.5t12.5 67.5t3 79q1 4 1 9q0 35 -4 79q-4 50 -7 80.5t-7.5 69t-4.5 39.5q-6 69 -6 146q-1 15 -1 30q0 57 2 95q2 47 8.5 138t8.5 126q-15 1 -37 1q-32 0 -78 -2q-36 -1 -68 -1q-37 0 -69 2q-61 3 -107 20q3 2 14 1.5 t17 0.5q-5 6 -22.5 12.5t-22.5 10.5q-1 1 3 2q6 4 1 6q1 8 15 11.5t16 4.5q0 4 -12 4q3 14 28 17q4 2 -1 4.5t-1 5.5q10 7 23 4q0 6 -8.5 9t-8.5 8q20 5 72 11t62 7q34 4 107 4.5t108 5.5q5 0 12.5 3t9.5 3q32 6 60 6q58 0 100 -24q15 3 27.5 0.5t23 -11t16.5 -15t16 -20.5 t13 -18q17 -41 19 -87v-15q0 -41 -6 -97q-8 -66 -9 -91q0 -37 -4 -119v-17q0 -43 7 -139t7 -158v-26q-3 -96 -16.5 -170.5t-30.5 -121.5t-44.5 -85.5t-50.5 -59t-58 -44.5q-59 -41 -166 -47q-12 -1 -24 -1q-124 0 -217 86q-103 94 -118 240q-1 42 -2 61.5z" />
<glyph unicode="k" horiz-adv-x="913" d="M53 1303q3 17 38 31q30 12 59 13q4 0 8 -1q20 -2 61 -13.5t51 -13.5q30 -6 44.5 -9t36.5 -12t31.5 -19.5t15.5 -30t1 -44.5q-7 -52 -7 -146q0 -80 5 -190q2 -5 2 -25q1 -16 -1 -43q-2 -58 -3 -71q17 12 34.5 31.5t24.5 29.5t27 39q72 108 103 271q7 33 16 100t14 94 q-14 16 -14 39q7 0 30 -3t36.5 -0.5t21.5 13.5q14 -1 27.5 -4.5t36.5 -12.5t30 -11q45 -15 70 -30.5t47 -45.5q13 -45 13 -104q0 -44 -7 -95q-9 -26 -10 -34q-9 -50 -25 -101q-32 -99 -82 -182q-100 -174 -268 -279q6 -15 18.5 -36.5t21.5 -36.5t30 -47t28 -43 q68 -104 95 -132q27 -27 47 -28q15 -1 27.5 5.5t19 14.5t12 16.5t9 13t6.5 1.5q23 -17 26 -57v-9q0 -33 -12 -61q-29 -59 -123 -59q-124 0 -215 110q-44 51 -121 178q-7 -21 -7 -50.5t2 -65t1 -56.5q-4 -70 -29 -86q-1 -1 -9.5 7t-14.5 6q-44 -22 -53 -25q-68 -18 -109 -18 q-15 0 -27 2q-22 2 -48.5 20.5t-26.5 34.5q-4 19 -4.5 45t1 60.5t1.5 46.5q2 25 2 67q0 35 -2 82q-1 40 0 70q0 48 2 71q2 32 1.5 47t-3 48t-3.5 49v227q0 52 -6 274q0 18 6 67q4 33 4 52q0 10 -1 17q-1 5 -5.5 13t-7 14t-0.5 10z" />
<glyph unicode="l" horiz-adv-x="698" d="M35 1307q43 41 121 41q41 0 90 -11q139 -35 139 -152q0 -9 -3 -22t-3 -20q-3 -20 -3.5 -62.5t-2.5 -60.5q-1 -22 -1 -43q0 -74 11 -141q1 -49 5.5 -209t4.5 -215t-2 -213q14 -1 36 -1q29 0 69 2q32 2 60 2q35 0 63 -3q50 -5 77 -29q0 -5 -2.5 -14t-2 -14.5t6.5 -8.5 q0 -3 3 -11.5t4.5 -14.5t0.5 -14t-6 -13q-30 -39 -68.5 -56t-101.5 -22q-27 -3 -105 -3q-29 1 -66 1q-80 1 -125 0h-44q-11 0 -28 -1t-28.5 -1t-20.5 2q4 15 -7.5 25.5t-7.5 21.5q-40 16 -51 31q0 26 8 31q-1 5 -4.5 8.5t-3.5 7.5q0 3 3 8t3 8q-5 35 -4 47q2 24 9 84t10 92 t6 98q1 25 1 46q0 34 -3 57q-20 510 -21 621q0 3 2 20.5t2.5 29.5t0 28t-6 27t-14.5 16z" />
<glyph unicode="m" horiz-adv-x="1185" d="M29 1274q9 19 25.5 29.5t50 21.5t40.5 14q24 2 46 2q122 0 192 -65q1 -18 18 -39.5t19 -26.5q5 -6 9 -15.5t8.5 -23.5t8.5 -22q22 -67 76 -223.5t82 -239.5q65 223 133 408q4 8 12.5 31t14.5 34q4 9 14 27.5t14.5 33t4.5 33.5q-15 21 -15 53v11q44 31 128 36q10 1 20 1 q70 0 108 -33q39 -3 52 -23q5 -8 11 -37t19 -36q10 -92 10 -152v-11q-1 -62 -5 -176q-3 -91 -3 -152v-29q1 -17 4 -50.5t3.5 -50.5t-1.5 -51q-3 -45 -3 -83q1 -6 1 -12q0 -42 2 -118.5t2 -108.5q0 -10 -1.5 -19t-3.5 -18t-4 -15t-6 -14.5t-6 -13t-7.5 -14.5t-7.5 -14 q-13 -23 -45 -51q-33 -33 -64 -49q-5 -5 -20 -9q-24 -19 -62 -37q-4 -2 -13 -6t-12.5 -5t-10.5 -3.5t-11 -2t-10.5 1t-12 3.5t-12.5 8q-9 52 -15 110.5t-8 135.5q-4 77 -4 117v53.5v81.5q0 96 1 109q0 24 1 88q1 43 1 76q-1 18 -1 32q0 44 -5 86q-6 -31 -18 -67t-24.5 -68.5 t-15.5 -42.5q-3 -11 -20 -58t-31 -87.5t-14 -49.5q1 -7 10.5 -30t7.5 -37q1 -4 -1.5 -4.5t-5.5 0.5t-5 -2q-4 -16 -4 -23q-36 -17 -39 -65q-24 -19 -31 -31q-9 -4 -28.5 -12t-33.5 -15t-24 -16q-13 -1 -44 -6.5t-48 -7.5q-7 4 -18 19.5t-21 19.5q-27 59 -81.5 222t-68.5 201 q0 -47 -2 -131.5t-2 -91.5v-55q0 -147 9 -253q1 -12 2 -9q-1 -17 0 -35t-1 -37.5t-8 -28.5q-3 -8 -23.5 -20t-21.5 -25q-5 -1 -29.5 -9t-52 -16t-43.5 -11q3 58 3 159q0 84 -2 197.5t-2 207.5q0 113 3 197q7 175 7 285v45q0 7 1.5 34.5t1 48.5t-4.5 32q-4 9 -9 26t-11.5 31 t-18.5 31z" />
<glyph unicode="n" horiz-adv-x="827" d="M59 1167q3 22 9 58q1 4 3 14.5t3 19t0 15.5q0 6 -5.5 16t-5.5 13q-1 5 2 14.5t1 15.5q2 2 6.5 4.5t7 5.5t2.5 7q9 0 29 7t30 7q5 -1 11.5 -4t11.5 -4q6 -1 19 0.5t16 1.5q5 1 13.5 -3.5t10.5 -4.5q8 -2 19.5 -1.5t11.5 -0.5q4 -2 9 -6t8.5 -6.5t7.5 -2.5q7 -8 16 -25.5 t16 -25.5q7 -10 23 -27t22 -26q14 -24 39 -92q8 -25 30 -73t30 -71q94 -268 170 -428q-7 171 -7 306q0 320 41 442q3 9 6.5 12.5t6 2.5t5.5 -2.5t6 -2.5t7 2t8 12q2 3 6 14.5t9 14.5q5 -5 23 -7.5t20 -8.5q1 -6 5.5 -19.5t4.5 -21.5q9 -49 9 -83q0 -9 -1 -18 q-12 -164 -13 -360v-77q0 -151 3 -277q4 -158 4 -177q-5 -37 -2 -47q2 -13 18 -45.5t15 -50.5q0 -6 -3.5 -14.5t-4.5 -12.5q-1 -5 -1 -17.5t-2 -18.5q-3 -9 -18 -24.5t-16 -27.5q-17 -4 -34.5 -26.5t-27.5 -28.5q-4 -2 -13 -3t-13 -3q-6 -3 -16 -10t-19.5 -11t-20.5 -2 q-6 4 -18 17.5t-21 17.5q-19 22 -36 52.5t-25 48.5t-26.5 63.5t-22.5 56.5q-17 46 -56 128t-49 104q-2 6 -6 20t-8.5 24t-11.5 17q-15 41 -50 118t-49 118q-5 -38 -5 -78q0 -6 -1 -12q0 -37 3 -90q3 -62 3 -84q0 -12 5 -37t6 -37q5 -69 5 -131q0 -26 -1 -51q0 -159 -41 -224 q-10 -8 -45.5 -26.5t-46.5 -36.5l-13 27q-6 1 -15 -5.5t-13 -3.5q-12 64 -12 157.5t3 156.5q5 168 5 294v68q-1 49 -6 237q-4 135 -4 222q0 34 1 61z" />
<glyph unicode="o" horiz-adv-x="753" d="M37 426q-14 86 -14 178q0 105 18 219q15 102 49 207q56 162 143 262q68 59 111 76q12 -2 27.5 4t27.5 4q1 -1 4 -3t5 -3t4 0q7 -2 17 -1t13 -1q5 -1 14 -5.5t20 -10.5t18 -9q34 -14 106 -73q2 -6 10.5 -21t13.5 -29.5t1 -29.5q-9 -4 -21 -17.5t-18 -17.5q44 -59 55 -84 q33 -67 53.5 -137t25.5 -124q6 -54 8 -110q1 -25 1 -47q0 -26 -2 -47q-2 -114 -20 -237.5t-48 -186.5q0 -3 -1.5 -9.5t-0.5 -12.5q-6 -4 -9.5 -10t-7.5 -20.5t-5 -16.5q-8 -3 -16.5 -16.5t-12.5 -16.5q-1 -1 -11 -10t-11 -17q-29 -10 -66 -43q-50 -21 -107 -24h-15 q-50 0 -102 18q-60 20 -101 64q-64 67 -99 148t-57 210zM320 618q-3 -43 -4 -81q0 -47 6 -89q8 -76 26 -135.5t42.5 -89t49.5 -22.5q41 11 64.5 43t46.5 92q22 59 37 188q11 97 11 215q0 40 -1 82q-3 90 -30.5 170.5t-53.5 106.5q-5 -6 -17.5 -18.5t-23 -24t-16.5 -21.5 q-42 -59 -63.5 -108t-41.5 -123q-25 -91 -32 -185z" />
<glyph unicode="p" horiz-adv-x="851" d="M38.5 1246q-0.5 13 8.5 30q2 2 11 0t12 0q1 5 -5.5 8.5t-5.5 7.5q1 1 8 3t11 4t0 6q-1 3 3 3q2 -1 5 -2q6 -1 8 -1q22 0 52 11.5t51 16.5q69 17 151 17q60 0 127 -9q133 -19 222 -84.5t116 -144.5q20 -63 20 -134q0 -33 -4 -67q-8 -64 -45 -133q-39 -69 -109.5 -137 t-123 -103t-96.5 -59q-49 -23 -84 -51q-5 -74 -5 -162v-18q1 -98 3 -139l3.5 -17.5t2.5 -17.5t-1.5 -13t-6.5 -14q-14 3 -40 -17.5t-44 -19.5q-14 -21 -45 -24q-7 0 -7 8q-8 -1 -24 -6t-23 -6l-2 6q-6 1 -19.5 -0.5t-15.5 -1.5q0 4 -5 8t-5 8q-5 1 -6.5 -2.5t-5.5 -3.5 q-13 15 -22 36t-14 49.5t-7 48.5t-3.5 56.5t-2.5 49.5q-15 243 -15 403v51q2 39 2 118q0 49 -1 114q-1 121 -1 181v38q0 3 -6.5 5.5t0.5 8.5q2 3 2.5 13t8.5 12q-2 2 -6 2t-7.5 0.5t-3.5 3.5q0 6 -5 26.5t-5.5 33.5zM379 614q23 12 69 63.5t68 102.5q1 3 7.5 16.5t7.5 16.5 l5.5 16.5t2.5 17t-2 17.5q13 46 13 86q0 24 -4 46q-13 59 -58 93q-34 26 -75 26q-14 0 -28 -3q2 -64 3 -76v-6q0 -17 -2 -69q-3 -62 -3 -74q-1 -34 -1 -97t-0.5 -110t-2.5 -66z" />
<glyph unicode="q" horiz-adv-x="837" d="M25 545q-1 23 -1 47q0 144 52 304q60 186 155 302q2 2 6.5 -1.5t10.5 5.5q85 93 188 115q7 2 17 3.5t17 3.5t13 7q35 -5 72.5 -23.5t57.5 -33.5t59 -47q4 -3 16 -27q4 -5 13 -15.5t11.5 -15t1.5 -12.5t-9 -16q-40 -3 -68 -15.5t-66 -40.5q-73 -53 -129 -120 q-57 -69 -85 -191q-21 -93 -21 -192q0 -32 2 -64q6 -125 55 -209q9 -18 30.5 -37.5t39.5 -27.5q0 69 6.5 196t7.5 146q11 15 27 20q39 -23 69 -61q23 -39 26 -64q2 -13 1 -30q-4 -114 -4 -195q58 35 82 214q10 83 10 164q0 94 -14 185q-5 37 -34 142q-6 30 -1 30 q7 -3 8.5 -0.5t3.5 10.5q34 -11 35 -15q1 -3 -12 -3q7 -7 26 -19.5t23 -15.5q7 -7 31 -37q6 -11 11.5 -28.5t11.5 -44.5t9 -37q4 -16 5.5 -53.5t5.5 -57.5q1 -4 5 -11.5t5 -12.5q4 -20 5.5 -48.5t0.5 -53t0 -52.5v-28q0 -92 -17 -180q-19 -102 -67 -173q-25 -36 -68.5 -74 t-72.5 -47q-3 -55 -13 -102q-1 -7 -1.5 -30.5t-2.5 -33.5q-3 -11 -5.5 -30t-6 -32t-10.5 -22q0 -6 -22 7q-7 5 -9 4q-1 -2 -4 -7.5t-4.5 -8.5t-5.5 -5.5t-10 -1.5q-6 -1 -4 4t-1 4q-10 -1 -23.5 3.5t-21.5 -3.5q-7 11 -12 25t-7.5 26.5t-2.5 31.5v30t3 33t4.5 30.5t5.5 31 t5 26.5q-77 0 -147 37q-163 85 -232 299q-1 4 0.5 8.5t1.5 5.5q-13 28 -21 63.5t-10.5 62.5t-6.5 79z" />
<glyph unicode="r" horiz-adv-x="823" d="M66 799q0 102 2 151q2 60 2 234q-2 0 -2.5 27t3 58t11.5 38q22 23 74 31q18 3 35 2q31 0 57 -9q105 24 170 24q15 0 28 -1q82 -7 146 -30.5t103 -54.5t64 -71.5t34.5 -79t9.5 -78.5q0 -191 -93.5 -343.5t-226.5 -239.5q45 -20 82.5 -73.5t58 -105t47 -93t54.5 -44.5 q23 -2 54 14t34 17q8 0 10.5 -4.5t0 -12.5t-6 -16t-8.5 -17t-6 -13q-3 -7 -6 -24.5t-6 -25.5q-2 -4 -18.5 -23t-18.5 -34q-45 -23 -97 -23q-9 1 -17 1q-62 4 -103 40q-29 26 -60 93t-57.5 127.5t-49.5 74.5q0 -49 3 -111t5 -104l3 -43q0 -3 1 -11.5t0.5 -13t-3.5 -10 t-10 -8.5q-68 -23 -142 -23q-18 0 -37 1q-35 4 -57.5 22.5t-42.5 51.5q-5 26 -8.5 58t-5.5 74.5t-3.5 71.5t-2 82.5t-0.5 72.5v76.5v61.5q-4 165 -4 219v17zM362 551q42 34 91.5 119t72.5 178q21 94 23 170v8q-1 71 -33 117q-34 49 -102 49q-13 -50 -21.5 -116t-11.5 -116.5 t-7 -138t-7 -133.5q-1 -12 -2 -60t-3 -77z" />
<glyph unicode="s" horiz-adv-x="718" d="M35 991q-1 10 -1 19q0 102 60 180q33 43 76 83.5t70 53.5q24 8 42.5 6t47.5 -8t39 -6q5 -9 13.5 -15t23.5 -13t18 -9q4 -3 10 -15.5t10 -15.5q8 8 8 45.5t7 40.5q6 3 22 18t31 17q8 2 28.5 -5.5t28.5 -4.5q5 -5 31.5 -20t32.5 -31q11 -27 18.5 -57.5t12 -74.5t6.5 -63.5 t5 -76t3 -60.5q0 -12 -19.5 -25.5t-23.5 -19.5q-1 0 -9.5 -2.5t-9.5 -3t-8 -3t-9 -3t-7.5 -3t-8 -4t-7 -4.5t-7 -5.5t-6 -5.5t-6.5 -7q-8 4 -17 -6l-10 -10q-2 0 -7 3q-4 3 -5.5 3t-3.5 -4q-27 10 -40 34.5t-23 73.5q-5 26 -5 96q-4 54 -4 70q-27 -17 -49.5 -50.5 t-32.5 -64.5q-10 -27 -10 -54q0 -46 29 -91q32 -51 70 -103.5t81 -109.5t64 -86t39 -58t37.5 -69t29.5 -74q8 -26 7 -53v-16q-3 -35 -23 -58q-11 -98 -76 -176q-44 -59 -67 -72q-7 -4 -24.5 -9t-24.5 -9q-46 -18 -136 -18h-11q-97 0 -173 49q-71 47 -102 139 q-3 9 -10.5 28.5t-11.5 34t-5 27.5q-3 32 -3 53q0 15 2 26q4 25 16.5 71t15.5 71q15 13 41.5 2t44.5 0q24 -12 37 -33t24 -61q30 -87 53 -149q18 -58 46 -90q23 -26 46 -26q5 0 11 1q58 14 58 104q0 13 -1 29q-6 59 -51 139t-107 158q-131 162 -185.5 255t-55.5 181z" />
<glyph unicode="t" horiz-adv-x="772" d="M-0.5 1259q-0.5 2 0 4t2.5 3q19 -9 20 -9t1 3q-21 17 -21 39q0 10 4 22q18 -6 19 -7q19 3 71.5 17t83.5 15q15 1 32 1q42 1 96 -5q76 -8 135 -16q47 -6 101 -5h29q71 2 127 20q2 0 6.5 -2.5t10.5 -1.5q32 23 45 31q3 0 4.5 -2t0.5 -5t-1 -7v-8l6 -11q0 -6 -4.5 -17 t-3.5 -18q1 -5 4.5 -14t3.5 -16q1 -18 -11.5 -46t-15.5 -42q-18 -8 -46.5 -13t-75.5 -9t-54 -5q-24 -51 -24 -893q0 -132 20 -192q-1 -4 -3 -5t-4.5 0t-6.5 -2q-2 -2 -3 -8t-3 -8q-1 -1 -3 0t-3.5 2t-1.5 0l-5 -10q-27 -27 -59 -27q0 -1 -1 -3.5t-1.5 -4t-2 -4.5t-3 -4.5 t-4.5 -2.5t-6 -1q1 -3 3.5 -8.5t2.5 -10.5q-5 0 -31 -2.5t-31 -2t-30 2.5q-9 2 -25.5 10.5t-26.5 10.5q-43 6 -73 24q0 5 -2 9t-4 5.5t-6.5 4.5t-6.5 4q7 11 -2 20q0 21 2 166t4 213v39q-1 89 -3 321q-4 298 -3 369q-18 4 -34.5 4t-31.5 -4q-24 -7 -56 -7h-11q-38 2 -70 24 q0 2 0.5 4t1 3.5t3 2.5t3.5 1.5t4 1.5l3 1q-2 4 -8.5 11t-15 15t-9.5 9q2 3 4.5 3t5.5 -1.5t4 -1.5q-2 2 -4.5 6t-4 6t-3.5 5t-3 5t-1.5 4z" />
<glyph unicode="u" horiz-adv-x="864" d="M20 1249q-11 -5 7 17q6 8 12 14q19 19 41 31q46 25 104 30q48 0 66 -4q9 -1 28.5 -2t33 -2t29 -3.5t25.5 -7.5t15 -13q4 -6 7 -22t7 -21q7 -56 7 -126v-24q0 -56 -2 -100q-2 -53 -6.5 -136t-6.5 -126q-1 -38 -9 -154q-8 -110 -8 -176v-8q0 -68 13 -113q16 -59 44.5 -87 t59.5 -28q62 0 97 58q25 41 44.5 114.5t22.5 169.5q3 105 3 194q0 180 -11 300q-6 66 -15.5 132t-14.5 100t-3 47q4 5 12.5 26.5t24.5 22.5q13 1 24 1q29 0 49 -4q28 -5 37 -12t14.5 -15.5t8.5 -10.5q19 -90 29 -230q10 -164 10 -344q0 -181 -28 -370q-7 -52 -31 -125 q-11 -30 -14.5 -39t-12 -29t-17 -33.5t-20.5 -29.5q-41 -52 -90 -86q-60 -43 -149 -43q-138 0 -219.5 42.5t-126.5 139.5q-28 59 -41 184q-1 9 -8 393t-29 463q-2 5 0.5 13.5t3.5 12.5t-6 7q-5 1 -3 4.5t1 6.5t-9 1z" />
<glyph unicode="v" horiz-adv-x="772" d="M27 1196q1 14 6 39t6 37q0 6 0.5 17t1 16t3 10.5t7.5 9.5q5 3 15.5 2.5t21.5 1.5q3 1 11.5 6.5t13.5 5.5q13 1 19 0.5t18.5 -3t19.5 -3.5q30 5 35 4q5 0 53 -16q2 -1 8 -5.5t9 -4.5h12q17 -24 45 -27q4 -5 30.5 -26t30.5 -37q2 -19 -2 -60v-33q0 -72 6 -180 q13 -147 35 -260q21 -109 84 -293q9 29 17 64t13 59t12.5 72t9.5 63.5t9.5 74.5t8.5 67q22 168 28 319q1 20 2.5 56t2 56.5t3.5 45t7 41.5q1 3 1 9.5v10.5q-1 13 0.5 15.5t14.5 -2.5q9 0 18.5 6.5t13 7.5t13.5 -10q42 -17 49 -31q15 -29 15 -139.5t-15 -255.5 q-3 -33 -15 -120.5t-15 -117.5q-10 -83 -36 -204t-42 -169q-4 -12 -15.5 -35.5t-15.5 -35.5q-24 -70 -37 -94q-17 -27 -44 -83.5t-40 -80.5q-7 -2 -24.5 -8.5t-32.5 -10t-29 -0.5q-24 8 -74 76q-70 101 -145 319q-14 46 -29 84q-2 7 -14.5 49.5t-23.5 84t-25.5 99t-27 122.5 t-21.5 127q-7 51 -7 166q0 46 1 102z" />
<glyph unicode="w" horiz-adv-x="1226" d="M4 1260q-8 34 0 47q4 8 10.5 12.5t18 7t19 3t23.5 1t23 0.5q44 3 72.5 3t40.5 -3q3 -2 12 -9.5t15 -8.5q7 -3 23 -5t20 -5q4 -2 12.5 -15t17.5 -12q11 -33 15 -37q9 -59 61 -338q6 -36 29 -149q14 -77 29.5 -159t25.5 -136t23 -119l86 203q12 31 28 92q-50 224 -61 260 q-12 42 -31 72q-7 13 -20 29t-15 24q-4 14 35.5 47.5t71.5 46.5q53 24 103 24q32 0 63 -10q22 -8 41 -31t28 -55q10 -31 29 -120q62 -281 86 -447q20 74 62.5 292t72.5 400q4 26 9 39t9 14.5t9 5.5t8 13q3 11 7 30.5t6.5 30.5t10 24t19.5 21q2 7 5 4.5t6.5 -7t8.5 0.5 q15 20 15 1v-13q-1 -16 0 -20q1 -2 1.5 -11.5t2.5 -15.5q3 -7 18 -21t17 -24q1 -9 1 -23q0 -36 -9 -104q-38 -242 -76 -430q-16 -94 -43 -223q-97 -424 -144 -424q-22 -4 -32 -21q-7 -3 -18.5 -9t-18 -9.5t-20 -6t-23.5 2.5q-29 0 -48 24.5t-36 85.5q-66 258 -76 320 q-31 -76 -98.5 -229t-77.5 -166q-27 -33 -43 -39q-21 -14 -47 -14q-14 0 -30 4q-44 11 -71 38q-34 27 -43 54q-52 153 -102 344q-48 184 -91.5 400.5t-53.5 293.5q-2 13 -10 36.5t-9 35.5q-1 9 -1 38.5t-1 43.5z" />
<glyph unicode="x" horiz-adv-x="792" d="M-23 -14q0 2 3 6q16 20 36 55t33.5 63t34.5 75t29 63q35 75 91 195.5t81 174.5q-25 74 -62 185t-57.5 171.5t-42.5 120.5t-35 87q-17 37 -61 75q14 52 67 77.5t123 25.5q82 0 113 -19q1 -1 9.5 -6.5t11 -7.5t10 -9t11.5 -13.5t10.5 -17.5t12.5 -25q18 -37 48.5 -147 t41.5 -140q20 43 62 142t70.5 159.5t39.5 64.5q0 1 -1 7t-0.5 9.5t3.5 4.5q3 3 11 7t12 7q-3 -11 6 -27t10 -24q3 -1 6.5 2t6.5 2q-2 -16 2 -31q5 -2 11 5.5t10.5 14t6.5 3.5q5 -2 1 -13.5t-1 -19.5q1 -4 5 -9t4 -9q-14 -47 -89.5 -229t-115.5 -255q31 -95 76 -225 t79.5 -227t38.5 -109t14 -32t15 -31q10 -22 8.5 -46t-24.5 -36q-1 -4 4 -33q-9 -3 -12 -2.5t-9.5 5t-9.5 5.5q-3 0 -3.5 -3.5t0 -8t-0.5 -8.5q-13 3 -16 8q-11 -13 -15.5 -17.5t-15.5 -11.5t-23 -8q-4 0 -1.5 -3t-0.5 -3h-7h-7.5h-6.5t-5.5 -1t-4 -3t-1.5 -5t1 -7 q-9 -1 -16.5 -0.5t-15 0t-11.5 -3.5q-4 2 -21 2t-22 -7q-3 7 -5.5 9t-7 3t-9.5 5q-1 5 -4 21t-2 28q-14 21 -39 87.5t-58.5 164.5t-44.5 127q-20 -42 -72 -153.5t-79 -166.5q-38 -74 -73 -116q-26 -31 -46 -31q-7 0 -12 4q-9 6 -26.5 -1t-22.5 -7q-6 3 -1 18t5 19 q-4 6 -42 0q-15 -3 -16 0z" />
<glyph unicode="y" d="M8 1298q46 44 136 44q23 0 49 -3q112 -16 131 -71q0 -1 11 8q8 6 9 0q4 -29 38 -137t50 -148q75 -178 109 -246q43 92 143 412q4 13 16 54.5t22.5 75.5t18.5 52q2 7 6.5 2.5t6.5 -4.5q0 1 -0.5 13t4.5 12q5 -1 8.5 -7.5t5.5 -8.5q16 -3 35 -25t35 -25q3 1 3 16q-1 11 7 3 q6 -5 6 -55q1 -2 5 -5.5t5 -5.5q0 -27 -32 -134.5t-43 -137.5q-61 -184 -138 -367q-28 -73 -43 -88q1 -46 6 -148q5 -81 5 -142q0 -16 -1 -31q-1 -70 -14 -131q-21 -38 -35 -52q-4 -4 -20 -12.5t-21 -17.5q-4 2 -13.5 7t-16.5 7.5t-13 1.5q-9 -1 -28 -5t-31.5 -6t-25.5 -1 t-17 8q-20 -13 -30 -7q-5 3 3 11q-23 3 -32 12.5t-19 34.5q-10 21 -13 111q-2 68 -2 153v58q1 120 1 137q-38 75 -154 336q-61 147 -98 252q-44 122 -44 171q0 22 9 29z" />
<glyph unicode="z" horiz-adv-x="784" d="M31 176q-1 4 0 7.5t3 8t3 7.5q32 147 104 315q13 28 44 101.5t40 91.5q19 39 77.5 154.5t78.5 158.5q4 9 30 62t40 85q-17 1 -68 3t-69.5 2t-71.5 -1q-8 -1 -29.5 -4t-38 -5t-32.5 -0.5t-19 7.5q-1 3 5 5q4 2 17 6t13 6q-7 2 -31.5 8t-32.5 12q-3 2 -8.5 9.5t-7.5 9.5 q-5 5 -23 12q2 4 15 1.5t18 -1.5q2 4 -1 7t-9 7t-8 6q0 5 8.5 2t11.5 -2q2 2 -8 10t-8 11q3 1 18.5 0.5t20.5 1.5q1 5 -1 8t-8.5 5.5t-7.5 2.5q13 2 27.5 10t30.5 11q82 10 210 13.5t177 6.5q26 4 54.5 2.5t41.5 -14.5q14 2 19.5 0.5t19 -8.5t22.5 -10q3 -1 15 -1.5t18 -2.5 q1 0 15.5 -12.5t25.5 -10.5q1 -3 1.5 -7t1 -6.5t2.5 -5.5t5 -4q-4 -11 -1.5 -41.5t1.5 -41.5q-2 -7 -15.5 -31t-12.5 -39q-51 -76 -133 -248q-46 -102 -162 -385q-30 -69 -57 -127.5t-38.5 -82t-19.5 -43t-10 -36.5q17 -1 42 -1q34 0 82.5 2t81.5 2q25 0 42 -1 q6 -1 21.5 -3.5t23 -3t24.5 0.5q13 2 86 31q-1 -7 4.5 -15t12 -15t11.5 -14t1 -14.5t-18 -13.5q-9 -17 -1 -34t7.5 -38t-21.5 -34q-16 -15 -44 -20t-76.5 -6t-71.5 -3q-12 -2 -109 -6q-11 -2 -40 -2q-24 0 -61 2q-81 2 -89 2q-12 0 -39 1t-41 1q-4 0 -12 -0.5t-12.5 -0.5 t-10.5 1.5t-12 5.5q-37 22 -63 71q-22 40 -22 81q0 9 1 18zM131 25q3 -7 50.5 -7t64.5 2q-5 8 -58.5 8t-56.5 -3zM221 612q5 0 47 76q39 71 39 79v1q-1 1 -4 -1.5t-5.5 -5t-2.5 -1.5l8.5 17l9 18t8.5 15.5t11 14.5q6 -8 4.5 -13t-6.5 -16t-6 -18q2 -2 5 1t8 10.5t9 14.5 t10 17l9 15q5 10 16.5 27t18 33t6.5 34q-13 -10 -26 -34t-21 -39.5t-11 -10.5q2 9 2 10l-5 -7q-7 -9 -9 -9q-3 2 1 11.5t12 25t11 26.5q-16 -6 -20 -26q-14 -12 -23 -28.5t-18 -42t-14 -36.5q-5 -13 -14 -31.5t-13 -27.5q-9 -17 -19 -41t-15 -40q-6 -18 -3 -18zM262 20 q69 -14 114 -15q8 0 15 1q18 3 3 6q-20 3 -21 4q5 7 32.5 7.5t32.5 7.5q-32 3 -60 3t-50 -3h-24.5t-29.5 -2.5t-12 -8.5zM406 944q5 -2 21.5 34.5t10.5 39.5q-2 1 -10 -11.5t-15.5 -31.5t-6.5 -31zM438 8q0 -2 9 -3q18 0 68 9q41 6 38 11q-29 -1 -54.5 2t-28.5 4t-9 -2 q0 -4 5 -5t5 -6q-1 -1 -9.5 -1.5t-16 -2.5t-7.5 -6zM496 41q12 0 27.5 -2t23.5 -2q14 0 21.5 2.5t2 5t-23.5 2.5q-9 -1 -21.5 2t-19 2t-10.5 -10zM584.5 27.5q0.5 -5.5 13.5 -4.5h13h16.5h16.5t16.5 0.5t12.5 1.5t9 2.5t2 3.5q-8 6 -41.5 3t-48.5 -1q-10 0 -9.5 -5.5z" />
<glyph unicode="{" horiz-adv-x="634" d="M72 586q-11 12 12 30t55 43t35 50q2 17 0 34.5t-7 43.5t-7 36q-20 145 -15 234q12 233 121 342q32 32 88 59.5t92 34.5q31 0 127 -86q7 -7 -8 -17.5t-2 -21.5q3 -7 0.5 -8t-16 -8t-28.5 -14.5t-36.5 -26.5t-40.5 -45q-20 -29 -21 -85.5t10 -110t26 -123.5t18 -107 q10 -99 -39.5 -168.5t-128.5 -91.5q34 -19 49.5 -29.5t43.5 -34t46 -53t29 -68.5q9 -58 5 -122t-13 -111q-2 -12 -6.5 -35t-7 -34.5t-5.5 -30.5t-4.5 -30t-2.5 -25t-1 -24t2 -18q4 -24 29 -36t52.5 -10.5t49.5 5.5q22 -44 15 -61q-5 -17 -41 -35q-55 -28 -141.5 -27 t-133.5 31q-47 29 -77 74.5t-37 130.5q-3 38 2.5 167.5t5.5 170.5q0 58 -20 90.5t-66 64.5q-8 8 -4.5 27t-3.5 29z" />
<glyph unicode="|" horiz-adv-x="423" d="M55 352q0 21 1 45.5t2.5 54.5t2.5 48q1 25 0 74t0 73q3 77 9 150q4 78 -3 285t7 270q92 21 167.5 -9.5t114.5 -95.5q2 -122 -6 -366q-1 -64 4 -183.5t4 -177.5q-1 -21 -1 -70.5t-1 -76.5q-2 -31 -3 -94.5t-4.5 -109t-12.5 -81.5q-6 -21 -13.5 -29.5t-27.5 -19.5 q-5 -2 -13.5 -8.5t-9.5 -7.5q-4 -2 -14.5 -4.5t-15.5 -4.5q-23 -14 -25 -14q-6 -1 -18.5 2t-18.5 2q-8 0 -25.5 -4t-25.5 -4t-15 2t-16.5 6.5t-13.5 5.5q-1 4 -4.5 14.5t-5.5 17t-3.5 16t-0.5 18.5q0 6 3 17.5t3 17.5q-1 4 -4.5 15.5t-3.5 18.5q-2 9 -2 19t1 23.5t1 21.5 q-1 6 -7 60t-6 83z" />
<glyph unicode="}" horiz-adv-x="600" d="M72 1407.5q-2 7.5 4 13.5q2 3 5.5 6.5t-3.5 11.5q-1 2 -2 3q14 -3 26 0q2 6 -4.5 8.5t-3.5 9.5q107 51 195 13q70 -24 124.5 -84t81 -154t-2.5 -213q-16 -68 -55.5 -170t-39.5 -141q0 -13 13 -20.5t37.5 -14t33.5 -10.5q19 -5 22 -9.5t-3 -9t-6.5 -11t10.5 -15.5 q15 -15 -2.5 -28t-46 -27.5t-31.5 -28.5q-3 -1 -1 -11t2 -13t5 -13.5t6.5 -14.5t7 -15l7.5 -15q29 -61 46.5 -163.5t10.5 -185.5q-12 -106 -81 -179.5t-181 -106.5q-105 -31 -151 -16q-22 6 -7 20q10 14 7 18.5t-11 14.5t-8 20q4 13 22 18t40 8t50.5 28.5t49.5 74.5 q16 39 15.5 80.5t-16 79.5t-33 78.5t-37.5 78t-29 78t-7 78.5t28 79.5t77 80.5q-44 22 -78.5 69.5t-40.5 106.5q-5 65 11 135t39 118.5t41.5 96t16.5 72.5q-1 70 -34 100.5t-97 40.5q-2 3 -8 9t-9 9.5t-5 11z" />
<glyph unicode="~" horiz-adv-x="901" d="M72 563q3 53 23 112l5 11q-1 7 -10 1q-7 -4 -7 1q0 1 1 4q-10 18 27 68t82 74q139 67 338 -49q6 -3 40 -23q71 -35 129 16q12 11 27.5 25.5t22 20t15.5 10t19 4.5q8 0 9.5 -10t0.5 -22t5 -20.5t22 -5.5q15 0 17.5 -19.5t7.5 -21.5q8 -4 -1 -27.5t-31 -55.5t-51 -64 t-67.5 -55.5t-74.5 -26.5q-54 -6 -91.5 3.5t-115.5 47.5q-64 33 -103.5 41.5t-70.5 -4.5q-53 -26 -88 -98q-5 -4 -11 0.5t-11.5 12.5t-8.5 9q-3 -1 -6.5 -2t-5.5 -1.5t-4.5 -1t-4 -1.5t-3 -2.5t-1.5 -3.5q-6 2 -9 5t-3.5 5.5t-1.5 9.5t-2 11q-9 -5 -8 22z" />
<glyph unicode="&#xa1;" horiz-adv-x="434" d="M44.5 951.5q-0.5 51.5 2.5 68.5t11 30t18 20.5t23.5 12t25 6t26 1.5t22.5 -1t19 -3l11 -1q90 -12 168 -61q24 -22 21.5 -58t-10.5 -76t-3 -44q-5 -2 -8.5 -7t0.5 -10q-41 -25 -97.5 -26.5t-107 13.5t-90.5 40q0 9 -14 16.5t-15 16.5q-2 11 -2.5 62.5zM67 -165 q-5 52 3 138q13 189 10 469q-1 62 7 140.5t7 101.5q0 18 45.5 33t75.5 12q11 -2 25.5 -21.5t13.5 -37.5q13 4 57 -11q11 -3 22 -26.5t15 -42.5q4 -14 5 -31.5t1.5 -42t1.5 -33.5q5 -132 4 -157q-8 -108 -7.5 -220t16.5 -210q19 -121 -74 -142q-1 0 -43.5 -7.5t-84.5 -5 t-69 22.5q-26 19 -31 71z" />
<glyph unicode="&#xa2;" horiz-adv-x="706" d="M85 830.5q51 203.5 179 306.5q-7 30 -7 64t3 55t11 59.5t10 52.5q1 12 5.5 14t9.5 -1.5t14.5 -2t19.5 12.5q4 0 17.5 2.5t14.5 -0.5q24 -21 29.5 -59t-0.5 -105t-6 -84q21 -6 49.5 -30t40.5 -30q2 33 25 129q0 4 2.5 4.5t6 -1t9 -0.5t10.5 6q6 10 35 -9t45 -40 q20 -33 23 -96t-1.5 -112.5t5.5 -93.5q-6 -17 -9.5 -54.5t-7 -63t-10.5 -23.5q-12 2 -25.5 -4.5t-19.5 -3.5q-21 10 -31 53q-2 8 -8.5 0.5t-7.5 -0.5q-4 11 -13 33.5t-14 37t-10 35.5t-6 40q-74 -81 -110 -204.5t-5 -260.5q12 -45 37 -80t62 -31q30 1 69.5 42.5t61.5 82.5 q5 9 14.5 34.5t18 39.5t16.5 10q18 -59 -8 -135q-28 -83 -111 -162q-51 -51 -121 -72q28 -155 -4 -229q0 -1 -1 -1.5t-4 -1t-6.5 -0.5t-8 -1t-8.5 -1.5t-8.5 -1.5t-8.5 -3q2 -2 0 -5t-11 -6.5t-26 -3.5q5 6 -0.5 9t-18.5 5.5t-18 6.5q-9 22 -4.5 108.5t0.5 114.5 q-20 4 -36 12t-23.5 15t-26.5 26q-63 60 -92 174q-58 224 -7 427.5z" />
<glyph unicode="&#xa3;" horiz-adv-x="892" d="M25 -12q-12 9 4.5 40t7.5 42q-11 8 6.5 16.5t54 19t47.5 15.5q50 73 66.5 183.5t-12.5 234.5q-15 4 -45 11t-39.5 10t-27 11t-29 20.5t-25.5 31.5q-9 6 -3 22.5t1 30.5q-5 11 15.5 21t55 14.5t68.5 1.5q-3 28 -19 91.5t-18 98.5q-8 179 143 322q53 49 98 78t107 45 q36 10 71.5 -15t55.5 -61q5 10 7.5 27.5t4.5 29.5t5 14q16 0 30.5 -2t27.5 -8.5t21.5 -10.5t21 -15.5t17 -15.5t17.5 -18.5t16 -17.5q1 -1 1 -4t1 -4q2 -2 10 -2q3 0 4 -4t2 -10t3 -8q8 -15 14 -37q2 -9 15 -44t14 -57q8 -85 -19 -135q-6 -11 -17.5 -23t-17.5 -12 q-15 7 -34.5 -6.5t-30.5 -13.5q-4 0 -5.5 -2t-1.5 -6v-8t-4 -8t-12 -7q-11 -3 -26 -12t-25 -17t-22 -12t-15 4q-25 142 -12 252q-18 2 -69 -32.5t-74 -81.5q-22 -43 -23.5 -116.5t19.5 -129.5q12 1 66 6t88 4.5t65 -8.5q15 -4 41 -3.5t32 -2.5q52 -18 56 -19q5 0 3.5 -4 t-4.5 -10.5t3 -13.5q4 -4 0 -22t0 -23q3 -4 -3 -11t-15 -16t-11 -16q-27 -12 -66 -20t-67 -10.5t-82 -5.5t-74 -5q8 -113 0 -197q-7 -89 -71 -195q27 -6 67 -20t73.5 -21t72.5 -4q26 3 57 21q51 33 113 135q17 29 40 42q20 12 19 -12v-7q-1 -6 2 -39.5t-2 -38.5 q-4 -11 -8 -30t-8.5 -31.5t-12.5 -18.5q-7 -3 -2 -9.5t2 -11.5q-21 -38 -57 -69q-3 -3 1 -4t9.5 -1.5t8 -3t-2.5 -8.5q-32 -41 -84.5 -59.5t-94.5 -22.5t-119 12t-105.5 24t-106.5 34q-18 5 -26 8q-23 3 -55.5 -7t-57 -20t-56.5 -12t-54 15z" />
<glyph unicode="&#xa4;" horiz-adv-x="999" d="M51 188q22 39 72 99.5t94 101.5q-49 103 -45 221q2 102 14 176t47 164q-8 4 -10 8q-6 7 -43 44t-64.5 71.5t-31.5 56.5q-11 13 8.5 35.5t49.5 50.5t36 46q80 -49 156 -164q62 58 198 71q70 4 148 -36q31 51 69 94.5t64 56.5q5 3 12 -9t14.5 -28t19.5 -29.5t24 -13.5 q8 0 18.5 3t22 7.5t17.5 7.5q13 6 18 8t9 1.5t1 -8t-13 -21.5q-35 -49 -170 -203q6 -18 17 -47t15 -42t11 -40t13 -63q45 -262 -37 -449q42 -38 74.5 -83.5t40.5 -67.5q16 -30 -8.5 -66.5t-49.5 -36.5q-9 0 -18 2t-15 4.5t-13 7t-10 7.5t-9.5 9t-8.5 7q-5 -5 -3 -9t7 -10.5 t5 -10.5q-22 -4 -32.5 1.5t-31.5 26.5q-19 23 -53 68q-40 -20 -119 -35q-121 -21 -235 74q-8 -13 -25 -41t-29 -47.5t-26.5 -42.5t-26 -38t-18.5 -22q-9 0 -21 17.5t-21.5 34t-24 23t-28.5 -14.5q-4 8 -33 31t-22 42zM432 668q0 -87 20.5 -154.5t57.5 -87.5q38 -23 81 3 t64 60q33 57 39 144q9 80 -5 161t-45 133t-69 50q-38 -1 -68 -36.5t-45 -87.5t-22.5 -100t-7.5 -85z" />
<glyph unicode="&#xa5;" horiz-adv-x="821" d="M21.5 1283.5q2.5 17.5 1.5 21.5q-1 12 12.5 22t15.5 12q11 8 21.5 9t25.5 -7t22 -12.5t26.5 -21t23.5 -19.5q6 -5 24.5 -9t40.5 -16.5t44 -39.5q11 -14 22 -37.5t14 -28.5q97 -103 152 -313q21 58 64 207t65 206q-4 4 -0.5 15.5t2.5 15.5q-1 3 -6.5 10.5t-3.5 14.5 q3 4 15 2.5t20 1.5q3 5 -7 11.5t-6 10.5q49 5 84 -18q43 -30 61 -82.5t3 -118.5q-17 -75 -88.5 -247t-91.5 -252q14 -1 71 -0.5t93 -5t67 -21.5q-23 -83 -102 -92q-20 -2 -68 -0.5t-68 -1.5q0 -7 -0.5 -28t0.5 -26q136 0 224 -16q-3 -12 1 -24.5t4 -21t-12 -17.5 q-36 -25 -83.5 -33t-126.5 -10q-4 -17 -5.5 -103.5t-1.5 -91.5q-1 -14 -14 -38t-22 -32q-36 -36 -46 -41q-1 -2 -1 -4q-1 -8 -70 -18h-2q-4 0 -23 2t-24 2q-3 0 -18 -4t-21 0q-12 4 -17 15t-7.5 30t-4.5 27q-15 26 -16.5 73.5t3 105.5t1.5 87q-24 4 -57.5 6t-58.5 3 t-47.5 3.5t-33.5 8t-8 14.5q1 5 -5 15.5t-9 17.5t4 14q19 6 52.5 18t47.5 15.5t44.5 6.5t70.5 1q6 14 6 55q-17 2 -69 6t-80.5 9t-28.5 14q0 8 -7 13.5t-15.5 7t-15 5.5t-5.5 11q1 2 3.5 5.5t4.5 5.5t4.5 5t4.5 4.5t5 3.5t6 2q11 2 38 7t40 7t44 4t50 -1q-4 41 -40 126 t-99 220t-92 202q-5 15 -9 47.5t-11 45.5q-4 4 -1.5 21.5z" />
<glyph unicode="&#xa6;" horiz-adv-x="446" d="M55 586q66 51 171 40.5t165 -61.5q1 -7 1.5 -18t2 -18.5t6.5 -12.5q-4 -28 -5.5 -89.5t-0.5 -114.5t0 -97q-1 -13 -2 -39.5t-2 -40t-5.5 -31.5t-12.5 -32q-18 -35 -45 -54q-6 -1 -12.5 3t-12.5 4q-5 0 -8.5 -5.5t-7.5 -5.5q-43 9 -107 -22q-5 -2 -17 -12t-18 -11 q-22 -2 -47 23q-3 18 -14 55.5t-12 58.5q-1 32 -5.5 220.5t-11.5 259.5zM70.5 1289.5q-0.5 14.5 2 33t9.5 31.5q24 17 51 -2q47 4 84 -7.5t86 -40.5t64 -36q1 -2 17 -29.5t15 -44.5q0 -4 -1.5 -6.5t-4 -5t-4.5 -6.5q-5 -7 -8 -14t-5 -17.5t-3 -16t-2 -21t-2 -20.5 q-9 -83 -9 -149q0 -8 5.5 -41t3.5 -53q-1 -3 -4.5 -11t-5 -12.5t0.5 -11.5q-24 -17 -30 -45h-27l-3 -12t-3 -15q-3 -2 -26.5 -7.5t-28.5 -18.5q0 3 -14 1l-13 -3q-1 0 -5.5 3t-6.5 3t-6.5 -4t-6.5 -4q-8 6 -10 6q-2 -1 -11 -3.5t-13 -3t-15 0.5q-6 1 -18 6.5t-21 5.5 q-13 69 -19.5 133.5t-8 106t-2.5 128.5q0 18 2.5 61t1.5 64q0 12 -2.5 37.5t-3 40z" />
<glyph unicode="&#xa7;" horiz-adv-x="790" d="M61 426q-14 71 2.5 146.5t47.5 113.5q37 58 92 80q-36 62 -47 92q-32 81 -32 137t26 129q16 43 45.5 85.5t59 70.5t53.5 45.5t32 17.5q39 0 90 -26q16 -6 34.5 -17t29.5 -18l10 -8q0 9 1 21t1 20t-2 16q-5 23 -1.5 26.5t15.5 0.5t27 8q5 5 20 9t23 -3q3 -4 15.5 -4.5 t19.5 -15.5q1 -7 15.5 -69.5t16.5 -98.5q1 -16 -5 -66.5t1 -75.5q-9 -5 -33 -45t-32 -45q-59 48 -88 146q-32 0 -76 -40t-35 -95q7 -38 40 -82t77 -86.5t88.5 -86t82 -94t50.5 -96.5q38 -152 2.5 -249t-131.5 -138q55 -71 76 -131q44 -114 12.5 -211.5t-141.5 -157.5 q-58 -29 -135 -31.5t-148 33.5q-81 45 -108 129.5t6 169.5q6 17 13 -6q4 -14 6 -14l1 2q5 14 13.5 16.5t11.5 18.5q3 17 15 11t13 -26q0 -55 23 -98t53 -63q40 -26 83.5 -16.5t62.5 46.5q7 14 8.5 29t-3.5 32.5t-11 33.5t-20.5 37t-25 36.5t-32 39t-34 37.5t-38.5 39.5 t-37.5 37t-38.5 37.5q-50 47 -96.5 116t-63.5 148zM274.5 537q2.5 -64 38.5 -111q32 -40 133 -137q58 31 33 127q-6 24 -28.5 53t-73 83t-72.5 79q-33 -30 -30.5 -94z" />
<glyph unicode="&#xa8;" horiz-adv-x="1228" d="M33 1450q-4 32 10.5 57.5t43.5 53t40 43.5h16q2 -5 4 -7.5t6 -1.5t6.5 2.5t10.5 6.5q17 -5 34 -14t36 -21.5t30 -18.5q6 -4 9 -15.5t4 -12.5q32 -14 33.5 -40.5t-14.5 -49.5t-42 -48q-35 -27 -62 -30t-71 10q-5 2 -13.5 9.5t-17 11t-18.5 1.5l-8 13q-7 13 -19 12 q-15 29 15 82q-18 2 -33 -43zM412 1452v41q10 25 46.5 55.5t45.5 44.5q8 2 10.5 2t7.5 -3t6 -3q24 8 44.5 0.5t44.5 -27t32 -24.5q1 -2 5.5 -11.5t4.5 -15.5q34 -23 31.5 -55t-38 -55.5t-72.5 -9.5q-14 -13 -29 -14.5t-39 3.5q-6 2 -16 11.5t-11 9.5q-6 -2 -11.5 -3 t-10.5 0.5t-9 2.5t-9 6t-7.5 7t-7 9t-6 9t-6.5 10.5t-6 9.5zM633 1427q37 8 37 58q-2 0 -6.5 2t-6.5 2q-2 -6 -16 -26.5t-8 -35.5z" />
<glyph unicode="&#xa9;" horiz-adv-x="1353" d="M82.5 653.5q7.5 154.5 75.5 314.5t188 279q90 87 205 160q11 9 28.5 24t31.5 26t30 18q23 10 34 6t25.5 -16.5t27 -26t39 -22.5t60.5 -5q80 -21 185 -125t170 -252q54 -117 72.5 -261.5t0.5 -284.5t-84 -263.5t-172 -191.5q-104 -67 -240.5 -79t-272 33.5t-232.5 139.5 q-91 89 -135 230.5t-36.5 296zM289 502q9 -85 41 -157t79.5 -121t107.5 -81t123.5 -43.5t129 -3t122.5 36.5t105 79t76 120q68 177 60.5 341.5t-66 299t-132.5 222.5t-138 112q-64 -39 -105 -65.5t-104.5 -75t-104 -91.5t-86.5 -107.5t-70 -130.5t-36 -153t-2 -182zM438 510 q-30 174 24 334.5t161 259.5q32 27 36 33q6 -11 16.5 -8t10.5 12q19 -5 63 -31.5t54 -30.5q1 5 5 18.5t6.5 28t0.5 29.5q5 0 17.5 -5.5t15.5 -6.5l14 2q18 -5 56 -37q38 -38 43 -53q4 -17 8 -78q0 -112 -13 -146q-14 -1 -22.5 -10t-16 -23.5t-12.5 -19.5q-16 -10 -65 -18 q-14 30 -22.5 87t-8.5 99q-50 -22 -93 -136t-32 -265q5 -63 34.5 -133t63.5 -70q49 0 95 70.5t61 150.5q8 -16 18 -74q0 -5 -4 -14.5t-4 -15.5q-1 -6 -1 -20.5t-1 -20.5q-1 -4 -4 -10.5t-4 -8.5q0 -2 1.5 -8.5t0.5 -9.5q0 -7 -12 -31q0 -8 -8 -28q-2 -9 -12.5 -22t-12.5 -19 q-2 -3 -5.5 -13.5t-8.5 -13.5q-44 -54 -127.5 -65t-147.5 32q-29 20 -58 50.5t-63 95.5t-47 143z" />
<glyph unicode="&#xab;" horiz-adv-x="878" d="M39 748q23 40 97 116t155.5 154.5t103.5 103.5q9 11 16 -3q5 -9 3 -23q-1 -5 -7 -13.5t-4 -11t15 -2.5q10 3 15 -14q14 -48 -18 -133q-36 -92 -112 -170q30 -58 66 -113q15 -22 65 -119q0 -1 10.5 -20.5t16 -31.5t11.5 -28t5 -24q0 -3 5 -18q13 -39 4 -39q-2 0 -7 3 q-2 2 -5.5 -1.5l-6.5 -6.5t-9 1t-14 18q-1 0 -0.5 -6.5t1.5 -14.5t-2 -13.5t-11 -4.5q-10 1 -33.5 -4t-43.5 -9t-42 -2t-34 13q-21 24 -90 119.5t-87 126.5q-5 10 -20.5 32t-20.5 31q-41 52 -22 107zM401 766q4 11 9.5 21.5t10 19t14 19.5t15.5 17.5t20.5 20.5t22 21.5 t28.5 26.5t32 30q13 12 27 27.5t24 28.5t19.5 26t17.5 21.5t15 14t13 4.5t11 -9q47 65 57 70q8 4 7 -12q0 -4 -1 -11q-2 -5 7.5 -8.5t21.5 -6t21.5 -7t7.5 -9.5q22 -27 -35 -137.5t-104 -153.5q6 -15 53 -100q4 -8 48.5 -77t60.5 -115t5 -87q-9 -2 -38 -27t-41 -26 q-29 0 -86.5 17.5t-71.5 37.5q-11 13 -35 48t-60.5 90t-45.5 69q-73 120 -50 156z" />
<glyph unicode="&#xad;" horiz-adv-x="696" d="M57 834q20 4 53.5 -3.5t47.5 -7.5q52 0 104 6q177 0 266 -12q13 1 16.5 -2.5t0 -8.5t-5.5 -9.5t0 -5.5q17 -2 27.5 -3.5t21.5 -5t14.5 -8.5t-0.5 -12q16 -1 19 -4.5t-1.5 -8t-3 -11t14.5 -11.5q8 -8 10.5 -25t-13.5 -34t-55 -17q-21 -6 -55 -9t-71.5 -4t-68 -0.5t-59.5 1 t-32 0.5q-68 -2 -111.5 6t-60.5 37q-28 16 -42 61t-16 91z" />
<glyph unicode="&#xae;" horiz-adv-x="892" d="M77.5 985q17.5 123 92.5 229q42 59 110 98.5t129.5 53t118.5 12.5q8 8 11 8q31 0 59 -8.5t45.5 -17.5t37 -28.5t27 -28.5t22 -30t15.5 -22q27 -43 52 -121q23 -67 17.5 -131t-42.5 -139q-42 -96 -118 -164.5t-159 -95.5t-168.5 -7t-144.5 91q-2 3 -6.5 12t-9.5 15.5 t-12 11.5q0 4 -1 13.5t-1 13.5q-5 2 -9.5 5t-8 8t-5.5 9t-4.5 11.5t-3.5 11t-3.5 12t-2.5 10.5q-55 45 -37.5 168zM253 980q-11 -131 34 -192q27 -37 94.5 -55.5t116.5 -13.5q72 8 113.5 32t76.5 89q8 16 13 34t5.5 41.5t0.5 39.5t-5.5 45t-7 38.5t-9 40.5t-7.5 33 q-11 48 -53 116t-60 79q-6 -2 -38.5 -7.5t-60 -13t-68.5 -34.5t-76 -70q-58 -71 -69 -202zM352 1120q0 25 20.5 49.5t35.5 28.5q148 36 200 -41q13 -16 15 -56.5t-11 -76.5q-12 -29 -47 -49t-59 -27q32 -4 46.5 -20.5t20 -39.5t11.5 -30q7 -8 24 -12t29 -2q0 -6 -14 -27 q0 -3 -3 -9.5t-8 -6.5q-3 0 -19.5 -8.5t-19.5 -8.5q-34 -4 -53 22t-29 61.5t-16 41.5q-1 -4 0.5 -37t2 -59.5t-2.5 -34.5q-24 -10 -63.5 -4.5t-51.5 12.5l2 9l3 120q0 13 -1.5 41t-1.5 41q1 11 -4.5 62t-5.5 61zM475 969q12 6 39 55q6 9 10.5 32t3.5 38q-8 71 -47 71 q-1 -17 -2 -77t-2 -78q0 -37 -2 -41z" />
<glyph unicode="&#xaf;" horiz-adv-x="1228" d="M141 1507q8 2 10.5 2t11 -3t9.5 -3q13 17 35 15q7 6 14.5 10t19.5 6l18 3t23 3t21 2q68 11 139 3t127 -1q17 2 51.5 3t51.5 3q1 0 9.5 8.5t18.5 8.5q2 -3 6.5 -9.5t5 -8.5t2 -8.5t-2.5 -8.5q11 6 35 11t30 7q1 -4 -0.5 -8t0.5 -6q4 -1 9 0.5t6 -0.5q2 -5 0.5 -11t-0.5 -9 q3 -1 5.5 1t4.5 1q-10 -20 4 -23q-7 -6 -10 -14t-5 -21t-4 -20q-8 -3 -26.5 -18.5t-36.5 -10.5q-4 -7 -23.5 -7t-23.5 -11q-26 -4 -86 -8t-94 -7q-65 19 -107 2q-18 5 -55.5 5t-52.5 4q-3 0 -6 -3.5t-5 -3.5q-5 5 -16.5 9t-15.5 6q-3 13 -23.5 23t-24.5 14q-2 11 -15.5 23 t-14.5 26q-1 1 -6 4t-7 5t-4 6t-2 9zM227 1491q2 -11 29 -4q0 19 -29 4zM262 1495q9 -13 31 -4q-10 10 -31 10q2 -1 2 -3.5t-2 -2.5zM295 1509q-9 -6 0.5 -14.5t19.5 -1.5q-2 5 -10 9.5t-10 6.5zM358 1503q-1 -7 3.5 -8.5t13.5 -1.5q0 6 -2 10h-15zM422 1503q1 -5 7.5 -7 t13 -1t12.5 0q-3 7 -15 9.5t-18 -1.5z" />
<glyph unicode="&#xb0;" horiz-adv-x="548" d="M37 1092q-11 63 45 133q66 90 170 143q41 20 82 31q4 1 12 2.5t13.5 3.5t9.5 6q8 7 12.5 -0.5t14 -21.5t26.5 -17q14 -9 14.5 -22t9.5 -23q29 0 43.5 -26.5t20.5 -83.5q6 -46 -2 -109.5t-35 -101.5q-58 -79 -135 -97q-22 -2 -30.5 -2t-32 2.5t-37.5 3.5q-4 1 -15 0t-16 0 q-27 4 -57 24.5t-52 43.5l-23 53q-23 53 -38 58zM240 1139q-5 -25 13.5 -51t53 -35.5t82.5 14.5q35 34 41 78.5t-5.5 75.5t-27.5 43q-40 -19 -63.5 -31.5t-55 -39.5t-38.5 -54z" />
<glyph unicode="&#xb1;" horiz-adv-x="878" d="M43 735q1 26 2 36t5 28t12.5 28.5t23.5 18.5q15 27 53.5 32.5t102.5 3.5q11 -1 16 -1l51 2q4 74 4 96q0 205 101 233q19 4 37 29q3 4 12.5 -2t15.5 0q12 6 19.5 -2.5t7.5 -28.5q4 -1 12.5 5.5t16 11t10.5 0.5q17 -23 20.5 -73.5t0.5 -115t1 -151.5q220 0 203 -19 q-14 -18 -1 -29t36 -16t37 -13t2 -20q-13 -5 -14.5 -11.5t3 -11t1.5 -7.5t-19 -4q1 -2 3.5 -6.5t3.5 -6.5t2.5 -6t2 -6t0 -5t-2 -4.5t-4 -3.5t-7 -3t-10.5 -2q-1 0 -10 -5t-22.5 -7.5t-29.5 -0.5q-27 -4 -176 -4q-2 -31 -2 -90q3 -51 -1.5 -77t-20.5 -72q-6 -20 -20.5 -18 t-57.5 24q-3 0 -24.5 -5.5t-41 -10t-40 -4t-27.5 9.5q-3 9 -15 -7q-16 -19 -22 -5q-12 28 -4 190l4 67q-33 2 -60 2q-61 7 -104 7q-30 0 -58 8.5t-28 21.5zM74 299q9 7 26 -4q6 -3 9.5 0t2 10t3 15.5t11.5 16t27.5 11t51.5 0.5q45 -2 127 0t112 4q27 -1 105 7.5t125 2.5 q11 -2 34.5 0.5t41 2t24.5 -10.5q25 -13 27 -31t1.5 -31t16.5 -18q31 -17 -17 -48q-8 -5 -24 -14q-47 -27 -46 -38l1 -4q13 -18 -60 -26q-132 -14 -354 4q-110 8 -141 20q-73 25 -102 83q-17 36 -2 48z" />
<glyph unicode="&#xb4;" horiz-adv-x="1228" d="M295 1311q1 10 8.5 25t5.5 28q55 54 148.5 111t128.5 84q30 28 102.5 60.5t81.5 37.5h8q-3 -10 -0.5 -18.5t4.5 -10.5t-4 -8q1 -4 10 -16t3 -27q7 -1 17.5 6.5t14.5 3.5q-3 -11 3 -21.5t10 -14.5t-5 -13q2 -11 1 -14.5t-7 -8.5t-8 -8q-2 -4 -0.5 -5.5t3 -2t5.5 -0.5 q-1 -4 -3.5 -6.5t-5 -3.5t-7 -2t-6.5 -2q-28 -45 -56.5 -68t-84.5 -50t-82 -42q-45 -27 -52 -68q-19 -26 -67.5 -26.5t-91 16t-50.5 33.5q2 9 -10 17t-14 14z" />
<glyph unicode="&#xb6;" horiz-adv-x="765" d="M37.5 859.5q11.5 167.5 77.5 287.5q50 95 155 147q20 10 84 26.5t88 18.5q21 3 89 7t81 6q28 -7 46.5 -34t24 -60.5t8 -69.5t-0.5 -62q0 -56 4 -185.5t4 -186.5q0 -19 -1.5 -54t-1.5 -62.5t3 -51.5q4 -49 4.5 -103.5t-1 -124t-1.5 -98.5q0 -17 2.5 -79.5t2.5 -99 t-3 -75.5q10 -10 11.5 -37t-17.5 -59.5t-61 -44.5q-7 -2 -14.5 -2.5t-15.5 0.5t-29.5 2t-47.5 2q-13 0 -40.5 4.5t-43.5 5.5q-36 3 -91.5 -3t-94.5 -5.5t-61 16.5q-31 12 -43.5 38t10.5 52q13 13 71 11.5t89 1.5q7 59 10 208.5t6 196.5q-77 -8 -151.5 40.5t-102.5 111.5 q-60 147 -48.5 314.5zM175 807.5q0 -68.5 15 -131.5t55.5 -102t102.5 -39q2 94 3 319t3 315q-67 -19 -107 -73t-59 -150q-13 -70 -13 -138.5zM353.5 95q-0.5 -83 2.5 -101q16 -7 18 89q1 103 -12 118q-8 -23 -8.5 -106zM432 802.5q0 -98.5 2.5 -203.5t1.5 -110 q7 10 9.5 210.5t-7.5 201.5q-6 0 -6 -98.5zM433.5 1115q0.5 -36 2 -71.5t3 -66t1.5 -35.5q7 15 8.5 126t-6.5 130q-5 0 -7 -23.5t-1.5 -59.5z" />
<glyph unicode="&#xb7;" horiz-adv-x="468" d="M53.5 693.5q-2.5 31.5 1.5 51.5q8 39 52 69.5t109 37.5t142 -25q50 -28 64 -88q1 -8 -4.5 -25t-7.5 -26q-3 -8 -2 -25t-2 -24q-1 -2 -13 -14q-2 -10 -4 -24.5t-4 -24.5t-6 -17q-9 -27 -29 -27q-4 0 -6.5 1.5t-3.5 3.5l-2.5 5t-3.5 5q-6 0 -6 -15q-19 -13 -57.5 -25.5 t-49.5 -10.5q-51 8 -76 36q-7 33 -39 54q-4 12 -22.5 29t-22.5 26q-5 21 -7.5 52.5z" />
<glyph unicode="&#xb8;" horiz-adv-x="1228" d="M310 -384.5q1 43.5 24 60.5q11 0 28.5 -5.5t26.5 -7.5t23 5q2 -10 15 -13.5t17 -6.5q17 -48 66 -50q43 -1 65 29q16 23 3 51q-8 18 -27 37q-12 13 -40.5 28t-39.5 26q-6 6 -13 22t-16 21q71 186 140 284q20 -4 49 -4q3 -17 43 -34.5t41 -37.5q-6 -32 -15 -58t-24.5 -61 t-22.5 -55q58 -18 96.5 -55t47.5 -90q8 -47 3 -86.5t-21 -66.5t-40 -49t-53 -33t-61 -19t-64 -8t-61 2q-63 5 -115 34.5t-66 75.5q-10 21 -9 64.5z" />
<glyph unicode="&#xbb;" horiz-adv-x="882" d="M63 1000q-2 4 3 8.5t18 11.5q41 21 129.5 10t101.5 -4q14 7 67.5 -59.5t84.5 -122.5q55 -118 41 -142q-4 -6 2.5 -31t-10.5 -40q-27 -22 -97.5 -92.5t-128.5 -121t-88 -55.5q-7 -6 -11.5 -1.5t-6 12.5t-5 12.5t-7.5 -0.5q-6 -4 -8 -3.5t-7.5 6t-9.5 7.5q-9 -9 -28 -5 t-19 13q8 11 23 40.5t34 62.5q14 24 34 53t34.5 48t35.5 46t27 35q-32 78 -85.5 168t-86.5 117q-7 5 -17 11t-14 9t-6 7zM429 1039.5q-4 11.5 0.5 15.5t11 5t14 3.5t10.5 7.5q10 6 41 3.5t74.5 -21t62.5 -41.5q6 -9 10.5 -13t15.5 -8t27 -4t60.5 -80t77.5 -149 q36 -58 -27 -129q-5 -6 -60.5 -68.5t-84.5 -91.5q-22 -22 -51.5 -45.5t-60.5 -46.5t-34 -25q-2 1 -3.5 4.5t-4.5 5.5q-11 -4 -23 -6q-12 -4 -17.5 7.5t-12.5 3.5q-9 -5 -10 -1.5t2 12.5q0 2 0.5 4t1 5t0.5 4v4q-10 -4 -9 1q0 3 31 44l4 6q14 19 -0.5 29.5t-3.5 22.5 q20 18 37.5 36.5t29 32t25 32.5t19 27.5t17 27t13.5 22.5q-19 44 -82.5 173.5t-83.5 158.5q-13 20 -17 31.5z" />
<glyph unicode="&#xbc;" horiz-adv-x="1169" d="M4 1161q1 13 29.5 22.5t34.5 20.5q42 10 114 70q82 60 72 137q49 13 105.5 -6.5t95.5 -67.5t32 -108q-4 -28 -4 -35q-3 -43 -12 -94q-1 -10 -4 -28t-4 -25q-2 -17 -5 -70t-9 -91.5t-19 -60.5q-23 -24 -69.5 -30.5t-92.5 -6.5t-59 -6q-13 6 -17 32t-10 32q-4 25 -7 65.5 t-4 72t-2 77t-1 57.5q-13 -2 -32.5 -9t-33 -12t-34.5 -7.5t-37 4.5q-4 7 -4 19.5t-4 19.5q-1 4 -10 12.5t-9 15.5zM122 66q22 82 70 171l3 5q19 34 63 115t68 125t63 111.5t76 125.5q23 36 90 147.5t104 163.5q22 33 70 110t74 115q45 66 84 103q12 12 36 32t33 31 q7 6 14.5 19t10.5 16q9 7 25.5 10.5t23.5 6.5q24 -19 43 -103q6 -36 6 -39q-2 -20 -25 -46t-26 -40q-5 -29 -42.5 -91.5t-93 -149t-83.5 -138.5q-52 -97 -175.5 -302t-178.5 -308q-4 -7 -31 -51t-33 -55q-4 -7 -18 -32.5t-21 -37t-19 -28.5t-21.5 -23t-18.5 -4q-5 3 15 36 q13 20 6 19h-3q-19 -16 -48.5 -69t-53.5 -64q-3 -2 -4 3q-1 4 -1 15q-2 20 -5 20l-6 -5q-7 -12 -13.5 -16.5t-16 -7.5t-16.5 -7q-8 -3 -5 9q1 5 7 20q12 27 5 27q-1 0 -4 -1q-6 -3 -8.5 2.5t-2.5 12.5t-3 11t-11 -1q-16 -9 -3 37zM580 319q3 5 58 72t115 139.5t64 77.5 q13 15 16 29t7 18q13 19 70 11t81 -29v-23q12 -14 17 -30t5.5 -29t0.5 -39.5t2 -48.5q7 -78 -6 -162q30 0 43 -4.5t13.5 -12.5t-1.5 -20l13 -29q4 -14 -3 -16q0 -4 2 -10.5t2 -11.5q26 -13 3 -23q-21 -8 -64 -8q0 -10 2 -48q8 -120 -9 -124q-7 -2 -18 10 q-14 -19 -79.5 -16.5t-92.5 18.5q-6 20 2 87t-6 79q-27 2 -85 -1.5t-95.5 -2t-44.5 15.5q-39 72 -12 131zM733 313h96v154q-5 -15 -49.5 -72.5t-46.5 -81.5z" />
<glyph unicode="&#xbd;" horiz-adv-x="1112" d="M63 1159q1 13 29.5 22.5t34.5 20.5q43 11 115 70q81 59 71 137q49 13 106 -6.5t96 -67.5t32 -108q-4 -28 -4 -35q-2 -35 -13 -94q-1 -10 -4 -28.5t-4 -25.5q-2 -17 -5 -69.5t-9 -91t-19 -60.5q-23 -24 -69.5 -30.5t-92.5 -6.5t-59 -6q-13 6 -16.5 32t-9.5 32 q-8 47 -15 272q-13 -2 -32.5 -9t-33 -12t-34.5 -7.5t-37 4.5q-4 7 -4 19t-4 19q-1 4 -10 13t-9 16zM79 -2q22 82 70 171l3 5q19 34 63 115t68 125t63 111.5t76 125.5q24 37 90.5 148.5t103.5 163.5q22 33 70 110t74 115q43 64 84 102q11 11 35 32t34 32q7 6 14.5 19t10.5 16 q9 7 25.5 10t23.5 6q24 -19 43 -102q6 -36 6 -39q-2 -20 -25 -46t-26 -40q-5 -29 -42.5 -91.5t-93 -149t-83.5 -138.5q-52 -97 -175.5 -302.5t-178.5 -308.5q-4 -7 -31 -51t-33 -55q-4 -7 -18 -32.5t-21 -37t-19 -28.5t-21.5 -23t-18.5 -4q-5 3 15 36q13 20 6 19h-3 q-19 -16 -48.5 -69t-53.5 -64q-3 -2 -4 3q-1 4 -1 15q-2 20 -5 20l-6 -5q-7 -12 -13.5 -16.5t-16 -7.5t-16.5 -7q-8 -3 -5 9q1 6 7 20q11 28 4 28q-1 0 -4 -1q-6 -3 -8 2t-2 12t-3 11t-11 -1q-16 -9 -3 37zM578.5 36.5q0.5 7.5 2 17.5t1.5 12q6 43 37.5 94t65.5 89.5 t63 83.5t32 79q9 46 -14 51q-7 1 -14.5 -2.5t-16.5 -11t-15 -13t-15.5 -15.5t-10.5 -11q-18 -18 -25.5 -18t-27.5 16q-3 2 -8.5 6t-8.5 6.5t-5.5 7.5t-2.5 12t5 23t6 26q24 28 38 42.5t41 35.5t58 29t67 4q48 -3 101 -33q36 -22 60 -78.5t18 -109.5q-11 -95 -162 -279 q50 -18 89 -17t62 32q4 -4 9 2.5t10 12.5t8 1q-8 -9 -6 -25t14 -20q-16 -14 4 -39q-7 -12 -2.5 -34t-3.5 -36q-24 -18 -71.5 -22.5t-90 0.5t-82.5 14q-17 4 -61.5 18.5t-64.5 14.5q-8 1 -30.5 -2t-34.5 0.5t-17 19.5q-2 9 -1.5 16.5z" />
<glyph unicode="&#xbe;" horiz-adv-x="1169" d="M52 909q-2 35 7.5 56t24.5 20q7 -1 41.5 -0.5t48.5 -1.5q28 -5 42.5 -26t16.5 -43.5t9 -43t22 -24.5q12 -3 24.5 32.5t10.5 61.5q-3 53 -32 80t-85 35q-5 1 -15.5 9t-14.5 9q-27 9 -11 37q2 4 5.5 13.5t5.5 13.5q56 69 79 114q-7 2 -59.5 7t-67.5 20q-19 21 -43 74 q-1 16 34 21.5t71.5 3t58.5 1.5q110 16 178 -14q15 -6 28 -23.5t5 -35.5q-11 -26 -41.5 -70.5t-58.5 -63.5q85 -22 120.5 -87.5t28.5 -155.5q-3 -31 -16.5 -66.5t-28.5 -52.5q-49 -59 -126.5 -73.5t-146 15t-97.5 89.5q-16 34 -18 69zM120 29q22 82 70 171l3 5q19 34 63 115 t68 125t63 111.5t76 125.5q23 36 90 147.5t104 163.5q22 33 70 110.5t74 115.5q43 64 84 102q12 12 36 32t33 31q7 6 14.5 19t10.5 16q9 7 25.5 10.5t23.5 6.5q24 -19 43 -103q6 -36 6 -39q-2 -20 -25 -46t-26 -40q-5 -29 -42.5 -91.5t-93 -149t-83.5 -138.5 q-52 -97 -175.5 -302t-178.5 -308q-4 -7 -31 -51t-33 -55q-4 -7 -18 -32.5t-21 -37t-19 -28.5t-21.5 -23t-18.5 -4q-5 3 15 36q13 20 6 19h-3q-19 -16 -48.5 -69t-53.5 -64q-3 -2 -4 4q-1 4 -2 14q-1 20 -5 20l-6 -5q-7 -12 -13.5 -16.5t-15.5 -7.5t-16 -7q-8 -3 -6 9l8 20 q11 27 4 27q-1 0 -4 -1q-6 -3 -8 2.5t-2 12.5t-3 11t-11 -1q-16 -9 -3 37zM612 319q3 5 58 72t115.5 139t64.5 78q13 15 16 29.5t6 17.5q13 19 70.5 11t81.5 -29v-23q12 -14 17 -30t5.5 -29t0.5 -39.5t2 -48.5q6 -74 -7 -162q23 0 36 -2.5t17 -7.5t4.5 -11.5t-1.5 -15.5 l13 -29q4 -14 -3 -16q0 -4 2 -10.5t2 -11.5q26 -13 3 -23q-21 -8 -64 -8q0 -10 2 -48q8 -120 -9 -124q-7 -2 -18 10q-14 -19 -79.5 -16.5t-92.5 18.5q-6 20 2 87t-6 79q-27 2 -85 -1.5t-95.5 -2t-44.5 15.5q-40 73 -13 131zM766 313h96v154q-5 -15 -49.5 -72.5t-46.5 -81.5z " />
<glyph unicode="&#xbf;" horiz-adv-x="614" d="M33 96q21 95 104 199q35 45 70 82q7 7 27.5 25.5t30.5 29.5t21 30t13 38q3 19 0.5 49t1.5 51q-31 75 32.5 85.5t121.5 -12.5q11 -2 16 -3t13 -2t9 -0.5t5 0.5q2 -1 0.5 -9t-0.5 -12q27 -9 38 -50.5t8.5 -82t-9.5 -82.5q-4 -26 -29 -82q-8 -19 -21 -39t-21 -29.5t-29 -34 t-25 -28.5q-22 -31 -50 -63q-2 -3 -26.5 -32.5t-34.5 -49.5q-27 -62 -20 -140q26 2 80 26.5t85 23.5q66 0 93 -19q1 -1 2 -4t2 -4q6 -6 27.5 -18.5t27.5 -18.5q5 -5 9.5 -12.5t9.5 -18t8 -16.5q-11 -2 -23 -14q-2 -2 -2.5 -9t-1.5 -8q-16 -12 -39.5 -35t-26.5 -26 q-6 -5 -18 -13.5t-18 -13.5q-5 -4 -15.5 -15t-15.5 -15q-33 -22 -87 -37.5t-102 -14.5q-54 3 -100 35q-29 20 -47.5 46.5t-44.5 76.5q-74 136 -49 266zM194 892.5q-4 31.5 0.5 58.5t10.5 42q-2 1 -3.5 0.5t-2.5 0t-2 3.5q18 47 87.5 48t129 -19.5t65.5 -30.5q1 -1 -1 -20 t9 -23q2 0 6 1t5 -1q2 -4 14 -16q0 -24 12 -39q-5 -11 1.5 -30.5t6.5 -26.5q-3 -20 -21.5 -44.5t-37.5 -33.5q-13 -7 -41 -8t-45 4q-79 14 -172 78q-2 3 -0.5 7t0.5 7q-17 11 -21 42.5z" />
<glyph unicode="&#xc0;" horiz-adv-x="778" d="M-6 -43q14 19 26.5 55t28 93t23.5 83q-1 1 -16.5 10t-25.5 17t-7 12q4 3 13.5 4.5t14.5 4.5q-6 3 -19 6t-21.5 6.5t-8.5 7.5q3 3 12 1.5t15 2.5q0 5 -6 11.5t-5 15.5q19 0 41 9.5t37 12.5q40 136 103 420.5t82 360.5q2 8 7.5 25.5t6.5 25.5q0 49 -10 104q-3 18 -9.5 30.5 t-17.5 18t-25 -7.5q1 6 2.5 11t4.5 9l4.5 6t7.5 5.5t8 4.5t10.5 4.5t10.5 4.5q4 2 10.5 6.5t9.5 5.5q32 11 109 -4q92 -32 100 -51q1 -3 4 -8t4 -8q14 -4 23 -15t13.5 -27.5t6.5 -32.5t4.5 -37t5.5 -34q1 -4 5.5 -12t5.5 -12q8 -22 15.5 -69t12.5 -66q16 -61 88 -484 q6 -25 9 -59q9 -63 34 -213q2 -10 8.5 -31.5t9.5 -37t1 -31.5q-2 -8 -21 -13q-12 -65 -55 -106q-5 10 -25 12t-39 -0.5t-34 0.5q-4 -16 -26 -20.5t-40 2.5q-3 13 -18.5 29t-18.5 22q-16 31 -39 139q-15 0 -50.5 2t-58 2.5t-53.5 -0.5t-55 -4q-38 -122 -68.5 -160.5 t-103.5 -60.5q-10 -3 -23.5 -5t-25.5 -0.5t-12 7.5zM168 1530q-3 15 33.5 52t36.5 60q0 15 6.5 21t21.5 3.5t26 -6.5t32 -13q31 -18 119 -93.5t126 -126.5q-1 -7 -5 -16t-4.5 -12t3.5 -8q-4 -3 -7 -2.5t-9 2.5t-10 2q-3 -6 2.5 -10.5t5.5 -6.5q-11 2 -10 -10v-1v-1 q-11 2 -15.5 -0.5t-1.5 -13.5q-122 64 -199 92q-22 8 -55 18t-45 15t-26.5 18.5t-24.5 36.5zM264 330q110 8 160 8q-56 330 -64 362q-11 -47 -96 -370zM426 1493q1 -2 48 -33.5t54 -52.5q3 -1 5.5 1.5t5.5 2.5q-3 17 -27.5 36.5t-47.5 34.5t-24 21h-8q0 -7 -6 -10z" />
<glyph unicode="&#xc1;" horiz-adv-x="778" d="M-6 -43q14 19 26.5 55t28 93t23.5 83q-1 1 -16.5 10t-25.5 17t-7 12q4 3 13.5 4.5t14.5 4.5q-6 3 -19 6t-21.5 6.5t-8.5 7.5q3 3 12 1.5t15 2.5q0 5 -6 11.5t-5 15.5q19 0 41 9.5t37 12.5q40 136 103 420.5t82 360.5q2 8 7.5 25.5t6.5 25.5q0 49 -10 104q-3 18 -9.5 30.5 t-17.5 18t-25 -7.5q1 6 2.5 11t4.5 9l4.5 6t7.5 5.5t8 4.5t10.5 4.5t10.5 4.5q4 2 10.5 6.5t9.5 5.5q32 11 109 -4q92 -32 100 -51q1 -3 4 -8t4 -8q14 -4 23 -15t13.5 -27.5t6.5 -32.5t4.5 -37t5.5 -34q1 -4 5.5 -12t5.5 -12q8 -22 15.5 -69t12.5 -66q16 -61 88 -484 q6 -25 9 -59q9 -63 34 -213q2 -10 8.5 -31.5t9.5 -37t1 -31.5q-2 -8 -21 -13q-12 -65 -55 -106q-5 10 -25 12t-39 -0.5t-34 0.5q-4 -16 -26 -20.5t-40 2.5q-3 13 -18.5 29t-18.5 22q-16 31 -39 139q-15 0 -50.5 2t-58 2.5t-53.5 -0.5t-55 -4q-38 -122 -68.5 -160.5 t-103.5 -60.5q-10 -3 -23.5 -5t-25.5 -0.5t-12 7.5zM217 1421q14 5 14.5 12t-5.5 13.5t-6 14.5t11 14q33 33 65.5 58t51 36t45 25.5t35.5 19.5q44 26 118.5 55t80.5 23q-4 -13 11 -40t5 -34q2 -11 1 -14.5t-7 -8.5t-8 -8q-2 -4 -0.5 -5.5t3 -2t5.5 -0.5q-1 -4 -3.5 -6.5 t-5.5 -3.5t-7.5 -2t-6.5 -2q-20 -17 -34.5 -33.5t-39 -47.5t-38.5 -48q-13 -17 -34 -34t-38 -20q-124 -16 -155 -10q-26 4 -33 19q-4 5 -9 9.5t-7.5 6.5t-5 5.5t-3.5 8.5zM264 330q110 8 160 8q-56 330 -64 362q-11 -47 -96 -370zM281 1477q8 -5 14.5 -1t11.5 11 q-8 14 -26 -10zM305 1503q6 -6 2 -6q15 -6 29 12q-13 3 -31 -6zM330 1528q-5 -12 7.5 -14t18.5 10q-5 2 -14 2.5t-12 1.5zM387 1552q3 -6 19 2l-7 7q-7 0 -12 -9zM440 1587q6 -3 10 -1.5t11.5 6t11.5 5.5q-8 5 -19 1t-14 -11z" />
<glyph unicode="&#xc2;" horiz-adv-x="778" d="M-6 -43q14 19 26.5 55t28 93t23.5 83q-1 1 -16.5 10t-25.5 17t-7 12q4 3 13.5 4.5t14.5 4.5q-6 3 -19 6t-21.5 6.5t-8.5 7.5q3 3 12 1.5t15 2.5q0 5 -6 11.5t-5 15.5q19 0 41 9.5t37 12.5q40 136 103 420.5t82 360.5q2 8 7.5 25.5t6.5 25.5q0 49 -10 104q-3 18 -9.5 30.5 t-17.5 18t-25 -7.5q1 6 2.5 11t4.5 9l4.5 6t7.5 5.5t8 4.5t10.5 4.5t10.5 4.5q4 2 10.5 6.5t9.5 5.5q32 11 109 -4q92 -32 100 -51q1 -3 4 -8t4 -8q14 -4 23 -15t13.5 -27.5t6.5 -32.5t4.5 -37t5.5 -34q1 -4 5.5 -12t5.5 -12q8 -22 15.5 -69t12.5 -66q16 -61 88 -484 q6 -25 9 -59q9 -63 34 -213q2 -10 8.5 -31.5t9.5 -37t1 -31.5q-2 -8 -21 -13q-12 -65 -55 -106q-5 10 -25 12t-39 -0.5t-34 0.5q-4 -16 -26 -20.5t-40 2.5q-3 13 -18.5 29t-18.5 22q-16 31 -39 139q-15 0 -50.5 2t-58 2.5t-53.5 -0.5t-55 -4q-38 -122 -68.5 -160.5 t-103.5 -60.5q-10 -3 -23.5 -5t-25.5 -0.5t-12 7.5zM54 1361q0 1 1 3q10 13 19 23.5t15 16t19 17t21 19.5q45 34 111 100q2 2 14 13.5t14 14t9 12.5t7 16t-1 16t-7 20q33 13 41 39q5 0 10.5 -5.5t10.5 -4.5q7 18 20 20q4 -1 10 -6.5t9 -7.5q21 13 55 -2q2 -3 1 -7.5t1 -6.5 q83 -68 107 -97q47 -52 90 -92q36 -34 67 -67q7 -7 10.5 -12t3.5 -8t1.5 -10t3.5 -15q-30 4 -59 -4t-46 -18t-38.5 -9.5t-43.5 18.5q-25 21 -76.5 56.5t-93.5 74.5q-20 -19 -94 -79q-18 -15 -50 -35.5t-48 -34.5q-4 -4 -4.5 -1.5t1 7.5t-4 9t-17.5 3l-12 11q0 1 -45 3 q-32 1 -32 10zM264 330q110 8 160 8q-56 330 -64 362q-11 -47 -96 -370z" />
<glyph unicode="&#xc3;" horiz-adv-x="778" d="M-6 -43q14 19 26.5 55t28 93t23.5 83q-1 1 -16.5 10t-25.5 17t-7 12q4 3 13.5 4.5t14.5 4.5q-6 3 -19 6t-21.5 6.5t-8.5 7.5q3 3 12 1.5t15 2.5q0 5 -6 11.5t-5 15.5q19 0 41 9.5t37 12.5q40 136 103 420.5t82 360.5q2 8 7.5 25.5t6.5 25.5q0 49 -10 104q-3 18 -9.5 30.5 t-17.5 18t-25 -7.5q1 6 2.5 11t4.5 9l4.5 6t7.5 5.5t8 4.5t10.5 4.5t10.5 4.5q4 2 10.5 6.5t9.5 5.5q32 11 109 -4q92 -32 100 -51q1 -3 4 -8t4 -8q14 -4 23 -15t13.5 -27.5t6.5 -32.5t4.5 -37t5.5 -34q1 -4 5.5 -12t5.5 -12q8 -22 15.5 -69t12.5 -66q16 -61 88 -484 q6 -25 9 -59q9 -63 34 -213q2 -10 8.5 -31.5t9.5 -37t1 -31.5q-2 -8 -21 -13q-12 -65 -55 -106q-5 10 -25 12t-39 -0.5t-34 0.5q-4 -16 -26 -20.5t-40 2.5q-3 13 -18.5 29t-18.5 22q-16 31 -39 139q-15 0 -50.5 2t-58 2.5t-53.5 -0.5t-55 -4q-38 -122 -68.5 -160.5 t-103.5 -60.5q-10 -3 -23.5 -5t-25.5 -0.5t-12 7.5zM106 1440q34 121 105 157q83 38 182 -14q14 -8 40.5 -26.5t40 -25t35.5 -3t44 25.5q23 22 26 3q1 -7 5 0l20 40q14 8 23 2q6 2 7 -7q2 -16 -5 -23q-2 -3 3.5 -7t14.5 -6t17 0q-2 -3 -6.5 -9.5t-7 -10t-4.5 -8.5t-2 -9.5 t3 -7.5q13 13 15 -1q1 -10 -9 -35q4 -11 -14 -39q-33 -51 -64 -66q-91 -47 -262 57q-29 13 -55.5 8t-46.5 -24q-12 -11 -26 -26.5t-21 -21t-12 -1.5q-7 5 -7 18.5t-3.5 22.5t-18.5 6q-7 27 -17 31zM264 330q110 8 160 8q-56 330 -64 362q-11 -47 -96 -370z" />
<glyph unicode="&#xc4;" horiz-adv-x="778" d="M-6 -43q14 19 26.5 55t28 93t23.5 83q-1 1 -16.5 10t-25.5 17t-7 12q4 3 13.5 4.5t14.5 4.5q-6 3 -19 6t-21.5 6.5t-8.5 7.5q3 3 12 1.5t15 2.5q0 5 -6 11.5t-5 15.5q19 0 41 9.5t37 12.5q40 136 103 420.5t82 360.5q2 8 7.5 25.5t6.5 25.5q0 49 -10 104q-3 18 -9.5 30.5 t-17.5 18t-25 -7.5q1 6 2.5 11t4.5 9l4.5 6t7.5 5.5t8 4.5t10.5 4.5t10.5 4.5q4 2 10.5 6.5t9.5 5.5q32 11 109 -4q92 -32 100 -51q1 -3 4 -8t4 -8q14 -4 23 -15t13.5 -27.5t6.5 -32.5t4.5 -37t5.5 -34q1 -4 5.5 -12t5.5 -12q8 -22 15.5 -69t12.5 -66q16 -61 88 -484 q6 -25 9 -59q9 -63 34 -213q2 -10 8.5 -31.5t9.5 -37t1 -31.5q-2 -8 -21 -13q-12 -65 -55 -106q-5 10 -25 12t-39 -0.5t-34 0.5q-4 -16 -26 -20.5t-40 2.5q-3 13 -18.5 29t-18.5 22q-16 31 -39 139q-15 0 -50.5 2t-58 2.5t-53.5 -0.5t-55 -4q-38 -122 -68.5 -160.5 t-103.5 -60.5q-10 -3 -23.5 -5t-25.5 -0.5t-12 7.5zM14 1458v21q8 3 10 6t0 7.5t-7 12.5q-2 3 -3 4q10 27 29.5 51.5t26.5 36.5q4 5 10 8t14.5 4t9.5 1q47 98 164 -29q30 -44 33.5 -75t-12.5 -85q-3 -4 -6 -6.5t-5 -2.5t-4 -1t-2.5 -2t-1.5 -5t0 -11q-27 -43 -84 -54 t-109 20.5t-63 98.5zM264 330q110 8 160 8q-56 330 -64 362q-11 -47 -96 -370zM407.5 1454q-3.5 53 27 95.5t71.5 45.5q9 2 12.5 1.5t9 -3.5t7.5 -4q29 5 53 -10.5t48.5 -44.5t35.5 -37q0 -5 -13.5 -1.5t-26 7.5t-16.5 -2q71 -29 67 -85q-3 -43 -42 -67q-38 -23 -76 -3 q-19 -13 -34.5 -13t-45.5 10q-6 3 -14 14t-14 15q-46 29 -49.5 82z" />
<glyph unicode="&#xc5;" horiz-adv-x="778" d="M-6 -43q14 19 26.5 55t28 93t23.5 83q-1 1 -16.5 10t-25.5 17t-7 12q4 3 13.5 4.5t14.5 4.5q-6 3 -19 6t-21.5 6.5t-8.5 7.5q3 3 12 1.5t15 2.5q0 5 -6 11.5t-5 15.5q19 0 41 9.5t37 12.5q40 136 103 420.5t82 360.5q2 8 7.5 25.5t6.5 25.5q0 49 -10 104q-3 18 -9.5 30.5 t-17.5 18t-25 -7.5q1 6 2.5 11t4.5 9l4.5 6t7.5 5.5t8 4.5t10.5 4.5t10.5 4.5q4 2 10.5 6.5t9.5 5.5q32 11 109 -4q92 -32 100 -51q1 -3 4 -8t4 -8q14 -4 23 -15t13.5 -27.5t6.5 -32.5t4.5 -37t5.5 -34q1 -4 5.5 -12t5.5 -12q8 -22 15.5 -69t12.5 -66q16 -61 88 -484 q6 -25 9 -59q9 -63 34 -213q2 -10 8.5 -31.5t9.5 -37t1 -31.5q-2 -8 -21 -13q-12 -65 -55 -106q-5 10 -25 12t-39 -0.5t-34 0.5q-4 -16 -26 -20.5t-40 2.5q-3 13 -18.5 29t-18.5 22q-16 31 -39 139q-15 0 -50.5 2t-58 2.5t-53.5 -0.5t-55 -4q-38 -122 -68.5 -160.5 t-103.5 -60.5q-10 -3 -23.5 -5t-25.5 -0.5t-12 7.5zM158 1552q-10 74 37 134q58 73 155 118q81 36 105 41q28 5 65 -11t47 -46q32 -19 48 -50t16 -61v-98q-6 -69 -37 -113q-39 -54 -135 -67q-63 -8 -133 16q-3 1 -4 -2.5t-1.5 -8.5t-2.5 -8.5t-5 -2.5q-22 3 -39 9t-44 21.5 t-46 48.5t-26 80zM264 330q110 8 160 8q-56 330 -64 362q-11 -47 -96 -370zM380 1597q-2 -33 24 -59q31 -33 79 -10q47 28 47 86q0 63 -12 110q-30 -15 -41 -21t-32 -21t-31.5 -31t-16.5 -37q-15 6 -17 -17z" />
<glyph unicode="&#xc6;" horiz-adv-x="1175" d="M-3.5 53q5.5 33 23.5 45q16 104 91 226q-7 5 -30 17t-32 21q-6 15 -2 23q-2 4 -8.5 6.5t-7.5 3.5q1 7 2.5 16.5t2 12.5t-0.5 10q2 3 2.5 5t0.5 3t0.5 2t3 1t7.5 1q7 3 21 15.5t22 15.5q27 6 76 21q45 80 117 240.5t100 217.5q23 49 70.5 133.5t64.5 116.5q3 5 11.5 18.5 t12 19.5t9.5 20.5t4 23.5t-4 27q11 -4 23.5 2.5t9.5 23.5q3 -1 5 -6t5 -6q4 1 5.5 7.5t4.5 9.5q9 0 33.5 2t36.5 2t32 -1.5t37 -5.5q11 -1 31 -10t27 -10q8 0 18 1t22 2.5t19 2.5q175 21 277 0q2 -15 3.5 -50.5t4.5 -57.5q-25 -36 -90 -39q-121 -5 -152 -2q11 -49 11.5 -110 t-4 -133.5t-3.5 -109.5q41 10 85 10.5t93 -4t70 -4.5q3 -2 2.5 -5t-2 -8t-0.5 -7q-1 -10 1.5 -33t2.5 -33q-8 -21 -25 -34t-44 -19.5t-50 -9t-61 -5t-59 -5.5q-6 -43 -6.5 -94t2 -116t2.5 -95q0 -20 -5 -60t-6 -55q0 -10 1.5 -27.5t1.5 -31.5t-3 -25q15 -7 58.5 -14t52.5 -9 q49 -8 69 -7.5t82 9.5q-1 -4 -5 -9t-5 -9q14 -4 12.5 -18t-10.5 -21q1 -3 5.5 -7t5.5 -7q1 -7 -3.5 -11.5t-12.5 -8.5t-11 -7q-6 -4 -15.5 -17t-15.5 -18q-16 -9 -28 -13t-20 -5t-30 -2q-76 -4 -237 0q-49 4 -64 8q-4 2 -11 8t-11 8q-2 1 -11 3t-12.5 3t-8.5 4t-7 7 q-4 -1 -4.5 0.5t0.5 4t2 3.5q-20 3 -32 17.5t-16 29.5t-9 43.5t-9 42.5q-1 5 -4.5 13.5t-3.5 9.5q-5 26 -4.5 73.5t-1.5 71.5q-81 -8 -318 -23q-1 -2 -47 -120q-7 -15 -21 -48t-24 -51q-18 -46 -47 -67q-10 0 -12 2q-4 -3 -12 -19q-4 -1 -7.5 3t-7.5 4q-9 -25 -38 -29t-56 4 q-13 22 -7.5 55zM362 528q149 16 234 11q-6 94 -5.5 246t-0.5 249q0 2 -4 2q-110 -207 -224 -508z" />
<glyph unicode="&#xc7;" horiz-adv-x="743" d="M29 741q10 80 34 150q37 100 68 160.5t88 128.5q11 15 76 80q39 33 84 55q48 21 72 18q8 -3 17.5 -18t16.5 -21q5 -8 15.5 -19.5t18 -22t11.5 -23.5q23 82 23 135q12 -6 46.5 -15t51.5 -22q0 5 1 14.5t1 10.5q9 -2 17.5 -14.5t18 -33t13.5 -26.5q10 -4 21.5 -29.5 t9.5 -36.5q3 0 7 -4t5 -4q1 -15 -11 -39t-13 -32q-1 -5 1 -19t1 -20q-1 -13 -5 -32.5t-5 -29.5q0 -36 -8 -67q-3 -21 -13 -60.5t-12 -58.5q-4 -17 6 -23q-6 -5 -10 -19.5t-6 -17.5q-45 -9 -64 -49q-42 -6 -71 -32q-21 25 -35 118q-3 16 -4 34.5t-2 33t-0.5 35.5t1 32 t2.5 34.5t2.5 31t3.5 33.5t3 30q-52 -24 -90.5 -73t-75.5 -121q-70 -133 -64 -283q5 -127 50 -262q31 -79 75 -129q14 -28 21 -35q43 -43 82 -28q43 17 97.5 133t76.5 211q5 -3 4.5 -10.5t-2.5 -12.5q0 -3 7 -3q3 1 1 -3q0 -13 -7 -40t-5 -40q5 -1 6 3t0 9t2 7q2 -9 1.5 -15 t-4 -22t-3.5 -19q0 -6 2.5 -16.5t-0.5 -15.5q3 -1 4.5 -1t2.5 4.5t1 7.5v7q6 -32 -12 -76q6 -34 -4.5 -64t-29 -60t-24.5 -50q-53 -70 -141 -96l-14 -60q6 -9 20 -30.5t18.5 -30t14.5 -25.5t13.5 -27t9 -25t7 -28.5t1.5 -29.5q0 -103 -76.5 -147t-175.5 -15 q-63 19 -105.5 82t-27.5 123q7 0 15 1q9 1 21 -10q6 -5 9 -8q4 -8 12 -3t20 11.5t17 2.5q4 -35 29 -49t49 -2t24 40q0 21 -2 34t-12.5 32t-30.5 39q-6 6 -12.5 22t-15.5 21q20 55 37 88q-174 60 -252 303q-66 199 -41 438zM51 641q-6 -200 54 -360t169 -230 q-7 10 -53.5 62.5t-64.5 91.5q-31 56 -68 203q4 5 4.5 12t-1 17t-1.5 14q-2 20 -10 78t-10.5 87.5t0.5 81.5q1 10 4 27.5t5.5 32.5t4.5 29.5t1 23t-5 8.5q-2 -6 -3.5 -22.5t-4.5 -24.5q-18 -59 -21 -131zM100 866q8 6 23.5 36.5t25.5 58.5t3 28t-28.5 -53.5t-23.5 -69.5z M270 432q8 -79 58 -186q4 0 8 -6t0 -15q39 -40 86 -80q-10 16 -33.5 43t-32.5 43q-51 79 -86 201z" />
<glyph unicode="&#xc8;" horiz-adv-x="638" d="M10 1571q-5 28 12 74.5t48 54.5q37 7 48 5t48 -17q9 -5 32.5 -30t52 -55t81 -74t112.5 -83q-1 -7 -5 -16.5t-4.5 -12.5t3.5 -8q-4 -3 -7 -2.5t-9 2.5t-10 2q-3 -6 2.5 -10t5.5 -6q-5 1 -7.5 -1t-2.5 -4v-6v-2q-11 2 -15.5 -0.5t-1.5 -13.5q-7 1 -39 8q-84 19 -168 60 q-37 18 -58 30t-53 39t-65 66zM16 1274q25 12 27 14q-3 4 -11 11.5t-12 15t-4 18.5q125 23 181 -6q68 -3 213.5 2t185.5 -6q8 -2 -8 -9q-2 0 -4 -1q5 -10 28.5 -5.5t24.5 -4.5q3 -17 -12.5 -39.5t-14.5 -30.5q0 -8 -18.5 -14.5t-52 -10.5t-65 -6.5t-72.5 -5t-60 -4.5 q28 -160 8 -381q31 -1 112 3t132 1q2 -6 -0.5 -18t-1.5 -17q0 -5 5 -13t5 -13q1 -13 -5 -25.5t-10 -17.5t-21 -19l-17 -14q-5 -2 -7 1.5t-5 0.5q-19 -9 -45.5 -12.5t-44 -3.5t-56 2t-51.5 2q-8 -69 6 -246q-4 -42 -3.5 -125.5t-0.5 -128.5q16 -4 33.5 -6t41 -3.5t36.5 -2.5 q120 -13 170 -11q17 0 18 -15t-9 -45t-11 -38q-25 -24 -81.5 -38t-104.5 -18t-120 -7q-123 -4 -184 20q-3 1 0.5 5t-2.5 14q-8 10 -15.5 23.5t-12 21t-7.5 8.5q-6 -7 10.5 -35t14.5 -31q-10 2 -18.5 9.5t-12 12t-10.5 19.5t-8 17q-4 42 -5 88t0 123t1 92q0 82 -3 168 q0 590 -12 661q-8 61 -35 74z" />
<glyph unicode="&#xc9;" horiz-adv-x="638" d="M16 1274q25 12 27 14q-3 4 -11 11.5t-12 15t-4 18.5q125 23 181 -6q68 -3 213.5 2t185.5 -6q8 -2 -8 -9q-2 0 -4 -1q5 -10 28.5 -5.5t24.5 -4.5q3 -17 -12.5 -39.5t-14.5 -30.5q0 -8 -18.5 -14.5t-52 -10.5t-65 -6.5t-72.5 -5t-60 -4.5q28 -160 8 -381q31 -1 112 3t132 1 q2 -6 -0.5 -18t-1.5 -17q0 -5 5 -13t5 -13q1 -13 -5 -25.5t-10 -17.5t-21 -19l-17 -14q-5 -2 -7 1.5t-5 0.5q-19 -9 -45.5 -12.5t-44 -3.5t-56 2t-51.5 2q-8 -69 6 -246q-4 -42 -3.5 -125.5t-0.5 -128.5q16 -4 33.5 -6t41 -3.5t36.5 -2.5q120 -13 170 -11q17 0 18 -15 t-9 -45t-11 -38q-25 -24 -81.5 -38t-104.5 -18t-120 -7q-123 -4 -184 20q-3 1 0.5 5t-2.5 14q-8 10 -15.5 23.5t-12 21t-7.5 8.5q-6 -7 10.5 -35t14.5 -31q-10 2 -18.5 9.5t-12 12t-10.5 19.5t-8 17q-4 42 -5 88t0 123t1 92q0 82 -3 168q0 590 -12 661q-8 61 -35 74z M176 1460q2 6 3 14.5t2 12.5t5 10.5t11 13.5q30 15 108.5 46.5t134.5 64t125 88.5q13 18 27 8q8 -5 4 -12q-5 -10 0 -23t-4 -14q0 -5 8.5 -19t-0.5 -24q7 -2 19 4.5t16 1.5q-11 -35 -58 -90t-104 -98q-52 -42 -91 -62t-72 -18.5t-56 29.5q25 4 3 15q-5 2 -19 8 q-60 26 -62 44z" />
<glyph unicode="&#xca;" horiz-adv-x="638" d="M16 1274q25 12 27 14q-3 4 -11 11.5t-12 15t-4 18.5q125 23 181 -6q68 -3 213.5 2t185.5 -6q8 -2 -8 -9q-2 0 -4 -1q5 -10 28.5 -5.5t24.5 -4.5q3 -17 -12.5 -39.5t-14.5 -30.5q0 -8 -18.5 -14.5t-52 -10.5t-65 -6.5t-72.5 -5t-60 -4.5q28 -160 8 -381q31 -1 112 3t132 1 q2 -6 -0.5 -18t-1.5 -17q0 -5 5 -13t5 -13q1 -13 -5 -25.5t-10 -17.5t-21 -19l-17 -14q-5 -2 -7 1.5t-5 0.5q-19 -9 -45.5 -12.5t-44 -3.5t-56 2t-51.5 2q-8 -69 6 -246q-4 -42 -3.5 -125.5t-0.5 -128.5q16 -4 33.5 -6t41 -3.5t36.5 -2.5q120 -13 170 -11q17 0 18 -15 t-9 -45t-11 -38q-25 -24 -81.5 -38t-104.5 -18t-120 -7q-123 -4 -184 20q-3 1 0.5 5t-2.5 14q-8 10 -15.5 23.5t-12 21t-7.5 8.5q-6 -7 10.5 -35t14.5 -31q-10 2 -18.5 9.5t-12 12t-10.5 19.5t-8 17q-4 42 -5 88t0 123t1 92q0 82 -3 168q0 590 -12 661q-8 61 -35 74z M37 1417q-9 9 0 19q8 12 16.5 27t16 25t22.5 25q84 66 121 109q9 15 4 20t-4.5 12t16.5 19q79 69 95 64q2 -3 28.5 -8t28.5 -7q20 -16 58.5 -49.5t49.5 -42.5q43 -32 93 -90q14 -14 27.5 -37.5t18 -44.5t-11.5 -26q-36 -8 -58.5 -19t-26 -18t-15.5 -11t-27 2q-32 30 -87 75 t-91 77q-11 -11 -35.5 -34t-46.5 -46q-15 -17 -45.5 -35.5t-42.5 -29.5q-6 -6 -10.5 -3.5t-7 8t-4.5 10t-4 3.5l-41 -16q-1 2 -14.5 7.5t-22.5 14.5zM133 1434q30 17 77.5 53.5t57.5 60.5q-43 -27 -96.5 -67.5t-38.5 -46.5z" />
<glyph unicode="&#xcb;" horiz-adv-x="638" d="M16 1274q25 12 27 14q-3 4 -11 11.5t-12 15t-4 18.5q125 23 181 -6q68 -3 213.5 2t185.5 -6q8 -2 -8 -9q-2 0 -4 -1q5 -10 28.5 -5.5t24.5 -4.5q3 -17 -12.5 -39.5t-14.5 -30.5q0 -8 -18.5 -14.5t-52 -10.5t-65 -6.5t-72.5 -5t-60 -4.5q28 -160 8 -381q31 -1 112 3t132 1 q2 -6 -0.5 -18t-1.5 -17q0 -5 5 -13t5 -13q1 -13 -5 -25.5t-10 -17.5t-21 -19l-17 -14q-5 -2 -7 1.5t-5 0.5q-19 -9 -45.5 -12.5t-44 -3.5t-56 2t-51.5 2q-8 -69 6 -246q-4 -42 -3.5 -125.5t-0.5 -128.5q16 -4 33.5 -6t41 -3.5t36.5 -2.5q120 -13 170 -11q17 0 18 -15 t-9 -45t-11 -38q-25 -24 -81.5 -38t-104.5 -18t-120 -7q-123 -4 -184 20q-3 1 0.5 5t-2.5 14q-8 10 -15.5 23.5t-12 21t-7.5 8.5q-6 -7 10.5 -35t14.5 -31q-10 2 -18.5 9.5t-12 12t-10.5 19.5t-8 17q-4 42 -5 88t0 123t1 92q0 82 -3 168q0 590 -12 661q-8 61 -35 74z M23 1479q6 20 30 32q0 6 4.5 15.5t5.5 11.5q9 5 23.5 19t25 21t38.5 13.5t63 -2.5q10 -4 0.5 -8.5t-4.5 -7.5q1 0 8.5 -4t10.5 -6t11 -6t12 -7.5t11.5 -8.5t12 -10t10 -11t9.5 -13t7 -14q6 -10 -1.5 -29t-24 -38t-39.5 -34t-49.5 -16t-53.5 15q-46 -17 -86 20q-35 32 -24 68 zM43 1485q-12 -38 16 -61t60 -23q0 4 -16 10t-32 21t-16 41q-2 0 -6 6t-6 6zM355 1464.5q5 35.5 55 57.5q1 1 3.5 12.5t8.5 15.5q11 6 30 18.5t36 21.5t34 14q8 -5 10.5 -6.5t6.5 -2.5t6 1.5t4 7.5h16q120 -175 -47 -226q-45 -13 -71 -9.5t-62 30.5q-35 30 -30 65.5z" />
<glyph unicode="&#xcc;" horiz-adv-x="403" d="M-37.5 1552q1.5 33 23.5 58q11 12 19.5 25.5t11.5 20.5t8.5 13.5t10 6t15.5 -2.5q95 -41 195 -133q56 -44 116 -119q9 -9 19 -35q-19 0 -8 -18q-10 -3 -10 -6t2 -8q-2 -1 -8.5 4t-10.5 0q1 -4 4.5 -9t5.5 -9t0 -7q-4 3 -8.5 0.5t-11.5 -8.5t-14 -8q-97 78 -220 143 q-5 0 20 -22q23 -20 19 -23q-32 17 -87 40t-70 36q-23 28 -21.5 61zM51 1286q0 6 6 2q2 -1 3.5 -1.5t3 -0.5t2.5 2q2 7 -6 25.5t-1 25.5q9 -2 30 -8t34 -6q0 5 -19 23q-9 8 -2 8q36 -2 70.5 -17t52.5 -41q11 -1 19 -6t16 -12.5t14 -11.5q4 -4 15 -12.5t14 -12.5 q16 -22 27.5 -72.5t15.5 -91.5q5 -30 2.5 -107.5t-0.5 -107.5q0 -158 -10 -270q-1 -10 -5 -48t-5 -51.5t-3.5 -45t-2.5 -50t1 -45t3 -51.5q2 -23 7.5 -70t9 -80.5t2.5 -75.5t-9 -71l-6 -12q-6 -12 -13 -14q-8 1 -51 28q-26 0 -39 8q-10 -2 -27.5 -13t-37.5 -9q-3 0 -2 -7 t-2 -7q-4 -7 -20 -3t-21 3q-11 15 -17 50t-9.5 79t-6.5 61q-24 168 -24.5 396t10.5 382q-5 51 -2 103t0 121t-17 114z" />
<glyph unicode="&#xcd;" horiz-adv-x="403" d="M51 1286q0 6 6 2q2 -1 3.5 -1.5t3 -0.5t2.5 2q2 7 -6 25.5t-1 25.5q9 -2 30 -8t34 -6q0 5 -19 23q-9 8 -2 8q36 -2 70.5 -17t52.5 -41q11 -1 19 -6t16 -12.5t14 -11.5q4 -4 15 -12.5t14 -12.5q16 -22 27.5 -72.5t15.5 -91.5q5 -30 2.5 -107.5t-0.5 -107.5 q0 -158 -10 -270q-1 -10 -5 -48t-5 -51.5t-3.5 -45t-2.5 -50t1 -45t3 -51.5q2 -23 7.5 -70t9 -80.5t2.5 -75.5t-9 -71l-6 -12q-6 -12 -13 -14q-8 1 -51 28q-26 0 -39 8q-10 -2 -27.5 -13t-37.5 -9q-3 0 -2 -7t-2 -7q-4 -7 -20 -3t-21 3q-11 15 -17 50t-9.5 79t-6.5 61 q-24 168 -24.5 396t10.5 382q-5 51 -2 103t0 121t-17 114zM61 1468q4 17 0 68q43 25 125.5 66t120.5 61q53 31 108 33q24 1 23 -8q0 -3 -4 -7q-2 -12 1.5 -17t8 -4t7.5 0t0 -3q7 -1 18.5 4t20.5 4t18 -14q-2 -5 1 -14.5t5 -15t-2 -9.5q-30 -25 -64 -55t-61 -52.5t-63 -48.5 q-64 -45 -99 -53q-7 -2 -65 -8.5t-82 -20.5q-32 4 -17 94z" />
<glyph unicode="&#xce;" horiz-adv-x="403" d="M-108 1363q-4 30 22 58q17 15 40.5 44t48.5 63t34 45q3 5 10 15t8.5 14t3.5 12.5t-1.5 17t-10.5 21.5q10 4 32 16.5t27 13.5l95 11q2 -3 1 -8t1 -7q19 -14 58 -59.5t58 -60.5q40 -28 95 -86q12 -12 22 -32t23 -32q11 -11 -20 -45.5t-27 -46.5q-7 -1 -12.5 3t-10.5 3 l-27 -31q-14 -2 -17 -2t-5 3t-2 6.5t-7.5 8t-21.5 7.5q-29 25 -77 82t-89 92q-15 -16 -42 -56t-46 -61q-15 -18 -45 -37.5t-43 -31.5q-5 -5 -14.5 1.5t-17.5 18t-15.5 21t-9.5 8.5q-15 -11 -18 11zM51 1286q0 6 6 2q2 -1 3.5 -1.5t3 -0.5t2.5 2q2 7 -6 25.5t-1 25.5 q9 -2 30 -8t34 -6q0 5 -19 23q-9 8 -2 8q36 -2 70.5 -17t52.5 -41q11 -1 19 -6t16 -12.5t14 -11.5q4 -4 15 -12.5t14 -12.5q16 -22 27.5 -72.5t15.5 -91.5q5 -30 2.5 -107.5t-0.5 -107.5q0 -158 -10 -270q-1 -10 -5 -48t-5 -51.5t-3.5 -45t-2.5 -50t1 -45t3 -51.5 q2 -23 7.5 -70t9 -80.5t2.5 -75.5t-9 -71l-6 -12q-6 -12 -13 -14q-8 1 -51 28q-26 0 -39 8q-10 -2 -27.5 -13t-37.5 -9q-3 0 -2 -7t-2 -7q-4 -7 -20 -3t-21 3q-11 15 -17 50t-9.5 79t-6.5 61q-24 168 -24.5 396t10.5 382q-5 51 -2 103t0 121t-17 114zM82 1647 q14 -21 83.5 -101.5t84.5 -85.5q-4 18 -76.5 95.5t-91.5 91.5z" />
<glyph unicode="&#xcf;" horiz-adv-x="403" d="M-180 1432q1 6 5 17.5t4 17t-5 18.5q0 1 10.5 11.5t5.5 21.5q7 24 33 39t66 4q1 -3 7.5 2t13 10.5t7.5 3.5q30 -10 61 -49t31 -62q0 -5 0.5 -23.5t0 -25.5t-2 -21t-5.5 -23.5t-11 -18.5q-69 -90 -160 -43q-37 25 -47.5 48t-13.5 73zM51 1286q0 6 6 2q2 -1 3.5 -1.5 t3 -0.5t2.5 2q2 7 -6 25.5t-1 25.5q9 -2 30 -8t34 -6q0 5 -19 23q-9 8 -2 8q36 -2 70.5 -17t52.5 -41q11 -1 19 -6t16 -12.5t14 -11.5q4 -4 15 -12.5t14 -12.5q16 -22 27.5 -72.5t15.5 -91.5q5 -30 2.5 -107.5t-0.5 -107.5q0 -158 -10 -270q-1 -10 -5 -48t-5 -51.5t-3.5 -45 t-2.5 -50t1 -45t3 -51.5q2 -23 7.5 -70t9 -80.5t2.5 -75.5t-9 -71l-6 -12q-6 -12 -13 -14q-8 1 -51 28q-26 0 -39 8q-10 -2 -27.5 -13t-37.5 -9q-3 0 -2 -7t-2 -7q-4 -7 -20 -3t-21 3q-11 15 -17 50t-9.5 79t-6.5 61q-24 168 -24.5 396t10.5 382q-5 51 -2 103t0 121t-17 114 zM196 1444q-2 20 1 20q4 10 9 24t7.5 20.5t7.5 15t13 14.5t20 12q8 4 27.5 5t23.5 -1q44 11 72.5 4t68.5 -32q5 -3 12 -14.5t7 -18.5q27 -14 9 -51q-8 -17 -15 -18q-5 -1 0 16q-4 -4 -14 -20.5t-20 -31t-28 -29.5t-38 -16t-50 9q-16 6 -26 14q-24 0 -41.5 9.5t-25 19 t-19.5 28.5z" />
<glyph unicode="&#xd0;" horiz-adv-x="882" d="M-9 733q8 41 52 47l66 6q0 66 2 99q1 32 8 130.5t8 160.5q0 13 -4.5 35t-9.5 41t-7.5 37t2.5 28t19 8q13 1 65 -1t64 -1q22 0 67 4t66 4q106 -3 213 -49q69 -28 140.5 -107t91.5 -151q25 -90 27.5 -222t-19.5 -237q-20 -98 -62 -194t-82 -150q-104 -140 -213 -192 q-28 -14 -56.5 -20t-71 -7.5t-44.5 -1.5q-43 -10 -61 -9.5t-33 6t-16 5.5q-28 3 -47 -2q3 8 -2 17t-13.5 19t-11.5 15q-12 25 -17 58.5t-4.5 58.5t2 67.5t1.5 61.5q1 57 -3 170.5t-4 165.5l-61 -2q-24 -10 -33.5 -3t0.5 25q-27 39 -19 80zM424 221q59 53 117 209 q55 144 63 256q11 136 -22 254q-19 67 -46 110t-46 57.5t-50 29.5q-10 -53 -12 -111t-2 -205v-8q66 10 117 8q10 -1 14.5 -14t3 -33.5t-4.5 -40t-7 -39t-4 -24.5q-16 -19 -92 -19q-6 2 -23 2q-6 -429 -6 -432z" />
<glyph unicode="&#xd1;" horiz-adv-x="759" d="M18 1284q-4 3 2 6l14 7t7 10q-2 5 1 6.5t10.5 1t15.5 -0.5t17.5 3.5t14.5 11.5q15 14 48.5 11.5t64.5 -19.5q29 -16 61 -78q22 -42 43 -104q82 -224 138 -385q64 -184 116 -303q1 49 4 188.5t3 237.5v80.5v85t1 74.5t3 77t6 63.5t10 61.5q2 6 8 9t12.5 3h12.5t9.5 1 t2.5 5q7 7 11 3t13 -12t17 -7q12 -20 19.5 -42.5t10 -54.5t2.5 -49.5t-1.5 -62.5t-1.5 -59q-2 -37 -3 -113t-3 -111q-9 -175 -9 -262q0 -54 -4 -144t-4 -147q0 -14 -5.5 -49t-2.5 -49q1 -7 11.5 -31t8.5 -38q-6 -9 -13 -30t-13 -30q-3 -4 -11 -9t-13 -10.5t-5 -13.5 q-18 0 -18 -12q-94 -41 -156 12q-51 45 -94 142q-27 54 -57 135.5t-47 133.5t-50 161t-39 129q-1 -23 5 -267.5t4 -289.5q-1 -5 -5.5 -19.5t-5.5 -21.5t-2 -24t-1.5 -23.5t-2.5 -19t-5.5 -19t-10 -13.5t-15.5 -12q-17 -11 -52 -14.5t-42 -5.5q13 95 15 200.5t-2.5 250 t-4.5 208.5q0 26 -0.5 97.5t-0.5 106.5t2.5 88t7.5 95q0 1 4.5 21t4 21t-0.5 20q0 24 -21 97t-39 91zM146 1460q3 26 14 37q0 2 -2.5 7.5t-1.5 13.5q0 13 18 38q22 31 68 62q70 34 120 22q-1 -3 -4.5 -4t-10 -1t-9.5 -1q36 -8 87 -44t67 -44q63 -32 110 2q25 20 30.5 22.5 t16.5 0.5q18 -2 25.5 -13.5t15.5 -13.5q7 -28 15 -31q-24 -66 -70.5 -110t-102.5 -47q-39 -2 -65.5 7.5t-79.5 43.5q-79 49 -123 35q-15 -5 -35.5 -28t-27.5 -23q-12 -7 -41 12q-17 31 -14 57z" />
<glyph unicode="&#xd2;" horiz-adv-x="860" d="M25 639q3 91 18 192q15 123 82 279q8 19 31.5 51.5t29.5 42.5q41 64 72 82q1 3 2 10.5t2 10.5q13 10 34 7.5t33 -7t32.5 -13.5t31.5 -12q12 -5 33 -12t36.5 -13t26.5 -14q7 -18 34 -30t34 -19q1 -4 5 -12t4 -10.5t-3 -12.5q3 -10 14 -21t15 -18q-4 -9 -11.5 -17.5 t-14 -13.5t-19 -14.5t-17.5 -13.5q-12 -11 -23.5 -24t-24.5 -32t-20 -29.5t-23 -36.5t-21 -34q-48 -88 -67.5 -193t-10.5 -255q8 -121 61 -205q41 -67 93 -70q22 -1 36.5 6t27.5 20.5t20 18.5q84 113 110 275q47 299 -20 526q-46 164 -88 225l-35 52q-3 4 -13.5 16.5t-16 21 t-5.5 13.5q-1 11 7 16.5t16 6.5t20 1q3 3 -2.5 10t-3.5 9q26 9 55 -17.5t49 -58.5q2 -3 10 -18.5t13 -22.5q4 -6 14 -17.5t14 -17.5q31 -54 54 -117q73 -202 78 -428q3 -162 -29 -325q-25 -132 -90 -244q-4 -7 -10.5 -15t-15.5 -16.5t-13 -13.5q-14 -16 -36 -40t-36 -40 q-28 -5 -49.5 -19t-75.5 -14q-93 8 -114 23q-7 4 2 8q-8 8 -25.5 20t-24.5 19q-4 -3 2.5 -9.5t4.5 -8.5t-8.5 0.5t-8.5 1.5q-2 -2 3.5 -6.5t12 -10t5.5 -8.5q-7 1 -17.5 7.5t-23.5 16t-15 11.5q-8 6 -7 3q0 -1 2 -4q3 -5 1 -5q-2 -3 -18.5 10t-18.5 10q2 -11 28.5 -26.5 t29.5 -18.5q-17 0 -41 12q-95 67 -150 160q-17 23 -13 23q1 0 6 -3q11 -5 11 -1q-83 173 -77 440zM152 1602q-4 63 55 71q18 -3 58 14t61 3q39 -36 98 -111.5t84 -148.5l-10 -44q-15 -6 -21.5 -13.5t-7 -12.5t2.5 -15t3 -12q-3 -17 -8 -23.5t-12 -2.5t-12.5 9.5t-12.5 14.5 t-10 12q-39 25 -77 65.5t-48 49.5q-13 13 -37 35t-49 47t-57 62zM244 100q-5 -2 1 -8.5t19 -16.5t17 -14q-12 3 -11 -1q0 -4 9 -9q11 -7 21 -1q5 3 -3 7q-41 36 -53 43z" />
<glyph unicode="&#xd3;" horiz-adv-x="860" d="M25 639q3 91 18 192q15 123 82 279q8 19 31.5 51.5t29.5 42.5q41 64 72 82q1 3 2 10.5t2 10.5q13 10 34 7.5t33 -7t32.5 -13.5t31.5 -12q12 -5 33 -12t36.5 -13t26.5 -14q7 -18 34 -30t34 -19q1 -4 5 -12t4 -10.5t-3 -12.5q3 -10 14 -21t15 -18q-4 -9 -11.5 -17.5 t-14 -13.5t-19 -14.5t-17.5 -13.5q-12 -11 -23.5 -24t-24.5 -32t-20 -29.5t-23 -36.5t-21 -34q-48 -88 -67.5 -193t-10.5 -255q8 -121 61 -205q41 -67 93 -70q22 -1 36.5 6t27.5 20.5t20 18.5q84 113 110 275q47 299 -20 526q-46 164 -88 225l-35 52q-3 4 -13.5 16.5t-16 21 t-5.5 13.5q-1 11 7 16.5t16 6.5t20 1q3 3 -2.5 10t-3.5 9q26 9 55 -17.5t49 -58.5q2 -3 10 -18.5t13 -22.5q4 -6 14 -17.5t14 -17.5q31 -54 54 -117q73 -202 78 -428q3 -162 -29 -325q-25 -132 -90 -244q-4 -7 -10.5 -15t-15.5 -16.5t-13 -13.5q-14 -16 -36 -40t-36 -40 q-28 -5 -49.5 -19t-75.5 -14q-93 8 -114 23q-7 4 2 8q-8 8 -25.5 20t-24.5 19q-4 -3 2.5 -9.5t4.5 -8.5t-8.5 0.5t-8.5 1.5q-2 -2 3.5 -6.5t12 -10t5.5 -8.5q-7 1 -17.5 7.5t-23.5 16t-15 11.5q-8 6 -7 3q0 -1 2 -4q3 -5 1 -5q-2 -3 -18.5 10t-18.5 10q2 -11 28.5 -26.5 t29.5 -18.5q-17 0 -41 12q-95 67 -150 160q-17 23 -13 23q1 0 6 -3q11 -5 11 -1q-83 173 -77 440zM244 100q-5 -2 1 -8.5t19 -16.5t17 -14q-12 3 -11 -1q0 -4 9 -9q11 -7 21 -1q5 3 -3 7q-41 36 -53 43zM284 1432.5q-6 7.5 7 23.5q58 72 112 114t132 83q75 38 142 57 q11 2 11 0q1 -5 8 -11t9.5 -10.5t-0.5 -19.5q6 0 16.5 9t15.5 5q-11 -48 -37 -69q-49 -75 -188 -199q-46 -40 -93 -50.5t-73.5 0.5t-28.5 28q0 9 -13.5 20.5t-19.5 19z" />
<glyph unicode="&#xd4;" horiz-adv-x="860" d="M25 639q3 91 18 192q15 123 82 279q8 19 31.5 51.5t29.5 42.5q41 64 72 82q1 3 2 10.5t2 10.5q13 10 34 7.5t33 -7t32.5 -13.5t31.5 -12q12 -5 33 -12t36.5 -13t26.5 -14q7 -18 34 -30t34 -19q1 -4 5 -12t4 -10.5t-3 -12.5q3 -10 14 -21t15 -18q-4 -9 -11.5 -17.5 t-14 -13.5t-19 -14.5t-17.5 -13.5q-12 -11 -23.5 -24t-24.5 -32t-20 -29.5t-23 -36.5t-21 -34q-48 -88 -67.5 -193t-10.5 -255q8 -121 61 -205q41 -67 93 -70q22 -1 36.5 6t27.5 20.5t20 18.5q84 113 110 275q47 299 -20 526q-46 164 -88 225l-35 52q-3 4 -13.5 16.5t-16 21 t-5.5 13.5q-1 11 7 16.5t16 6.5t20 1q3 3 -2.5 10t-3.5 9q26 9 55 -17.5t49 -58.5q2 -3 10 -18.5t13 -22.5q4 -6 14 -17.5t14 -17.5q31 -54 54 -117q73 -202 78 -428q3 -162 -29 -325q-25 -132 -90 -244q-4 -7 -10.5 -15t-15.5 -16.5t-13 -13.5q-14 -16 -36 -40t-36 -40 q-28 -5 -49.5 -19t-75.5 -14q-93 8 -114 23q-7 4 2 8q-8 8 -25.5 20t-24.5 19q-4 -3 2.5 -9.5t4.5 -8.5t-8.5 0.5t-8.5 1.5q-2 -2 3.5 -6.5t12 -10t5.5 -8.5q-7 1 -17.5 7.5t-23.5 16t-15 11.5q-8 6 -7 3q0 -1 2 -4q3 -5 1 -5q-2 -3 -18.5 10t-18.5 10q2 -11 28.5 -26.5 t29.5 -18.5q-17 0 -41 12q-95 67 -150 160q-17 23 -13 23q1 0 6 -3q11 -5 11 -1q-83 173 -77 440zM242 1425q-17 42 1 71q3 5 7 9q37 28 110 101q127 133 144 125q2 -3 25.5 -8t25.5 -7q21 -17 60.5 -53.5t46.5 -42.5q49 -39 124 -92q69 -48 80 -60q10 -10 -23.5 -30.5 t-81 -35t-71.5 -7.5q-30 0 -89 40.5t-120 98.5q-11 -10 -41.5 -37t-52.5 -49q-16 -17 -46.5 -34.5t-43.5 -29.5q-6 -6 -11 -3.5t-7 8.5t-4.5 10.5t-4.5 3.5q-16 -9 -28 22zM244 100q-5 -2 1 -8.5t19 -16.5t17 -14q-12 3 -11 -1q0 -4 9 -9q11 -7 21 -1q5 3 -3 7 q-41 36 -53 43z" />
<glyph unicode="&#xd5;" horiz-adv-x="860" d="M25 639q3 91 18 192q15 123 82 279q8 19 31.5 51.5t29.5 42.5q41 64 72 82q1 3 2 10.5t2 10.5q13 10 34 7.5t33 -7t32.5 -13.5t31.5 -12q12 -5 33 -12t36.5 -13t26.5 -14q7 -18 34 -30t34 -19q1 -4 5 -12t4 -10.5t-3 -12.5q3 -10 14 -21t15 -18q-4 -9 -11.5 -17.5 t-14 -13.5t-19 -14.5t-17.5 -13.5q-12 -11 -23.5 -24t-24.5 -32t-20 -29.5t-23 -36.5t-21 -34q-48 -88 -67.5 -193t-10.5 -255q8 -121 61 -205q41 -67 93 -70q22 -1 36.5 6t27.5 20.5t20 18.5q84 113 110 275q47 299 -20 526q-46 164 -88 225l-35 52q-3 4 -13.5 16.5t-16 21 t-5.5 13.5q-1 11 7 16.5t16 6.5t20 1q3 3 -2.5 10t-3.5 9q26 9 55 -17.5t49 -58.5q2 -3 10 -18.5t13 -22.5q4 -6 14 -17.5t14 -17.5q31 -54 54 -117q73 -202 78 -428q3 -162 -29 -325q-25 -132 -90 -244q-4 -7 -10.5 -15t-15.5 -16.5t-13 -13.5q-14 -16 -36 -40t-36 -40 q-28 -5 -49.5 -19t-75.5 -14q-93 8 -114 23q-7 4 2 8q-8 8 -25.5 20t-24.5 19q-4 -3 2.5 -9.5t4.5 -8.5t-8.5 0.5t-8.5 1.5q-2 -2 3.5 -6.5t12 -10t5.5 -8.5q-7 1 -17.5 7.5t-23.5 16t-15 11.5q-8 6 -7 3q0 -1 2 -4q3 -5 1 -5q-2 -3 -18.5 10t-18.5 10q2 -11 28.5 -26.5 t29.5 -18.5q-17 0 -41 12q-95 67 -150 160q-17 23 -13 23q1 0 6 -3q11 -5 11 -1q-83 173 -77 440zM190 1497q7 43 34 84.5t47 60.5t34 27q22 14 41.5 19t42.5 -1t35.5 -11.5t42.5 -22.5t41 -23q80 -43 125 -26q38 16 63 71q4 3 8.5 0t8.5 -9t6 -7q17 7 18 10q0 -49 6 -50 q2 -1 9 9q3 2 4 2l26 -18l-2 -25q-3 -4 -12.5 -23.5t-18.5 -33.5t-31 -35t-52 -37q-40 -23 -100 -23t-115 21q-79 28 -127 -24q-56 -64 -56 -46q-24 0 -31 10t-2.5 21.5t4 20t-11.5 6.5q-2 7 -16 28.5t-21 24.5zM244 100q-5 -2 1 -8.5t19 -16.5t17 -14q-12 3 -11 -1 q0 -4 9 -9q11 -7 21 -1q5 3 -3 7q-41 36 -53 43z" />
<glyph unicode="&#xd6;" horiz-adv-x="860" d="M25 639q3 91 18 192q15 123 82 279q8 19 31.5 51.5t29.5 42.5q41 64 72 82q1 3 2 10.5t2 10.5q13 10 34 7.5t33 -7t32.5 -13.5t31.5 -12q12 -5 33 -12t36.5 -13t26.5 -14q7 -18 34 -30t34 -19q1 -4 5 -12t4 -10.5t-3 -12.5q3 -10 14 -21t15 -18q-4 -9 -11.5 -17.5 t-14 -13.5t-19 -14.5t-17.5 -13.5q-12 -11 -23.5 -24t-24.5 -32t-20 -29.5t-23 -36.5t-21 -34q-48 -88 -67.5 -193t-10.5 -255q8 -121 61 -205q41 -67 93 -70q22 -1 36.5 6t27.5 20.5t20 18.5q84 113 110 275q47 299 -20 526q-46 164 -88 225l-35 52q-3 4 -13.5 16.5t-16 21 t-5.5 13.5q-1 11 7 16.5t16 6.5t20 1q3 3 -2.5 10t-3.5 9q26 9 55 -17.5t49 -58.5q2 -3 10 -18.5t13 -22.5q4 -6 14 -17.5t14 -17.5q31 -54 54 -117q73 -202 78 -428q3 -162 -29 -325q-25 -132 -90 -244q-4 -7 -10.5 -15t-15.5 -16.5t-13 -13.5q-14 -16 -36 -40t-36 -40 q-28 -5 -49.5 -19t-75.5 -14q-93 8 -114 23q-7 4 2 8q-8 8 -25.5 20t-24.5 19q-4 -3 2.5 -9.5t4.5 -8.5t-8.5 0.5t-8.5 1.5q-2 -2 3.5 -6.5t12 -10t5.5 -8.5q-7 1 -17.5 7.5t-23.5 16t-15 11.5q-8 6 -7 3q0 -1 2 -4q3 -5 1 -5q-2 -3 -18.5 10t-18.5 10q2 -11 28.5 -26.5 t29.5 -18.5q-17 0 -41 12q-95 67 -150 160q-17 23 -13 23q1 0 6 -3q11 -5 11 -1q-83 173 -77 440zM174 1513q15 -45 33 -43q-29 52 -14 82q12 -1 18.5 11.5t7.5 13.5q10 -2 18.5 1.5t17 11t13.5 9.5q44 13 71 10t62 -30q34 -32 52 -89q17 -54 -12 -53q-7 0 -17 5 q-1 -1 -3.5 -13t-8.5 -16q-10 -5 -30 -18t-37 -21.5t-34 -13.5q-18 11 -21 8q-3 -2 -5 -8h-17q-11 16 -40 43.5t-43.5 52.5t-10.5 57zM244 100q-5 -2 1 -8.5t19 -16.5t17 -14q-12 3 -11 -1q0 -4 9 -9q11 -7 21 -1q5 3 -3 7q-41 36 -53 43zM526 1519.5q-3 32.5 31 55.5 q0 6 4.5 15.5t5.5 11.5q8 5 32 24.5t44.5 27t44.5 -0.5q1 0 6.5 3t8 3t10.5 -2q9 -13 45.5 -44.5t46.5 -56.5v-40q-25 -41 -39 -49q-16 -10 -35 -3l-10 -9q-10 -9 -16 -11q-24 -5 -39 -4t-29 14q-37 -14 -72.5 9.5t-38.5 56zM547 1548q0 -49 37 -57q6 14 -8.5 34t-16.5 27 q-2 0 -6 -2t-6 -2z" />
<glyph unicode="&#xd7;" horiz-adv-x="821" d="M35 987q1 10 5.5 19.5t11.5 16.5t13 12t13 9t8 5q-17 19 35 41q3 1 4 2q42 17 98 -3.5t96 -52.5t64 -63q27 -33 82 -92q52 66 123 163q34 49 51 89q6 14 37 -2t59.5 -55t26.5 -79q0 -7 -2 -15t-4.5 -15t-8 -17t-9 -16.5t-11 -17.5t-12 -17t-13.5 -18.5t-13 -17.5 l-14 -17.5t-13 -16.5l-76 -92q4 -4 12 -16q80 -127 120.5 -195t57.5 -111t11 -56t-31 -19q19 -25 21.5 -37t-7 -14t-22 -2t-24 -5.5t-13.5 -19.5q6 -28 -28 -21q-48 10 -121 64q-16 12 -23 19q-28 28 -60 59t-44.5 43.5t-26.5 28.5t-25 32q-143 -172 -174 -196 q-14 -20 -29 -28.5t-26 -7t-20 7.5t-13.5 13.5t-5.5 12.5q3 13 -2 18.5t-11 4.5t-7.5 4t9.5 18q-21 2 -35 22.5t-1 42.5q10 13 37 45.5t73.5 87.5t85.5 103q-35 43 -63 84q-27 38 -66 89.5t-55.5 74t-30 51.5t-14.5 53z" />
<glyph unicode="&#xd8;" horiz-adv-x="802" d="M49 805q48 331 236 516q27 25 98 80q4 6 16 3t19 -6.5t18 -10.5t15 -9q5 -3 13 -6t11 -4q14 -7 30.5 -20t38 -33t27.5 -25q16 7 29 0.5t25.5 -32t17 -38t15.5 -47.5q2 -6 3.5 -10t2.5 -8q3 6 28 51q23 42 37 54q6 9 16.5 20.5t12.5 13.5q10 8 10 21q3 3 12 5t13 5 q5 -4 9.5 -11.5t9.5 -19.5t7 -16q0 -12 6 -18q0 -55 -2 -62q-6 -34 -34.5 -87.5t-34.5 -72.5q-7 -11 -31 -65q27 -111 35 -205q1 -14 4.5 -65t3.5 -76q0 -93 -16 -209.5t-27 -147.5q-13 -44 -27 -75q-28 -57 -92 -144q-35 -45 -41 -49q-5 -5 -24.5 -14t-22.5 -19 q-11 -2 -43 -12t-51 -10q-9 0 -24.5 6.5t-20.5 7.5h-17q-9 2 -24.5 7.5t-20.5 6.5l-8 -22q-3 -5 -9 -18t-11 -21.5t-12 -18.5t-13.5 -14t-13.5 -2q-3 -2 -11.5 -12t-15.5 -12q-7 -7 -15.5 -18t-15.5 -18.5t-16 -11.5q-2 0 -3 4t-3 5q-2 -8 -12 -8t-11 -1q-4 16 -4 25 q-3 -1 -4 0t-3.5 4t-4.5 4q-2 8 0 24.5t2.5 20t4 21t5.5 26.5q16 31 62 142q-54 63 -81 120t-50 148q-56 233 -23 463zM354 586q0 -50 11 -125q170 418 227 545l14 28q-2 4 -8.5 24.5t-11.5 31.5q-43 -22 -81.5 -59.5t-73.5 -96.5t-56 -149t-21 -199zM403 -12q7 -9 19.5 -11 t29 -2t25.5 -2q2 4 8.5 5.5t6.5 9.5q-11 1 -42.5 0t-46.5 0zM430 264q24 -44 66 -63q30 10 53 41q30 38 63 141q57 177 37 420q-44 -108 -219 -539z" />
<glyph unicode="&#xd9;" d="M14 1239q9 0 13 8q-4 5 0 13t-4 10q0 4 7 6t9 6q-3 11 4 20t19 18.5t16 16.5q2 1 3 -1.5t3 -2.5q2 1 4 7.5t2 7.5q11 -3 16 -2.5t16 4t17 4.5q20 -10 33 -4q11 -6 23.5 -9t31 -5t23.5 -3q22 -7 54.5 -28.5t43.5 -26.5q9 -13 11.5 -35.5t0.5 -37t-6 -42.5q0 -5 11 -12 q-10 -20 -12 -43t1.5 -60t3.5 -57q4 -64 1 -304.5t10 -330.5q4 -42 41 -110q4 -3 12.5 -9t13 -9t13 -6t18.5 -3q62 0 97.5 43.5t60.5 124.5q10 32 20 170q1 42 -2.5 291t-3.5 282q0 134 14 187q6 4 17.5 7t18.5 6.5t7 10.5q7 3 11 -4l2 -2q5 18 23 15t24 -21q4 -1 5 -0.5 t1.5 3t0.5 4.5t1 3.5t4 1.5q4 -9 8.5 -23t7.5 -20q1 -1 8.5 -9t8.5 -13q4 -10 4 -39q1 -20 5.5 -80t4.5 -94q0 -32 0.5 -118t1 -154.5t-0.5 -148t-4 -137.5t-9 -83q-12 -59 -25 -96q-12 -47 -28 -80q-5 -15 -33 -58q-4 -6 -11.5 -19t-10 -18t-8.5 -14t-11 -14.5t-12.5 -13 t-16.5 -15.5q-38 -34 -57 -47q-26 -21 -77.5 -38.5t-98.5 -22.5q-12 -2 -43 -2q-26 0 -63.5 8t-51.5 18q-76 53 -102 86q-6 8 -17 31t-18 33q-17 28 -39 96q-1 3 -9.5 29t-9.5 41q-9 83 -9.5 183.5t3.5 229t4 191.5q0 129 -14 227q-6 24 -6 25q-3 32 -25 57zM193.5 1502 q3.5 17 11 28.5t17.5 30.5t14 34q8 37 30 53.5t41 -3.5q24 4 76 -53.5t94 -116.5q8 -12 27.5 -41t35.5 -55t33 -56q16 -26 13 -39q3 -14 -6 -18t-19 8q-14 6 -13 -6q0 -4 4 -16q5 -16 1 -16q-2 0 -4 1q-3 3 -15.5 -8t-21.5 -2q-19 18 -63.5 66t-72.5 76t-32 22q0 -2 15 -20 q11 -14 0 -13h-3q27 -37 7 -28q-34 16 -123 100q-34 32 -41 43q-9 12 -5.5 29zM285 1624l2 -8q9 0 65.5 -58.5t61.5 -60.5q0 1 4 6t0 6q-6 1 -61 60t-62 61q0 -3 -10 -6zM354 23q3 -9 18.5 -10t18.5 5q-6 -1 -18.5 2t-18.5 3zM406 20q2 -2 6 -3q3 -1 2 -7q74 10 82 31 q-14 -6 -46 -11t-44 -10zM508 37q41 4 86.5 39t60.5 65q-29 -25 -63 -48.5t-57 -37.5t-27 -18z" />
<glyph unicode="&#xda;" d="M14 1239q9 0 13 8q-4 5 0 13t-4 10q0 4 7 6t9 6q-3 11 4 20t19 18.5t16 16.5q2 1 3 -1.5t3 -2.5q2 1 4 7.5t2 7.5q11 -3 16 -2.5t16 4t17 4.5q20 -10 33 -4q11 -6 23.5 -9t31 -5t23.5 -3q22 -7 54.5 -28.5t43.5 -26.5q9 -13 11.5 -35.5t0.5 -37t-6 -42.5q0 -5 11 -12 q-10 -20 -12 -43t1.5 -60t3.5 -57q4 -64 1 -304.5t10 -330.5q4 -42 41 -110q4 -3 12.5 -9t13 -9t13 -6t18.5 -3q62 0 97.5 43.5t60.5 124.5q10 32 20 170q1 42 -2.5 291t-3.5 282q0 134 14 187q6 4 17.5 7t18.5 6.5t7 10.5q7 3 11 -4l2 -2q5 18 23 15t24 -21q4 -1 5 -0.5 t1.5 3t0.5 4.5t1 3.5t4 1.5q4 -9 8.5 -23t7.5 -20q1 -1 8.5 -9t8.5 -13q4 -10 4 -39q1 -20 5.5 -80t4.5 -94q0 -32 0.5 -118t1 -154.5t-0.5 -148t-4 -137.5t-9 -83q-12 -59 -25 -96q-12 -47 -28 -80q-5 -15 -33 -58q-4 -6 -11.5 -19t-10 -18t-8.5 -14t-11 -14.5t-12.5 -13 t-16.5 -15.5q-38 -34 -57 -47q-26 -21 -77.5 -38.5t-98.5 -22.5q-12 -2 -43 -2q-26 0 -63.5 8t-51.5 18q-76 53 -102 86q-6 8 -17 31t-18 33q-17 28 -39 96q-1 3 -9.5 29t-9.5 41q-9 83 -9.5 183.5t3.5 229t4 191.5q0 129 -14 227q-6 24 -6 25q-3 32 -25 57zM354 23 q3 -9 18.5 -10t18.5 5q-6 -1 -18.5 2t-18.5 3zM387 1409q34 33 70.5 61.5t61.5 44t71 43.5t74 46q10 6 62.5 30.5t84.5 42.5q21 -6 -35 -36q-3 -1 -9 -4l-5 -3q-3 -8 6 -8q5 1 23 8q24 9 28 6q16 7 17 -15q1 -13 -5 -28q7 -1 18 7t15 4q-3 -11 3 -21.5t10 -14.5t-5 -13 q4 -9 -27 -37t-97 -79.5t-91 -72.5q-172 -145 -209 -99q-4 5 -6 13q-1 6 -7.5 12.5t-12.5 11.5t-16.5 12.5t-14.5 10.5q-41 47 -4 78zM406 20q2 -2 6 -3q3 -1 2 -7q74 10 82 31q-14 -6 -46 -11t-44 -10zM508 37q41 4 86.5 39t60.5 65q-29 -25 -63 -48.5t-57 -37.5t-27 -18z " />
<glyph unicode="&#xdb;" d="M14 1239q9 0 13 8q-4 5 0 13t-4 10q0 4 7 6t9 6q-3 11 4 20t19 18.5t16 16.5q2 1 3 -1.5t3 -2.5q2 1 4 7.5t2 7.5q11 -3 16 -2.5t16 4t17 4.5q20 -10 33 -4q11 -6 23.5 -9t31 -5t23.5 -3q22 -7 54.5 -28.5t43.5 -26.5q9 -13 11.5 -35.5t0.5 -37t-6 -42.5q0 -5 11 -12 q-10 -20 -12 -43t1.5 -60t3.5 -57q4 -64 1 -304.5t10 -330.5q4 -42 41 -110q4 -3 12.5 -9t13 -9t13 -6t18.5 -3q62 0 97.5 43.5t60.5 124.5q10 32 20 170q1 42 -2.5 291t-3.5 282q0 134 14 187q6 4 17.5 7t18.5 6.5t7 10.5q7 3 11 -4l2 -2q5 18 23 15t24 -21q4 -1 5 -0.5 t1.5 3t0.5 4.5t1 3.5t4 1.5q4 -9 8.5 -23t7.5 -20q1 -1 8.5 -9t8.5 -13q4 -10 4 -39q1 -20 5.5 -80t4.5 -94q0 -32 0.5 -118t1 -154.5t-0.5 -148t-4 -137.5t-9 -83q-12 -59 -25 -96q-12 -47 -28 -80q-5 -15 -33 -58q-4 -6 -11.5 -19t-10 -18t-8.5 -14t-11 -14.5t-12.5 -13 t-16.5 -15.5q-38 -34 -57 -47q-26 -21 -77.5 -38.5t-98.5 -22.5q-12 -2 -43 -2q-26 0 -63.5 8t-51.5 18q-76 53 -102 86q-6 8 -17 31t-18 33q-17 28 -39 96q-1 3 -9.5 29t-9.5 41q-9 83 -9.5 183.5t3.5 229t4 191.5q0 129 -14 227q-6 24 -6 25q-3 32 -25 57zM98 1433 q-12 18 8 19q20 0 84 57q28 26 97 99q4 7 12.5 16.5t15 16.5t11.5 16t5 20t-7 23q-17 19 31 31q62 17 124 9q17 -3 25 -7q27 -30 108 -111q19 -19 52 -46t41 -34q35 -31 88 -84q13 -13 5.5 -20t-16.5 -9t4 -16q-5 -12 -32.5 -3t-28.5 9l-3 -4l-8.5 -8.5l-9 -9t-8 -6.5 t-4.5 0q-7 -8 -13.5 -6.5t-10.5 5.5t-4 7q-15 -2 -28.5 -9.5t-21 -6t-22.5 15.5q-28 27 -51.5 48t-64.5 55t-60 50q-52 -49 -103 -92q-17 -15 -39.5 -32.5t-37.5 -30.5q-19 -16 -50 -6q-64 15 -88 44zM354 23q3 -9 18.5 -10t18.5 5q-6 -1 -18.5 2t-18.5 3zM406 20q2 -2 6 -3 q3 -1 2 -7q74 10 82 31q-14 -6 -46 -11t-44 -10zM508 37q41 4 86.5 39t60.5 65q-29 -25 -63 -48.5t-57 -37.5t-27 -18z" />
<glyph unicode="&#xdc;" d="M14 1239q9 0 13 8q-4 5 0 13t-4 10q0 4 7 6t9 6q-3 11 4 20t19 18.5t16 16.5q2 1 3 -1.5t3 -2.5q2 1 4 7.5t2 7.5q11 -3 16 -2.5t16 4t17 4.5q20 -10 33 -4q11 -6 23.5 -9t31 -5t23.5 -3q22 -7 54.5 -28.5t43.5 -26.5q9 -13 11.5 -35.5t0.5 -37t-6 -42.5q0 -5 11 -12 q-10 -20 -12 -43t1.5 -60t3.5 -57q4 -64 1 -304.5t10 -330.5q4 -42 41 -110q4 -3 12.5 -9t13 -9t13 -6t18.5 -3q62 0 97.5 43.5t60.5 124.5q10 32 20 170q1 42 -2.5 291t-3.5 282q0 134 14 187q6 4 17.5 7t18.5 6.5t7 10.5q7 3 11 -4l2 -2q5 18 23 15t24 -21q4 -1 5 -0.5 t1.5 3t0.5 4.5t1 3.5t4 1.5q4 -9 8.5 -23t7.5 -20q1 -1 8.5 -9t8.5 -13q4 -10 4 -39q1 -20 5.5 -80t4.5 -94q0 -32 0.5 -118t1 -154.5t-0.5 -148t-4 -137.5t-9 -83q-12 -59 -25 -96q-12 -47 -28 -80q-5 -15 -33 -58q-4 -6 -11.5 -19t-10 -18t-8.5 -14t-11 -14.5t-12.5 -13 t-16.5 -15.5q-38 -34 -57 -47q-26 -21 -77.5 -38.5t-98.5 -22.5q-12 -2 -43 -2q-26 0 -63.5 8t-51.5 18q-76 53 -102 86q-6 8 -17 31t-18 33q-17 28 -39 96q-1 3 -9.5 29t-9.5 41q-9 83 -9.5 183.5t3.5 229t4 191.5q0 129 -14 227q-6 24 -6 25q-3 32 -25 57zM191 1468 q0 46 24 91q11 22 41 36.5t41 14.5q3 -6 6.5 -4.5t8 5t12.5 -0.5q75 -23 100 -54q4 -5 8 4.5t9 15.5t18 -11q15 -30 5 -96t-36 -101q-22 -27 -50.5 -25.5t-76.5 27.5l-78 41q-32 11 -32 57zM354 23q3 -9 18.5 -10t18.5 5q-6 -1 -18.5 2t-18.5 3zM406 20q2 -2 6 -3q3 -1 2 -7 q74 10 82 31q-14 -6 -46 -11t-44 -10zM508 37q41 4 86.5 39t60.5 65q-29 -25 -63 -48.5t-57 -37.5t-27 -18zM535 1489q0 20 13.5 42.5t36 48.5t29.5 36q5 3 9.5 -0.5t15 -12.5t23.5 -16q27 -14 61 -19t49 -16q20 -15 33 -38t15.5 -48t-17.5 -48t-62 -34q-82 -21 -144 8.5 t-62 96.5z" />
<glyph unicode="&#xdd;" horiz-adv-x="888" d="M1 1294q-2 5 4 10t10.5 7.5t13 6t12.5 5.5q22 11 64.5 15t72.5 -1q32 -4 56.5 -9t43 -11t28.5 -10t26.5 -12.5t21.5 -10.5q23 -18 29 -22q10 -15 11.5 -32.5t-0.5 -39.5t-1 -35q3 -29 13.5 -70t25.5 -85t27 -77.5t25 -67.5t14 -36q1 -3 18 -42t29 -56q12 35 52 129 t58 151q5 21 13.5 43.5t21 52.5t17.5 44q9 22 27.5 82.5t33.5 87.5q4 5 7.5 18t9.5 18t20 3q8 -1 18 -10.5t15 -12.5q5 -2 12.5 -4.5t13 -4t10 -4.5t5.5 -7q10 -23 0 -43q-7 -15 -18 -49.5t-17 -49.5q-36 -90 -64 -200q-17 -51 -70.5 -201t-68.5 -184l-14 -27 q-2 -9 -10 -143t-15 -158q11 -116 -2 -205q-9 1 -23 -10t-18 -12q-3 -1 -26 -5.5t-31 -15.5q-7 8 -24.5 1.5t-22.5 -5.5q-5 -12 -18 -15t-23 9q-38 -19 -75 -6t-46 49q-3 10 -4.5 24.5t-3 34.5t-2.5 33q-1 38 1.5 124t2.5 114q1 10 3.5 40t3 47t0 41.5t-5 43.5t-12.5 34 q-22 33 -70 124.5t-77 164.5q-26 60 -61 170q-15 46 -21 94q-2 12 -6 53t-11.5 65.5t-23.5 35.5q-3 9 -5 14zM416.5 1337q2.5 12 5.5 17t12 18q46 45 92.5 80t78 54t106.5 61q64 35 102 47q1 -4 9.5 -16t2.5 -27q7 -1 18 6.5t15 3.5q-3 -11 3 -21.5t10 -14.5t-5 -13 q-19 -54 -41 -85q-40 -53 -120 -114q-16 -11 -22.5 -16t-16.5 -19.5t-13 -31.5q-19 -26 -67.5 -26.5t-91 15.5t-50.5 33q-16 14 -23 25.5t-4.5 23.5z" />
<glyph unicode="&#xde;" horiz-adv-x="768" d="M49 37q5 4 8.5 10.5t6 15.5t4.5 13q-8 42 -5.5 168.5t0.5 183.5l-10 514q0 12 4 38t4 40q9 166 31 227q1 4 5.5 12.5t6.5 12.5q2 6 6 27.5t10.5 30t22.5 7.5q2 23 4 23q1 0 3 2.5t4.5 3.5t5.5 -2q9 -7 29 -16t30 -17q20 -14 52 -3t46 -3q1 -9 5.5 -11t11 0l13 4 t12.5 -0.5t8 -12.5q3 -11 -9.5 -122t-9.5 -124q125 -15 197 -60q50 -28 73 -51q126 -126 123 -305q-1 -69 -16.5 -116.5t-46.5 -98.5q-32 -55 -89.5 -93t-118.5 -56.5t-146 -32.5q-7 -43 -1 -131t-8 -117q-9 6 -26.5 5.5t-34.5 2.5q-17 -19 -74.5 -7.5t-83.5 3.5 q-27 12 -47 35zM331 682.5q-2 -163.5 3 -315.5q140 72 151 262q6 97 -45.5 166.5t-97.5 64.5q-9 -14 -11 -177.5z" />
<glyph unicode="&#xdf;" horiz-adv-x="1038" d="M66 344.5q-2 197.5 0 292.5q4 227 26 319q33 132 115 234q9 11 25 30.5t29 34t28 27.5q18 21 43 43q4 3 18 16t20 18.5t15.5 16.5t15.5 21q40 -19 121.5 -41t114.5 -35q74 -27 119 -61q112 -76 182 -207q25 -40 25 -56q-3 -28 -39 -59q-2 -2 -18.5 -16t-22 -19t-20 -19 t-21 -22t-17 -22.5t-15.5 -25.5t-9 -25.5t-4 -28.5q0 -23 31.5 -74t77.5 -115t63 -96q46 -88 45 -188t-45 -174q-49 -82 -143.5 -126t-204.5 -14q-91 23 -140 107q-45 80 -24 192q3 19 7.5 26t7.5 4.5t6.5 -4t4.5 0.5q1 3 6 17q16 48 21 49q4 0 4 -21q0 -9 4 -10.5t9.5 2 t11 6t7.5 2t-1 -9.5q1 -7 -0.5 -20t1 -19.5t11.5 -11.5q-18 -44 -4 -93t53 -67q30 -13 58.5 -7.5t46.5 23.5q42 41 36.5 111.5t-57.5 157.5q-8 13 -63 92.5t-81 137t-26 112.5q0 32 11.5 62t34.5 59.5t43 50t54 52.5t50 48q-25 39 -63 65.5t-64 26.5q-55 0 -97 -42.5 t-77 -137.5q-37 -103 -48.5 -339.5t-5.5 -338.5q0 -29 3 -110.5t1 -122.5q-34 -41 -159 -37q-73 5 -119 63q3 14 -4 35.5t-8 28.5q-4 34 -6 231.5z" />
<glyph unicode="&#xe0;" horiz-adv-x="749" d="M-16 10q31 19 73 209q46 206 94 501.5t70 403.5q2 8 11.5 36t9.5 42q2 19 1 34t1 31.5t10 28.5q6 11 33.5 30t40.5 20q16 5 42 7t46 -3q7 -3 27.5 -25t25.5 -31q11 -22 47 -106q4 -11 12 -34t13.5 -41.5t9.5 -35.5q5 -21 8.5 -44.5t7 -54t6.5 -48.5q5 -42 50 -365 q2 -15 10 -44t10 -40q22 -135 27 -153q6 -31 23 -92t27 -111t7 -90q-1 0 -5 -3t-5.5 -4t-4.5 -3.5t-4.5 -4t-3.5 -4t-3 -5t-1 -5.5q-21 -1 -36.5 -12t-18.5 -23q-15 1 -35.5 13t-29.5 14q-3 -1 -1 -6.5t-1 -7.5q-10 6 -56 26q-2 -2 -4 -5.5t-4 -5t-8 -1.5q-5 3 -7 9.5 t-7 10.5q-3 7 -14.5 15t-14.5 12q-8 17 -13 67.5t-8 61.5q-49 1 -143.5 7t-128.5 7q-15 -97 -29 -133q-17 -39 -45 -55q-27 -16 -59 -21t-45 1q-4 2 -3 4t4.5 6.5t2.5 7.5q-1 5 -6.5 6t-5.5 6zM152 1581q0 13 6.5 18.5t17.5 18.5t19 43q8 22 44.5 36t67.5 1 q16 -9 107 -112.5t118 -127.5q3 -2 11.5 -6.5t11.5 -6.5t9.5 -6t8 -6.5t4 -6t0 -6.5t-6 -6t-12 -6.5t-19.5 -6.5q-2 0 -41 -6.5t-74 -1.5q-28 4 -51.5 11t-37 13t-39 19.5t-42.5 21.5q-102 50 -102 123zM201 328q76 10 192 10q-12 68 -33 191t-36 209t-23 116 q-21 -89 -52 -268.5t-48 -257.5z" />
<glyph unicode="&#xe1;" horiz-adv-x="749" d="M-16 10q31 19 73 209q46 206 94 501.5t70 403.5q2 8 11.5 36t9.5 42q2 19 1 34t1 31.5t10 28.5q6 11 33.5 30t40.5 20q16 5 42 7t46 -3q7 -3 27.5 -25t25.5 -31q11 -22 47 -106q4 -11 12 -34t13.5 -41.5t9.5 -35.5q5 -21 8.5 -44.5t7 -54t6.5 -48.5q5 -42 50 -365 q2 -15 10 -44t10 -40q22 -135 27 -153q6 -31 23 -92t27 -111t7 -90q-1 0 -5 -3t-5.5 -4t-4.5 -3.5t-4.5 -4t-3.5 -4t-3 -5t-1 -5.5q-21 -1 -36.5 -12t-18.5 -23q-15 1 -35.5 13t-29.5 14q-3 -1 -1 -6.5t-1 -7.5q-10 6 -56 26q-2 -2 -4 -5.5t-4 -5t-8 -1.5q-5 3 -7 9.5 t-7 10.5q-3 7 -14.5 15t-14.5 12q-8 17 -13 67.5t-8 61.5q-49 1 -143.5 7t-128.5 7q-15 -97 -29 -133q-17 -39 -45 -55q-27 -16 -59 -21t-45 1q-4 2 -3 4t4.5 6.5t2.5 7.5q-1 5 -6.5 6t-5.5 6zM201 328q76 10 192 10q-12 68 -33 191t-36 209t-23 116q-21 -89 -52 -268.5 t-48 -257.5zM212 1460.5q-2 26.5 11 44.5q47 73 228 113q122 26 188 65q7 -1 18 7t15 4q-3 -11 3 -21.5t10 -14.5t-5 -13q2 -11 1 -14.5t-7 -8.5t-8 -8q-2 -4 -0.5 -5.5t3 -2t5.5 -0.5q-1 -5 -4.5 -8t-10 -4.5t-8.5 -2.5q-43 -68 -84 -107.5t-92 -68.5q-54 -30 -79 -35 q-67 -12 -163 41q-19 13 -21 39.5z" />
<glyph unicode="&#xe2;" horiz-adv-x="749" d="M-16 10q31 19 73 209q46 206 94 501.5t70 403.5q2 8 11.5 36t9.5 42q2 19 1 34t1 31.5t10 28.5q6 11 33.5 30t40.5 20q16 5 42 7t46 -3q7 -3 27.5 -25t25.5 -31q11 -22 47 -106q4 -11 12 -34t13.5 -41.5t9.5 -35.5q5 -21 8.5 -44.5t7 -54t6.5 -48.5q5 -42 50 -365 q2 -15 10 -44t10 -40q22 -135 27 -153q6 -31 23 -92t27 -111t7 -90q-1 0 -5 -3t-5.5 -4t-4.5 -3.5t-4.5 -4t-3.5 -4t-3 -5t-1 -5.5q-21 -1 -36.5 -12t-18.5 -23q-15 1 -35.5 13t-29.5 14q-3 -1 -1 -6.5t-1 -7.5q-10 6 -56 26q-2 -2 -4 -5.5t-4 -5t-8 -1.5q-5 3 -7 9.5 t-7 10.5q-3 7 -14.5 15t-14.5 12q-8 17 -13 67.5t-8 61.5q-49 1 -143.5 7t-128.5 7q-15 -97 -29 -133q-17 -39 -45 -55q-27 -16 -59 -21t-45 1q-4 2 -3 4t4.5 6.5t2.5 7.5q-1 5 -6.5 6t-5.5 6zM120 1386.5q-2 24.5 30 53.5q55 42 110 100q4 7 12.5 16.5t15 16.5t11.5 16 t5 20t-7 23q33 13 41 39q5 0 10 -5.5t10 -4.5q7 18 21 20q4 -1 9 -6.5t9 -7.5q13 8 34 11.5t36 -1.5q2 -3 1 -7.5t1 -6.5q31 -26 92 -94q6 -7 90 -107l80 -90q5 -7 0 -12.5t-16.5 -12.5t-23.5 -13.5t-19.5 -14t-5.5 -14.5q0 -13 -6 -18t-18.5 -3t-25 6t-31 11t-30.5 10 q-12 12 -174 157q-10 -9 -28.5 -27.5t-33 -32t-32.5 -26.5q-28 -22 -62 -31.5t-63 -0.5q-40 12 -42 36.5zM201 328q76 10 192 10q-12 68 -33 191t-36 209t-23 116q-21 -89 -52 -268.5t-48 -257.5z" />
<glyph unicode="&#xe3;" horiz-adv-x="749" d="M-16 10q31 19 73 209q46 206 94 501.5t70 403.5q2 8 11.5 36t9.5 42q2 19 1 34t1 31.5t10 28.5q6 11 33.5 30t40.5 20q16 5 42 7t46 -3q7 -3 27.5 -25t25.5 -31q11 -22 47 -106q4 -11 12 -34t13.5 -41.5t9.5 -35.5q5 -21 8.5 -44.5t7 -54t6.5 -48.5q5 -42 50 -365 q2 -15 10 -44t10 -40q22 -135 27 -153q6 -31 23 -92t27 -111t7 -90q-1 0 -5 -3t-5.5 -4t-4.5 -3.5t-4.5 -4t-3.5 -4t-3 -5t-1 -5.5q-21 -1 -36.5 -12t-18.5 -23q-15 1 -35.5 13t-29.5 14q-3 -1 -1 -6.5t-1 -7.5q-10 6 -56 26q-2 -2 -4 -5.5t-4 -5t-8 -1.5q-5 3 -7 9.5 t-7 10.5q-3 7 -14.5 15t-14.5 12q-8 17 -13 67.5t-8 61.5q-49 1 -143.5 7t-128.5 7q-15 -97 -29 -133q-17 -39 -45 -55q-27 -16 -59 -21t-45 1q-4 2 -3 4t4.5 6.5t2.5 7.5q-1 5 -6.5 6t-5.5 6zM116.5 1353.5q-0.5 2.5 1 6.5t4.5 9t6 12.5t5 15.5q15 69 54.5 122.5t82.5 67.5 q60 17 150 -4q28 -7 39 -9t28 -1.5t31 8.5q43 25 55 66q6 3 9.5 0.5t8.5 -7.5t7 -6q16 6 18 13q6 0 2.5 -9.5t-0.5 -15.5q6 5 6 -4q1 -20 2 -20q2 0 7 6q1 -5 18.5 -12t18.5 -11t11.5 -9t13 -9t-6.5 -17q-4 -8 -3 -21t8 -25t14 -9q-10 -22 -45 -55.5t-82 -46.5 q-40 -12 -79 -6t-63.5 17t-52.5 23.5t-45 14.5q-8 3 -18 0.5t-15 -2t-13 -4.5t-11.5 -7t-10.5 -9l-10.5 -10.5t-10.5 -11.5t-11 -12q-25 -26 -60.5 -34.5t-58.5 2.5q-4 1 -4.5 3.5zM201 328q76 10 192 10q-12 68 -33 191t-36 209t-23 116q-21 -89 -52 -268.5t-48 -257.5z " />
<glyph unicode="&#xe4;" horiz-adv-x="749" d="M-16 10q31 19 73 209q46 206 94 501.5t70 403.5q2 8 11.5 36t9.5 42q2 19 1 34t1 31.5t10 28.5q6 11 33.5 30t40.5 20q16 5 42 7t46 -3q7 -3 27.5 -25t25.5 -31q11 -22 47 -106q4 -11 12 -34t13.5 -41.5t9.5 -35.5q5 -21 8.5 -44.5t7 -54t6.5 -48.5q5 -42 50 -365 q2 -15 10 -44t10 -40q22 -135 27 -153q6 -31 23 -92t27 -111t7 -90q-1 0 -5 -3t-5.5 -4t-4.5 -3.5t-4.5 -4t-3.5 -4t-3 -5t-1 -5.5q-21 -1 -36.5 -12t-18.5 -23q-15 1 -35.5 13t-29.5 14q-3 -1 -1 -6.5t-1 -7.5q-10 6 -56 26q-2 -2 -4 -5.5t-4 -5t-8 -1.5q-5 3 -7 9.5 t-7 10.5q-3 7 -14.5 15t-14.5 12q-8 17 -13 67.5t-8 61.5q-49 1 -143.5 7t-128.5 7q-15 -97 -29 -133q-17 -39 -45 -55q-27 -16 -59 -21t-45 1q-4 2 -3 4t4.5 6.5t2.5 7.5q-1 5 -6.5 6t-5.5 6zM26.5 1468.5q-4.5 37.5 18.5 69.5q29 39 53 47t42.5 -4t56 -27.5t79.5 -15.5 q6 -4 9 -16t4 -13q13 -32 7.5 -81.5t-30.5 -81.5q-14 -18 -27 -27.5t-27.5 -9.5t-25 2t-31 9.5t-32.5 10.5q-3 1 -25.5 23t-36.5 20q-7 5 -18.5 31t-16 63.5zM201 328q76 10 192 10q-12 68 -33 191t-36 209t-23 116q-21 -89 -52 -268.5t-48 -257.5zM399 1507q10 25 47 56 t46 45q8 2 10.5 2t7.5 -3t6 -3q24 8 44.5 0.5t44.5 -27.5t32 -25q1 -3 5.5 -11.5t4.5 -14.5q39 -64 41 -107t-24.5 -58.5t-65.5 -16.5t-81.5 14.5t-72.5 40.5q-24 19 -34.5 54.5t-10.5 53.5zM453 1530q18 4 28.5 7.5t20.5 14.5t10 27q-2 0 -6 2t-6 2q-3 -10 -27.5 -24.5 t-19.5 -28.5z" />
<glyph unicode="&#xe5;" horiz-adv-x="749" d="M-16 10q31 19 73 209q46 206 94 501.5t70 403.5q2 8 11.5 36t9.5 42q2 19 1 34t1 31.5t10 28.5q6 11 33.5 30t40.5 20q16 5 42 7t46 -3q7 -3 27.5 -25t25.5 -31q11 -22 47 -106q4 -11 12 -34t13.5 -41.5t9.5 -35.5q5 -21 8.5 -44.5t7 -54t6.5 -48.5q5 -42 50 -365 q2 -15 10 -44t10 -40q22 -135 27 -153q6 -31 23 -92t27 -111t7 -90q-1 0 -5 -3t-5.5 -4t-4.5 -3.5t-4.5 -4t-3.5 -4t-3 -5t-1 -5.5q-21 -1 -36.5 -12t-18.5 -23q-15 1 -35.5 13t-29.5 14q-3 -1 -1 -6.5t-1 -7.5q-10 6 -56 26q-2 -2 -4 -5.5t-4 -5t-8 -1.5q-5 3 -7 9.5 t-7 10.5q-3 7 -14.5 15t-14.5 12q-8 17 -13 67.5t-8 61.5q-49 1 -143.5 7t-128.5 7q-15 -97 -29 -133q-17 -39 -45 -55q-27 -16 -59 -21t-45 1q-4 2 -3 4t4.5 6.5t2.5 7.5q-1 5 -6.5 6t-5.5 6zM172 1686q29 81 137 129q19 8 123 30q49 10 46 -9q-1 -10 -13 -19 q66 -21 104.5 -60.5t38.5 -79.5v-98q-7 -76 -37 -113q-68 -62 -135 -77q-61 -16 -145 4q-74 19 -114.5 104.5t-4.5 188.5zM201 328q76 10 192 10q-12 68 -33 191t-36 209t-23 116q-21 -89 -52 -268.5t-48 -257.5zM328 1614q-7 -46 16 -77.5t57.5 -33t69.5 24.5q47 44 47 86 q0 14 -9 38t-9 31q-6 8 -8 20.5t4 20.5q-13 -6 -45.5 -19.5t-53.5 -23.5t-42 -28t-27 -39z" />
<glyph unicode="&#xe6;" horiz-adv-x="1165" d="M0 -6q-1 10 2.5 17.5t11.5 16t11 13.5q65 101 125 246q-14 0 -41.5 10t-36.5 10q-7 0 -19 11t-8 18q0 8 10.5 33t18.5 28q13 3 18 14.5t12 14.5q20 2 57.5 -4t49.5 -6q35 59 97 196t93 193q26 46 66.5 139t62.5 133q12 23 43 92q1 3 10.5 18.5t10.5 24.5q8 37 7 56.5 t-7.5 51t-7.5 44.5q82 9 151 -37q246 10 340 -14q11 -22 21 -25q2 0 10 1t14 1q4 -2 8.5 -11t8.5 -11q-6 -6 -21 -11q9 -10 5.5 -25t4.5 -22q-8 0 -15 -10t-9 -12q-17 -12 -70 -19.5t-90 -7.5q-10 0 -37.5 1t-47.5 0.5t-38 -3.5q7 -30 11.5 -67t6 -67t1 -76.5t-1.5 -70 t-3.5 -74.5t-3.5 -65q49 8 118.5 14t97.5 9q3 -1 5 -9t3 -10q4 0 9.5 3.5t12.5 1.5q-2 -31 27 -60q-3 -16 -2 -20q-7 -3 -18 -5.5t-19 -5.5q-1 -5 4.5 -7.5t5.5 -6.5q-25 -21 -51 -33q-14 3 -36 -6.5t-44 -9.5q-17 -1 -58.5 0.5t-58.5 -0.5v-6q4 -62 4 -90q0 -46 -8 -140 l4 -165q30 -4 92.5 -6t88.5 -5q8 -1 46 -10t62 -4q9 -6 15 -21.5t2 -25.5q10 -5 15 -16.5t9 -29t8 -26.5q-24 -4 -45 -29q-19 -1 -49 -10t-37 -10q-2 0 -8 6l-12 -6q-110 0 -293 -6l-19 -6q-6 -1 -17.5 -6.5t-16.5 -6.5q-6 -1 -88 -8q-4 -1 -12.5 -3.5t-12.5 -3t-10 0.5 q-38 7 -43 98q-2 18 -4.5 90.5t-8.5 92.5q-61 16 -174 16q-6 -12 -24 -68q-7 -18 -17 -49t-16 -47.5t-20 -37.5t-33 -36q-9 -8 -23 -13.5t-34 -8.5t-32 -4t-37.5 -1.5t-29.5 -0.5q-3 0 -10 -1.5t-11 -1.5t-10 -0.5t-10.5 1t-7.5 4.5zM375 408q29 0 66 2t51 2q1 34 8.5 119.5 t7.5 125.5q0 2 -4 2q-70 -118 -129 -251z" />
<glyph unicode="&#xe7;" horiz-adv-x="677" d="M40.5 817q29.5 223 109.5 359q37 63 110 118q5 3 21.5 16.5t28.5 18t28 0.5q21 -4 62 -32t46 -31q-5 52 15 100q42 6 82.5 -2.5t58.5 -28.5q32 -36 46 -72t20 -94q5 -41 -11 -122q-4 -32 -26 -78q-3 -6 -6.5 -20t-6.5 -19q-2 -8 -24 -29l-19 -35q-8 -8 -25 -23t-24 -22 q-2 -3 -5 -9.5t-6 -11.5t-7 -9q-9 3 -16.5 12t-10.5 17t-7.5 24t-6.5 22q-30 117 -14 293q-50 -6 -72 -98q-56 -209 -53 -471q0 -78 22.5 -221t63.5 -181q37 14 73 80q66 114 68 201q4 4 6 13t5.5 14.5t11.5 5.5q8 1 12.5 -3.5t6.5 -13t3 -17t2 -20.5t2 -20q2 -16 11 -48.5 t10 -51.5q1 -13 -0.5 -27.5t-3 -25t-6.5 -26.5t-7.5 -23t-9 -24.5t-8.5 -21.5q-24 -48 -47.5 -77t-63.5 -54q-5 -3 -14.5 -10t-17 -11.5t-15.5 -7.5q-2 -6 -9.5 -24t-10.5 -25.5t-6 -20t-3 -22.5q57 -57 83.5 -120t18 -115t-38.5 -91.5t-85.5 -54.5t-122.5 0 q-58 13 -94.5 65t-22.5 93q28 77 62 49q51 -65 92 -46q27 12 27 46q0 17 -9 31q-12 19 -27.5 35.5t-26.5 26.5t-21.5 20.5t-15 20t-4.5 23t7 30.5q15 39 29 63q-10 7 -33 25q-142 129 -178 362q-32 203 -2.5 426z" />
<glyph unicode="&#xe8;" horiz-adv-x="655" d="M29 1542q-5 26 3.5 44.5t39.5 35.5q26 21 68.5 25t76.5 -17q15 -9 103 -93.5t126 -115.5q16 -13 -11 -31q-23 -14 -48 -14q-165 0 -240 35q-118 54 -118 131zM37 1319q3 -3 5.5 -2t3 2.5l1.5 4.5t2 5q37 18 89 15t87 -23q20 2 72.5 8.5t86 9t78 3t79 -8.5t57.5 -26 q2 0 5.5 2t6.5 2q5 -12 19.5 -25.5t17.5 -17.5q-2 -3 -0.5 -13.5t-1.5 -19.5q-1 -3 3 -4t3 -4q-13 -17 -22 -21q-1 -5 3 -7t3 -7q-4 -3 -39 -8q-2 -7 -12.5 -11.5t-12.5 -7.5q-36 -1 -111 0.5t-106 -0.5q-2 -67 5 -179t6 -159q14 4 47.5 2t46.5 -4t45 -7t43 -7 q0 -5 -7.5 -4.5t-9.5 -1.5q33 -15 52 -31q0 -2 -1 -7.5t-1 -8.5q3 -3 12.5 -8t15 -10.5t6.5 -14.5h-18q-1 -7 0 -12t2.5 -8t0.5 -5.5t-7 -5.5q-2 -4 2.5 -8t1.5 -6q-13 -6 -38.5 -9t-33.5 -5q-3 -1 -10 -6.5t-12 -6.5q-15 -3 -72.5 0.5t-71.5 -2.5q4 -13 6 -28t2 -34.5 t-0.5 -30t-3 -36.5t-2.5 -33q-1 -33 -0.5 -169t-5.5 -152q38 -1 92.5 3t94.5 3q16 0 31.5 2t26.5 5t20.5 6.5t16 6t11 3t6.5 -2.5t2 -10q-3 -36 -10 -69q-4 -8 -10 -11q-3 -12 -10.5 -22.5t-13 -15.5t-19 -14.5t-17.5 -12.5l-6 -2t-4 -2t-2 -6q-24 -7 -114 -21 q-24 -4 -69.5 -13.5t-51.5 -10.5q-83 -7 -140 0q-13 2 -12 4q3 12 35 12q-7 6 -21 10t-27 5.5t-25.5 2.5t-19.5 4t-5 9q10 7 22.5 5.5t32.5 0.5q-3 8 -14 8.5t-15 3.5q-7 5 -14 14q-6 8 -20 21.5t-23.5 26t-13.5 24.5q-16 42 -13 115v162q1 55 3.5 161t3.5 163.5t0 138.5 t-5 147q-1 23 -2.5 74.5t-2.5 82t-5 71t-10 69.5z" />
<glyph unicode="&#xe9;" horiz-adv-x="655" d="M37 1319q3 -3 5.5 -2t3 2.5l1.5 4.5t2 5q37 18 89 15t87 -23q20 2 72.5 8.5t86 9t78 3t79 -8.5t57.5 -26q2 0 5.5 2t6.5 2q5 -12 19.5 -25.5t17.5 -17.5q-2 -3 -0.5 -13.5t-1.5 -19.5q-1 -3 3 -4t3 -4q-13 -17 -22 -21q-1 -5 3 -7t3 -7q-4 -3 -39 -8q-2 -7 -12.5 -11.5 t-12.5 -7.5q-36 -1 -111 0.5t-106 -0.5q-2 -67 5 -179t6 -159q14 4 47.5 2t46.5 -4t45 -7t43 -7q0 -5 -7.5 -4.5t-9.5 -1.5q33 -15 52 -31q0 -2 -1 -7.5t-1 -8.5q3 -3 12.5 -8t15 -10.5t6.5 -14.5h-18q-1 -7 0 -12t2.5 -8t0.5 -5.5t-7 -5.5q-2 -4 2.5 -8t1.5 -6 q-13 -6 -38.5 -9t-33.5 -5q-3 -1 -10 -6.5t-12 -6.5q-15 -3 -72.5 0.5t-71.5 -2.5q4 -13 6 -28t2 -34.5t-0.5 -30t-3 -36.5t-2.5 -33q-1 -33 -0.5 -169t-5.5 -152q38 -1 92.5 3t94.5 3q16 0 31.5 2t26.5 5t20.5 6.5t16 6t11 3t6.5 -2.5t2 -10q-3 -36 -10 -69q-4 -8 -10 -11 q-3 -12 -10.5 -22.5t-13 -15.5t-19 -14.5t-17.5 -12.5l-6 -2t-4 -2t-2 -6q-24 -7 -114 -21q-24 -4 -69.5 -13.5t-51.5 -10.5q-83 -7 -140 0q-13 2 -12 4q3 12 35 12q-7 6 -21 10t-27 5.5t-25.5 2.5t-19.5 4t-5 9q10 7 22.5 5.5t32.5 0.5q-3 8 -14 8.5t-15 3.5q-7 5 -14 14 q-6 8 -20 21.5t-23.5 26t-13.5 24.5q-16 42 -13 115v162q1 55 3.5 161t3.5 163.5t0 138.5t-5 147q-1 23 -2.5 74.5t-2.5 82t-5 71t-10 69.5zM203 1438q-29 32 0 59q68 67 129.5 104t146.5 68q37 14 74 46.5t61 45.5h9q-3 -10 -0.5 -18.5t4.5 -10.5t-4 -8q1 -4 9.5 -16 t2.5 -27q7 -1 18 7t15 4q-3 -11 3 -22t10 -15t-5 -13q7 -18 -73.5 -115.5t-149.5 -137.5q-6 -4 -10.5 -1t-7.5 7t-5 7.5t-4 1t-4 -12.5q-22 -30 -104 -11q-80 18 -115 58z" />
<glyph unicode="&#xea;" horiz-adv-x="655" d="M37 1319q3 -3 5.5 -2t3 2.5l1.5 4.5t2 5q37 18 89 15t87 -23q20 2 72.5 8.5t86 9t78 3t79 -8.5t57.5 -26q2 0 5.5 2t6.5 2q5 -12 19.5 -25.5t17.5 -17.5q-2 -3 -0.5 -13.5t-1.5 -19.5q-1 -3 3 -4t3 -4q-13 -17 -22 -21q-1 -5 3 -7t3 -7q-4 -3 -39 -8q-2 -7 -12.5 -11.5 t-12.5 -7.5q-36 -1 -111 0.5t-106 -0.5q-2 -67 5 -179t6 -159q14 4 47.5 2t46.5 -4t45 -7t43 -7q0 -5 -7.5 -4.5t-9.5 -1.5q33 -15 52 -31q0 -2 -1 -7.5t-1 -8.5q3 -3 12.5 -8t15 -10.5t6.5 -14.5h-18q-1 -7 0 -12t2.5 -8t0.5 -5.5t-7 -5.5q-2 -4 2.5 -8t1.5 -6 q-13 -6 -38.5 -9t-33.5 -5q-3 -1 -10 -6.5t-12 -6.5q-15 -3 -72.5 0.5t-71.5 -2.5q4 -13 6 -28t2 -34.5t-0.5 -30t-3 -36.5t-2.5 -33q-1 -33 -0.5 -169t-5.5 -152q38 -1 92.5 3t94.5 3q16 0 31.5 2t26.5 5t20.5 6.5t16 6t11 3t6.5 -2.5t2 -10q-3 -36 -10 -69q-4 -8 -10 -11 q-3 -12 -10.5 -22.5t-13 -15.5t-19 -14.5t-17.5 -12.5l-6 -2t-4 -2t-2 -6q-24 -7 -114 -21q-24 -4 -69.5 -13.5t-51.5 -10.5q-83 -7 -140 0q-13 2 -12 4q3 12 35 12q-7 6 -21 10t-27 5.5t-25.5 2.5t-19.5 4t-5 9q10 7 22.5 5.5t32.5 0.5q-3 8 -14 8.5t-15 3.5q-7 5 -14 14 q-6 8 -20 21.5t-23.5 26t-13.5 24.5q-16 42 -13 115v162q1 55 3.5 161t3.5 163.5t0 138.5t-5 147q-1 23 -2.5 74.5t-2.5 82t-5 71t-10 69.5zM66 1445q14 47 40 71q20 15 56.5 51t54.5 49q64 45 49 74q27 15 26 27.5t17 23.5q55 33 103 -15q20 -17 57.5 -51.5t48.5 -44.5 q28 -22 42.5 -37t47.5 -55q11 -12 40 -40t40 -40q10 -10 -14 -17q-2 -1 -6 -2q-31 -10 -32 -20q0 -2 1 -4q11 -22 -10 -24q-26 -1 -49 24q-26 -51 -66 -18q-30 29 -83 70t-91 77q-10 -9 -28.5 -28t-33.5 -32.5t-32 -25.5q-37 -25 -105 -47q-7 -2 -31 -14t-40 -13 q-16 14 -2 61zM428 1507q10 -15 52.5 -53t58.5 -45q-5 24 -111 98z" />
<glyph unicode="&#xeb;" horiz-adv-x="655" d="M37 1319q3 -3 5.5 -2t3 2.5l1.5 4.5t2 5q37 18 89 15t87 -23q20 2 72.5 8.5t86 9t78 3t79 -8.5t57.5 -26q2 0 5.5 2t6.5 2q5 -12 19.5 -25.5t17.5 -17.5q-2 -3 -0.5 -13.5t-1.5 -19.5q-1 -3 3 -4t3 -4q-13 -17 -22 -21q-1 -5 3 -7t3 -7q-4 -3 -39 -8q-2 -7 -12.5 -11.5 t-12.5 -7.5q-36 -1 -111 0.5t-106 -0.5q-2 -67 5 -179t6 -159q14 4 47.5 2t46.5 -4t45 -7t43 -7q0 -5 -7.5 -4.5t-9.5 -1.5q33 -15 52 -31q0 -2 -1 -7.5t-1 -8.5q3 -3 12.5 -8t15 -10.5t6.5 -14.5h-18q-1 -7 0 -12t2.5 -8t0.5 -5.5t-7 -5.5q-2 -4 2.5 -8t1.5 -6 q-13 -6 -38.5 -9t-33.5 -5q-3 -1 -10 -6.5t-12 -6.5q-15 -3 -72.5 0.5t-71.5 -2.5q4 -13 6 -28t2 -34.5t-0.5 -30t-3 -36.5t-2.5 -33q-1 -33 -0.5 -169t-5.5 -152q38 -1 92.5 3t94.5 3q16 0 31.5 2t26.5 5t20.5 6.5t16 6t11 3t6.5 -2.5t2 -10q-3 -36 -10 -69q-4 -8 -10 -11 q-3 -12 -10.5 -22.5t-13 -15.5t-19 -14.5t-17.5 -12.5l-6 -2t-4 -2t-2 -6q-24 -7 -114 -21q-24 -4 -69.5 -13.5t-51.5 -10.5q-83 -7 -140 0q-13 2 -12 4q3 12 35 12q-7 6 -21 10t-27 5.5t-25.5 2.5t-19.5 4t-5 9q10 7 22.5 5.5t32.5 0.5q-3 8 -14 8.5t-15 3.5q-7 5 -14 14 q-6 8 -20 21.5t-23.5 26t-13.5 24.5q-16 42 -13 115v162q1 55 3.5 161t3.5 163.5t0 138.5t-5 147q-1 23 -2.5 74.5t-2.5 82t-5 71t-10 69.5zM55 1528q5 22 38 49.5t74 45t81 20.5t61 -23q30 -35 44.5 -56.5t17 -31t-2 -14.5t-12 -7.5t-12.5 -10t-4 -21.5q3 -17 3.5 -23.5 t-8 -10t-17.5 -4t-24.5 -7t-29.5 -17.5q-47 -44 -86.5 -42.5t-67 30.5t-42.5 64.5t-13 58.5zM420 1452v41q0 33 11.5 51t25.5 22t31 10t24 17q33 17 96 -4q40 -20 46 -91q5 -68 -24 -98q-17 -18 -42 -9q-8 -7 -36 -10.5t-59 -0.5t-53.5 21.5t-19.5 50.5z" />
<glyph unicode="&#xec;" horiz-adv-x="385" d="M-90 1565v4q7 32 49 83.5t64 63.5q59 30 161 -65q6 -6 39 -38.5t51 -51t46 -49t47 -54.5q6 -8 12.5 -19t9.5 -16q-19 -2 -8 -20q-14 -5 -6 -14q-2 -1 -9.5 3t-9.5 -3q1 -2 7.5 -10t5.5 -13q-7 2 -10 0.5t-10.5 -8.5t-12.5 -10q-40 20 -110 53t-95 45q-2 1 2 -5 q12 -18 6 -22q-32 16 -157 66q-32 13 -34 17q-1 3 12 3h13q18 0 19 2l-6 4l-9 3q-68 25 -67 51zM24.5 1266.5q-1.5 6.5 0.5 17.5q5 1 11 -0.5t9 -1.5q1 7 -5.5 15.5t-4.5 13.5q3 5 9 6.5t18.5 2.5t15.5 1q3 4 -2.5 6.5t-14 4.5t-10.5 5q40 5 47 2q1 3 -1.5 5t-6 2.5l-7 1 t-6 2t-1.5 4.5q14 10 65 4q3 1 3.5 0t1 -4t1.5 -4q22 5 39.5 -4.5t6.5 -32.5q12 -5 24 2.5t23 5.5q4 -1 24 -12t37 -6q5 -5 7.5 -11.5t3 -10t0 -15.5t-0.5 -15q7 -1 35 -12q-2 -61 -9.5 -264.5t-8.5 -292.5q-1 -6 1.5 -14t2.5 -11q-33 -364 -35 -393q-6 -175 -4 -203 q0 -4 -1.5 -6t-6 -6t-6.5 -6q4 -26 0 -33h-10t-13 4q-2 -8 -16.5 -10.5t-16.5 -11.5q-4 -1 -6.5 4.5t-7.5 5.5q-7 -7 4 -12q-25 0 -33 -10q-3 7 -18.5 13t-14.5 17q-7 -11 -26 -6q-12 31 -20.5 64.5t-14 77.5t-8 67t-7 80t-5.5 69q-7 151 -7 252q-1 30 -4 115.5t-4 130.5 q-1 30 -5 89t-5 85q-1 16 -1 98.5t-5 104.5q-1 4 -5 13.5t-5.5 16zM86 922q0 -35 1 -205t3 -282.5t6 -112.5q8 1 5.5 16t2.5 18q5 0 11 -79q2 -36 -2 -33q11 -110 20 -144q9 8 4 31q-1 33 -8 100.5t-11.5 113.5t-0.5 46q2 0 3 -8.5t3 -9.5q3 7 2 24t-4.5 52.5t-3.5 50.5 q1 1 3 -5q2 -5 5 -18q6 -22 8 -22q3 4 2.5 28.5t-3.5 57.5t-7 45q-2 -4 -1 -25t1.5 -36.5t-2.5 -18.5q-18 88 -8 129q3 0 4.5 -13.5t5.5 -15.5q8 27 -6 74q-5 -2 0 -25q1 -9 -2 -8q-16 48 -23 213q-3 62 -8 62zM111.5 728.5q0.5 -20.5 7.5 -32.5q0 2 1 8.5t1.5 14t0.5 15 t-2 12.5t-5 6q-4 -3 -3.5 -23.5zM178 270q0 -36 8 -55q5 42 -8 55z" />
<glyph unicode="&#xed;" horiz-adv-x="385" d="M17 1494.5q2 21.5 16 35.5q28 28 64 42.5t103 30.5t107 29q49 16 83 40t34 46q29 0 12 -43q7 -1 18 7t15 4q-3 -11 3 -22t10 -15t-5 -13q5 -12 -24.5 -62.5t-85.5 -107t-113 -71.5q-50 -12 -120.5 0.5t-82.5 36.5q47 -12 51 -10q2 1 -14 8q-5 3 -17 9q-38 17 -44 23 q-12 11 -10 32.5zM24.5 1266.5q-1.5 6.5 0.5 17.5q5 1 11 -0.5t9 -1.5q1 7 -5.5 15.5t-4.5 13.5q3 5 9 6.5t18.5 2.5t15.5 1q3 4 -2.5 6.5t-14 4.5t-10.5 5q40 5 47 2q1 3 -1.5 5t-6 2.5l-7 1t-6 2t-1.5 4.5q14 10 65 4q3 1 3.5 0t1 -4t1.5 -4q22 5 39.5 -4.5t6.5 -32.5 q12 -5 24 2.5t23 5.5q4 -1 24 -12t37 -6q5 -5 7.5 -11.5t3 -10t0 -15.5t-0.5 -15q7 -1 35 -12q-2 -61 -9.5 -264.5t-8.5 -292.5q-1 -6 1.5 -14t2.5 -11q-33 -364 -35 -393q-6 -175 -4 -203q0 -4 -1.5 -6t-6 -6t-6.5 -6q4 -26 0 -33h-10t-13 4q-2 -8 -16.5 -10.5t-16.5 -11.5 q-4 -1 -6.5 4.5t-7.5 5.5q-7 -7 4 -12q-25 0 -33 -10q-3 7 -18.5 13t-14.5 17q-7 -11 -26 -6q-12 31 -20.5 64.5t-14 77.5t-8 67t-7 80t-5.5 69q-7 151 -7 252q-1 30 -4 115.5t-4 130.5q-1 30 -5 89t-5 85q-1 16 -1 98.5t-5 104.5q-1 4 -5 13.5t-5.5 16zM86 922 q0 -35 1 -205t3 -282.5t6 -112.5q8 1 5.5 16t2.5 18q5 0 11 -79q2 -36 -2 -33q11 -110 20 -144q9 8 4 31q-1 33 -8 100.5t-11.5 113.5t-0.5 46q2 0 3 -8.5t3 -9.5q3 7 2 24t-4.5 52.5t-3.5 50.5q1 1 3 -5q2 -5 5 -18q6 -22 8 -22q3 4 2.5 28.5t-3.5 57.5t-7 45q-2 -4 -1 -25 t1.5 -36.5t-2.5 -18.5q-18 88 -8 129q3 0 4.5 -13.5t5.5 -15.5q8 27 -6 74q-5 -2 0 -25q1 -9 -2 -8q-16 48 -23 213q-3 62 -8 62zM111.5 728.5q0.5 -20.5 7.5 -32.5q0 2 1 8.5t1.5 14t0.5 15t-2 12.5t-5 6q-4 -3 -3.5 -23.5zM178 270q0 -36 8 -55q5 42 -8 55z" />
<glyph unicode="&#xee;" horiz-adv-x="385" d="M-147 1364q10 13 19 23.5t14.5 16t19 17.5t20.5 19q14 11 30.5 25t27.5 24t28.5 27t24.5 24q16 15 62 65.5t71 75.5q22 19 35 -14q6 4 10.5 4t7 -1t8.5 -5t11 -6q0 -10 8.5 -15t16 -8t5.5 -8q41 -80 172 -168q29 -19 56.5 -51.5t9.5 -44.5q-7 -1 -18.5 0t-16.5 0 q0 -27 -14 -31q-11 -4 -31 0q12 -9 -4 -9q-25 1 -41 13q-11 2 -34.5 3t-41.5 8q-32 12 -78.5 49.5t-80.5 77.5q-4 -3 -36.5 -39t-60.5 -54q-37 -23 -57 -32t-53.5 -9.5t-77.5 15.5q-1 3 -6 4.5t-6 3.5zM24.5 1266.5q-1.5 6.5 0.5 17.5q5 1 11 -0.5t9 -1.5q1 7 -5.5 15.5 t-4.5 13.5q3 5 9 6.5t18.5 2.5t15.5 1q3 4 -2.5 6.5t-14 4.5t-10.5 5q40 5 47 2q1 3 -1.5 5t-6 2.5l-7 1t-6 2t-1.5 4.5q14 10 65 4q3 1 3.5 0t1 -4t1.5 -4q22 5 39.5 -4.5t6.5 -32.5q12 -5 24 2.5t23 5.5q4 -1 24 -12t37 -6q5 -5 7.5 -11.5t3 -10t0 -15.5t-0.5 -15 q7 -1 35 -12q-2 -61 -9.5 -264.5t-8.5 -292.5q-1 -6 1.5 -14t2.5 -11q-33 -364 -35 -393q-6 -175 -4 -203q0 -4 -1.5 -6t-6 -6t-6.5 -6q4 -26 0 -33h-10t-13 4q-2 -8 -16.5 -10.5t-16.5 -11.5q-4 -1 -6.5 4.5t-7.5 5.5q-7 -7 4 -12q-25 0 -33 -10q-3 7 -18.5 13t-14.5 17 q-7 -11 -26 -6q-12 31 -20.5 64.5t-14 77.5t-8 67t-7 80t-5.5 69q-7 151 -7 252q-1 30 -4 115.5t-4 130.5q-1 30 -5 89t-5 85q-1 16 -1 98.5t-5 104.5q-1 4 -5 13.5t-5.5 16zM86 922q0 -35 1 -205t3 -282.5t6 -112.5q8 1 5.5 16t2.5 18q5 0 11 -79q2 -36 -2 -33 q11 -110 20 -144q9 8 4 31q-1 33 -8 100.5t-11.5 113.5t-0.5 46q2 0 3 -8.5t3 -9.5q3 7 2 24t-4.5 52.5t-3.5 50.5q1 1 3 -5q2 -5 5 -18q6 -22 8 -22q3 4 2.5 28.5t-3.5 57.5t-7 45q-2 -4 -1 -25t1.5 -36.5t-2.5 -18.5q-18 88 -8 129q3 0 4.5 -13.5t5.5 -15.5q8 27 -6 74 q-5 -2 0 -25q1 -9 -2 -8q-16 48 -23 213q-3 62 -8 62zM111.5 728.5q0.5 -20.5 7.5 -32.5q0 2 1 8.5t1.5 14t0.5 15t-2 12.5t-5 6q-4 -3 -3.5 -23.5zM178 270q0 -36 8 -55q5 42 -8 55z" />
<glyph unicode="&#xef;" horiz-adv-x="385" d="M-125 1500q-2 26 23.5 61.5t81.5 72.5h16q7 -17 57 -37q4 -2 25.5 -8t37 -11.5t31.5 -19t19.5 -31t-8.5 -46.5t-45 -66q-25 -28 -57.5 -32t-75.5 12q-24 8 -46 21t-39.5 35.5t-19.5 48.5zM24.5 1266.5q-1.5 6.5 0.5 17.5q5 1 11 -0.5t9 -1.5q1 7 -5.5 15.5t-4.5 13.5 q3 5 9 6.5t18.5 2.5t15.5 1q3 4 -2.5 6.5t-14 4.5t-10.5 5q40 5 47 2q1 3 -1.5 5t-6 2.5l-7 1t-6 2t-1.5 4.5q14 10 65 4q3 1 3.5 0t1 -4t1.5 -4q22 5 39.5 -4.5t6.5 -32.5q12 -5 24 2.5t23 5.5q4 -1 24 -12t37 -6q5 -5 7.5 -11.5t3 -10t0 -15.5t-0.5 -15q7 -1 35 -12 q-2 -61 -9.5 -264.5t-8.5 -292.5q-1 -6 1.5 -14t2.5 -11q-33 -364 -35 -393q-6 -175 -4 -203q0 -4 -1.5 -6t-6 -6t-6.5 -6q4 -26 0 -33h-10t-13 4q-2 -8 -16.5 -10.5t-16.5 -11.5q-4 -1 -6.5 4.5t-7.5 5.5q-7 -7 4 -12q-25 0 -33 -10q-3 7 -18.5 13t-14.5 17q-7 -11 -26 -6 q-12 31 -20.5 64.5t-14 77.5t-8 67t-7 80t-5.5 69q-7 151 -7 252q-1 30 -4 115.5t-4 130.5q-1 30 -5 89t-5 85q-1 16 -1 98.5t-5 104.5q-1 4 -5 13.5t-5.5 16zM86 922q0 -35 1 -205t3 -282.5t6 -112.5q8 1 5.5 16t2.5 18q5 0 11 -79q2 -36 -2 -33q11 -110 20 -144q9 8 4 31 q-1 33 -8 100.5t-11.5 113.5t-0.5 46q2 0 3 -8.5t3 -9.5q3 7 2 24t-4.5 52.5t-3.5 50.5q1 1 3 -5q2 -5 5 -18q6 -22 8 -22q3 4 2.5 28.5t-3.5 57.5t-7 45q-2 -4 -1 -25t1.5 -36.5t-2.5 -18.5q-18 88 -8 129q3 0 4.5 -13.5t5.5 -15.5q8 27 -6 74q-5 -2 0 -25q1 -9 -2 -8 q-16 48 -23 213q-3 62 -8 62zM111.5 728.5q0.5 -20.5 7.5 -32.5q0 2 1 8.5t1.5 14t0.5 15t-2 12.5t-5 6q-4 -3 -3.5 -23.5zM178 270q0 -36 8 -55q5 42 -8 55zM241 1467q-2 29 6.5 53t6.5 34q-2 51 50 51t104 -39q19 -15 30 -30q13 -17 15 -29.5t-2.5 -18t-6.5 -14t2 -18.5 q1 -3 3 -7.5t3.5 -8t0.5 -8.5t-7 -9q29 -20 21 -32q-6 -6 -21 -2q-3 -3 -7.5 -11.5t-10 -13t-14.5 -0.5q-20 -4 -19 -9q0 -2 3 -5q5 -5 -6 -6l-7 -1q-1 0 -26 6t-50.5 19t-40.5 35q-25 35 -27 64z" />
<glyph unicode="&#xf0;" horiz-adv-x="882" d="M12 596q13 20 9.5 39.5t-7 28.5t16.5 28q6 7 8 17t7 14t22 4q4 1 6 8t6 8q20 2 55 2q0 266 -10 445q-4 4 -20 13t-21 18q4 1 5.5 0.5t4 -1.5t4.5 -1q-3 4 -26 18q0 2 1 3t3 0.5t4.5 -1l5 -1t4.5 0.5q2 4 -5.5 9t-13 9t-1.5 7q0 -3 3 -2l3 2q-31 17 -18 57q5 16 9 15 q1 0 1 -3q17 -7 44.5 -8t45.5 1t56 8t46 7q296 28 455 -131q41 -41 81.5 -148.5t47.5 -154.5q14 -87 18 -243q4 -186 -28 -295q-3 -18 -12.5 -45t-12.5 -37q-1 -3 -4 -14.5t-6 -16.5q-3 -8 -20.5 -40.5t-20.5 -49.5q-25 -36 -40.5 -56t-42 -46.5t-54.5 -43.5 q-67 -31 -150.5 -42t-162.5 3.5t-122 53.5q-7 7 -12 15.5t-6.5 14t-4.5 18.5t-5 19q-2 12 -10.5 35t-10.5 29q-7 12 -1.5 120t5.5 130q0 27 -3.5 77.5t-4.5 67.5h-41q-9 1 -20 5t-18.5 8t-21.5 11.5t-20 10.5zM420 561q0 -35 2.5 -201t-0.5 -198q31 8 72.5 39.5t54.5 60.5 q37 75 57.5 177.5t16.5 207.5q0 77 -21 203q-4 24 -11.5 50t-16.5 54.5t-13 42.5q-13 49 -48 87t-79 59q-6 -14 -7.5 -33.5t0 -52.5t1.5 -43q2 -100 -2 -271l23 -2q54 0 133 -18q-2 -21 5.5 -44.5t11.5 -32.5t-5 -23q-13 -4 -17 -14t-4 -22t-2 -16q-21 -8 -46.5 -9.5 t-48.5 0t-56 -0.5z" />
<glyph unicode="&#xf1;" horiz-adv-x="827" d="M59 1167q3 22 9 58q1 4 3 14.5t3 19t0 15.5q0 6 -5.5 16t-5.5 13q-1 5 2 14.5t1 15.5q2 2 6.5 4.5t7 5.5t2.5 7q9 0 29 7t30 7q5 -1 11.5 -4t11.5 -4q6 -1 19 0.5t16 1.5q5 1 13.5 -3.5t10.5 -4.5q8 -2 19.5 -1.5t11.5 -0.5q4 -2 9 -6t8.5 -6.5t7.5 -2.5q7 -8 16 -25.5 t16 -25.5q7 -10 23 -27t22 -26q14 -24 39 -92q8 -25 30 -73t30 -71q94 -268 170 -428q-25 574 34 748q3 9 6.5 12.5t6 2.5t5.5 -2.5t6 -2.5t7 2t8 12q2 3 6 14.5t9 14.5q5 -5 23 -7.5t20 -8.5q1 -6 5.5 -19.5t4.5 -21.5q11 -62 8 -101q-12 -163 -13 -359.5t3 -354t4 -177.5 q-5 -37 -2 -47q2 -13 18 -45.5t15 -50.5q0 -6 -3.5 -14.5t-4.5 -12.5q-1 -5 -1 -17.5t-2 -18.5q-3 -9 -18 -24.5t-16 -27.5q-17 -4 -34.5 -26.5t-27.5 -28.5q-4 -2 -13 -3t-13 -3q-6 -3 -16 -10t-19.5 -11t-20.5 -2q-6 4 -18 17.5t-21 17.5q-19 22 -36 52.5t-25 48.5 t-26.5 63.5t-22.5 56.5q-17 46 -56 128t-49 104q-2 6 -6 20t-8.5 24t-11.5 17q-15 41 -50 118t-49 118q-5 -37 -5.5 -77.5t2.5 -102.5t3 -84q0 -12 5 -37t6 -37q7 -99 4 -182q0 -159 -41 -224q-10 -8 -45.5 -26.5t-46.5 -36.5l-13 27q-6 1 -15 -5.5t-13 -3.5 q-12 64 -12 157.5t3 156.5q7 216 5 362q-1 49 -6 237.5t-3 282.5zM127 1464q11 63 57 108t101 60q38 9 65.5 5t85.5 -29q48 -19 75.5 -22t51.5 9q33 17 55 78q10 6 15 -14q5 -18 0 -43q14 15 29.5 25t35 10t31.5 -19q1 -3 -7 -15.5t-12 -28.5t7 -44q26 10 31.5 -14.5 t-11.5 -46.5q-17 -25 -45.5 -50t-48.5 -34q-29 -12 -62 -15t-58 -0.5t-59 13t-49 16.5t-44.5 20.5t-30.5 14.5q-34 16 -69.5 12.5t-61.5 -15t-47 -28.5q-10 -1 -12 4t0 13t-3.5 17t-19.5 13z" />
<glyph unicode="&#xf2;" horiz-adv-x="753" d="M37 426q-29 184 4 397q15 102 49 207q56 162 143 262q68 59 111 76q12 -2 27.5 4t27.5 4q1 -1 4 -3t5 -3t4 0q7 -2 17 -1t13 -1q5 -1 14 -5.5t20 -10.5t18 -9q34 -14 106 -73q2 -6 10.5 -21t13.5 -29.5t1 -29.5q-9 -4 -21 -17.5t-18 -17.5q44 -59 55 -84 q33 -67 53.5 -137t25.5 -124.5t7.5 -110t-0.5 -93.5q-2 -114 -20 -237.5t-48 -186.5q0 -3 -1.5 -9.5t-0.5 -12.5q-6 -4 -9.5 -10t-7.5 -20.5t-5 -16.5q-8 -3 -16.5 -16.5t-12.5 -16.5q-1 -1 -11 -10t-11 -17q-29 -10 -66 -43q-50 -21 -107 -24t-116.5 17.5t-101.5 64.5 q-64 67 -99 148t-57 210zM160.5 1559q-0.5 15 7.5 25.5t16.5 29t8.5 37.5q0 31 48.5 62.5t80.5 21.5q20 -6 44.5 -37t48.5 -69t73.5 -88t111.5 -87q-1 -7 -5 -16.5t-4.5 -12.5t3.5 -8q-4 -3 -7 -2.5t-9.5 2.5t-10.5 2q-3 -6 2.5 -10t5.5 -6q-11 2 -10 -10v-1v-1 q-10 2 -14.5 -1t-1.5 -14q-14 2 -39 8q-265 70 -334 144q-15 16 -15.5 31zM320 618.5q-7 -94.5 1.5 -170.5t26.5 -135.5t42.5 -89t49.5 -22.5q41 11 64.5 43t46.5 92q22 59 37 188t10 297q-3 90 -30.5 170.5t-53.5 106.5q-5 -6 -17.5 -18.5t-23 -24t-16.5 -21.5 q-42 -59 -63.5 -108t-41.5 -123q-25 -90 -32 -184.5z" />
<glyph unicode="&#xf3;" horiz-adv-x="753" d="M37 426q-29 184 4 397q15 102 49 207q56 162 143 262q68 59 111 76q12 -2 27.5 4t27.5 4q1 -1 4 -3t5 -3t4 0q7 -2 17 -1t13 -1q5 -1 14 -5.5t20 -10.5t18 -9q34 -14 106 -73q2 -6 10.5 -21t13.5 -29.5t1 -29.5q-9 -4 -21 -17.5t-18 -17.5q44 -59 55 -84 q33 -67 53.5 -137t25.5 -124.5t7.5 -110t-0.5 -93.5q-2 -114 -20 -237.5t-48 -186.5q0 -3 -1.5 -9.5t-0.5 -12.5q-6 -4 -9.5 -10t-7.5 -20.5t-5 -16.5q-8 -3 -16.5 -16.5t-12.5 -16.5q-1 -1 -11 -10t-11 -17q-29 -10 -66 -43q-50 -21 -107 -24t-116.5 17.5t-101.5 64.5 q-64 67 -99 148t-57 210zM277 1504.5q3 7.5 24 21.5q37 24 151.5 74t172.5 94q46 42 90 58q11 4 12 1t-6 -10q-6 -9 -7 -19.5t1.5 -18.5t-8.5 -29t-37 -50q6 -1 28.5 22t43.5 44t24 18q-3 -11 3 -14.5t10 -7t-5 -27.5q-11 -27 -43 -71t-77.5 -92t-102.5 -74.5t-105 -10.5 q-17 6 -59 7t-68.5 11.5t-31.5 41.5q1 8 -6 16t-4 15.5zM320 618.5q-7 -94.5 1.5 -170.5t26.5 -135.5t42.5 -89t49.5 -22.5q41 11 64.5 43t46.5 92q22 59 37 188t10 297q-3 90 -30.5 170.5t-53.5 106.5q-5 -6 -17.5 -18.5t-23 -24t-16.5 -21.5q-42 -59 -63.5 -108 t-41.5 -123q-25 -90 -32 -184.5z" />
<glyph unicode="&#xf4;" horiz-adv-x="753" d="M37 426q-29 184 4 397q15 102 49 207q56 162 143 262q68 59 111 76q12 -2 27.5 4t27.5 4q1 -1 4 -3t5 -3t4 0q7 -2 17 -1t13 -1q5 -1 14 -5.5t20 -10.5t18 -9q34 -14 106 -73q2 -6 10.5 -21t13.5 -29.5t1 -29.5q-9 -4 -21 -17.5t-18 -17.5q44 -59 55 -84 q33 -67 53.5 -137t25.5 -124.5t7.5 -110t-0.5 -93.5q-2 -114 -20 -237.5t-48 -186.5q0 -3 -1.5 -9.5t-0.5 -12.5q-6 -4 -9.5 -10t-7.5 -20.5t-5 -16.5q-8 -3 -16.5 -16.5t-12.5 -16.5q-1 -1 -11 -10t-11 -17q-29 -10 -66 -43q-50 -21 -107 -24t-116.5 17.5t-101.5 64.5 q-64 67 -99 148t-57 210zM140 1434q1 27 30 61l4 4q52 54 111 100q13 10 42.5 39.5t51.5 49.5t49.5 32.5t48.5 3.5q2 -3 1 -7.5t1 -6.5q21 -17 60.5 -53.5t46.5 -42.5q13 -11 36 -28.5t42.5 -32.5t37.5 -31q4 -4 18.5 -16.5t21 -19t14.5 -18.5t12 -24q4 -13 -2 -38.5 t-2 -37.5q3 -32 -34 -30q-32 2 -136 44q-91 37 -201 125q-34 -32 -82 -65q-71 -51 -116 -51q-11 0 -20.5 10t-15 18.5t-7.5 7.5q-13 -7 -12 7zM320 618.5q-7 -94.5 1.5 -170.5t26.5 -135.5t42.5 -89t49.5 -22.5q41 11 64.5 43t46.5 92q22 59 37 188t10 297 q-3 90 -30.5 170.5t-53.5 106.5q-5 -6 -17.5 -18.5t-23 -24t-16.5 -21.5q-42 -59 -63.5 -108t-41.5 -123q-25 -90 -32 -184.5z" />
<glyph unicode="&#xf5;" horiz-adv-x="753" d="M37 426q-29 184 4 397q15 102 49 207q56 162 143 262q68 59 111 76q12 -2 27.5 4t27.5 4q1 -1 4 -3t5 -3t4 0q7 -2 17 -1t13 -1q5 -1 14 -5.5t20 -10.5t18 -9q34 -14 106 -73q2 -6 10.5 -21t13.5 -29.5t1 -29.5q-9 -4 -21 -17.5t-18 -17.5q44 -59 55 -84 q33 -67 53.5 -137t25.5 -124.5t7.5 -110t-0.5 -93.5q-2 -114 -20 -237.5t-48 -186.5q0 -3 -1.5 -9.5t-0.5 -12.5q-6 -4 -9.5 -10t-7.5 -20.5t-5 -16.5q-8 -3 -16.5 -16.5t-12.5 -16.5q-1 -1 -11 -10t-11 -17q-29 -10 -66 -43q-50 -21 -107 -24t-116.5 17.5t-101.5 64.5 q-64 67 -99 148t-57 210zM125 1497q22 44 84.5 93.5t124.5 56.5q100 12 186 -33q79 -43 125 -31q35 10 53 51q11 7 33 -8q7 23 14 14q10 -11 3 -38q-2 -10 -2.5 -17.5t0 -15t3.5 -11t9 -2.5q8 2 3 -16q-4 -22 -3 -22q3 -10 -15 -39q-31 -48 -63 -66q-28 -16 -59 -17.5 t-60 7.5t-54.5 20.5t-53 24t-45.5 16.5q-89 19 -228 -22q-2 0 -4 -0.5t-4 -1.5q-11 -3 -20.5 7.5t-24.5 10.5q-1 3 0.5 12.5t1.5 17t-4 9.5zM320 618.5q-7 -94.5 1.5 -170.5t26.5 -135.5t42.5 -89t49.5 -22.5q41 11 64.5 43t46.5 92q22 59 37 188t10 297q-3 90 -30.5 170.5 t-53.5 106.5q-5 -6 -17.5 -18.5t-23 -24t-16.5 -21.5q-42 -59 -63.5 -108t-41.5 -123q-25 -90 -32 -184.5z" />
<glyph unicode="&#xf6;" horiz-adv-x="753" d="M37 426q-29 184 4 397q15 102 49 207q56 162 143 262q68 59 111 76q12 -2 27.5 4t27.5 4q1 -1 4 -3t5 -3t4 0q7 -2 17 -1t13 -1q5 -1 14 -5.5t20 -10.5t18 -9q34 -14 106 -73q2 -6 10.5 -21t13.5 -29.5t1 -29.5q-9 -4 -21 -17.5t-18 -17.5q44 -59 55 -84 q33 -67 53.5 -137t25.5 -124.5t7.5 -110t-0.5 -93.5q-2 -114 -20 -237.5t-48 -186.5q0 -3 -1.5 -9.5t-0.5 -12.5q-6 -4 -9.5 -10t-7.5 -20.5t-5 -16.5q-8 -3 -16.5 -16.5t-12.5 -16.5q-1 -1 -11 -10t-11 -17q-29 -10 -66 -43q-50 -21 -107 -24t-116.5 17.5t-101.5 64.5 q-64 67 -99 148t-57 210zM78 1448q-4 35 12 64t46 51.5t65 27.5q21 5 38.5 0.5t29 -10.5t21 -17t14 -18.5t8.5 -15.5l3 -8q25 -11 32.5 -28.5t-1 -37.5t-22 -37t-31.5 -35q-35 -27 -62 -30t-71 10q-3 1 -21.5 7t-27.5 15q-29 27 -33 62zM320 618.5q-7 -94.5 1.5 -170.5 t26.5 -135.5t42.5 -89t49.5 -22.5q41 11 64.5 43t46.5 92q22 59 37 188t10 297q-3 90 -30.5 170.5t-53.5 106.5q-5 -6 -17.5 -18.5t-23 -24t-16.5 -21.5q-42 -59 -63.5 -108t-41.5 -123q-25 -90 -32 -184.5zM465 1509q11 33 12 37q25 28 72.5 44t75.5 7q40 -14 69.5 -47 t41 -58.5t9.5 -33.5q33 -35 3 -71q-27 -34 -72 -33q-27 1 -47 18q-21 -6 -32.5 -3.5t-35.5 15.5q-4 4 -29 14.5t-28 14.5q-14 -1 -21.5 10t-9.5 23.5t-4 33t-4 29.5z" />
<glyph unicode="&#xf7;" horiz-adv-x="923" d="M54 774q2 42 17 40q2 0 3 -1q17 -6 51 14q21 9 372 10q346 1 339 -14q-6 -15 24.5 -31t30.5 -22q0 -7 -17 -34t-26 -38q0 -4 11 -7t11 -7t-1.5 -11.5t-9 -21.5t-19.5 -26t-37 -21.5t-58 -11.5q-10 -7 -72 -4.5t-144.5 6.5t-182.5 -2q-14 -3 -51.5 -0.5t-77 6t-67 15.5 t-21.5 28q-18 -8 -29.5 0t-21 32t-10.5 25q-16 22 -14 76zM322 1079q11 55 14 62q10 21 24.5 36t34.5 24t34.5 14t39 11t33.5 9q29 9 67 -20.5t47 -65.5q9 -18 7.5 -52.5t-23.5 -74.5q-11 -19 -48 -49t-69 -33q-69 -7 -133 43q-14 15 -22.5 44t-5.5 52zM322.5 345.5 q1.5 34.5 23.5 74.5q11 19 48 49t69 33q69 7 133 -43q18 -19 33 -47.5t12 -49.5q-2 -12 -15.5 -34t-15.5 -27q-25 -52 -82.5 -83t-83.5 -11q-12 9 -40.5 22.5t-48.5 28t-25 35.5q-9 18 -7.5 52.5z" />
<glyph unicode="&#xf8;" horiz-adv-x="796" d="M33.5 557.5q-0.5 119.5 19.5 257.5q15 101 66 234q27 62 41 90q20 43 66.5 104.5t72.5 85.5l53 19q4 -1 16.5 -7.5t16.5 -7.5q162 -56 242 -172l12 39q28 71 57 102t64 46q2 -17 26 -9q6 -18 0 -39q1 -2 5.5 -2.5t7.5 -3.5q-1 -8 1 -9q1 -1 12 8q9 7 9 -6q0 -6 -2 -15 q-3 -8 -24.5 -87t-36.5 -110q-26 -68 -43 -117l2 -8q37 -139 43 -264q8 -151 -7.5 -268t-64.5 -225q-118 -253 -346 -222q-11 -28 -21 -48t-21 -39t-15 -27q0 -13 -21 -26.5t-39.5 -16t-23.5 9.5q0 4 -11.5 10.5t-23 12.5t-10.5 8q1 8 0 21.5t1 29.5t7 20q10 45 37 107l8 16 q-21 17 -68 72q-13 17 -25.5 36.5t-35.5 79.5t-34.5 130.5t-12 190zM319 408q0 -9 5 -54q14 28 38 101t29 86q24 69 76.5 205.5t93.5 252.5q1 4 25 58l-21 33q-5 -2 -14 -8t-34 -32.5t-48 -62.5q-76 -123 -116 -281t-34 -298zM418 178q45 -7 82 19q27 15 59 55 q15 18 32 52.5t36.5 92.5t30 147.5t6.5 192.5q-5 55 -7 66q-9 -21 -18 -45l-84 -228q-7 -21 -24.5 -65.5t-24.5 -65.5q-49 -129 -84 -211z" />
<glyph unicode="&#xf9;" horiz-adv-x="864" d="M20 1249q-11 -5 7 17q6 8 12 14q19 19 41 31q46 25 104 30q48 0 66 -4q9 -1 28.5 -2t33 -2t29 -3.5t25.5 -7.5t15 -13q4 -6 7 -22t7 -21q6 -56 6.5 -126.5t-2 -123.5t-6.5 -136t-6 -126q-1 -37 -9 -153.5t-7.5 -184.5t12.5 -113q16 -59 44.5 -87t59.5 -28q62 0 97 58 q25 41 44.5 114.5t22.5 169.5q8 314 -8 494q-6 66 -15.5 132t-14.5 100t-3 47q4 5 12.5 26.5t24.5 22.5q45 2 73.5 -3t37 -12t14 -15.5t8.5 -10.5q19 -90 29 -230q10 -164 10 -344q0 -181 -28 -370q-7 -52 -31 -125q-11 -30 -14.5 -39t-12 -29t-17 -33.5t-20.5 -29.5 q-41 -52 -90 -86q-60 -43 -149 -43q-138 0 -219.5 42.5t-126.5 139.5q-28 59 -41 184q-1 9 -8 393t-29 463q-2 5 0.5 13.5t3.5 12.5t-6 7q-5 1 -3 4.5t1 6.5t-9 1zM118.5 1570.5q3.5 8.5 7.5 14t17 20.5q4 4 6.5 7t4.5 6q32 38 84.5 67t99.5 21q35 -6 65 -25t49.5 -41 t39.5 -57t31 -61.5t28 -68.5t27 -64q7 -15 1.5 -23t-14.5 -10t-13 -10t5 -23q6 -6 -10 -10q-33 -9 -55 2q-3 2 -5 4q-94 94 -186 156q-2 1 -15 9.5t-16 10.5t-15 9.5l-16 10t-15 8.5t-16.5 8.5t-15.5 6.5t-17 6t-15.5 4.5t-16.5 3.5q-15 2 -21.5 6t-3 12.5z" />
<glyph unicode="&#xfa;" horiz-adv-x="864" d="M20 1249q-11 -5 7 17q6 8 12 14q19 19 41 31q46 25 104 30q48 0 66 -4q9 -1 28.5 -2t33 -2t29 -3.5t25.5 -7.5t15 -13q4 -6 7 -22t7 -21q6 -56 6.5 -126.5t-2 -123.5t-6.5 -136t-6 -126q-1 -37 -9 -153.5t-7.5 -184.5t12.5 -113q16 -59 44.5 -87t59.5 -28q62 0 97 58 q25 41 44.5 114.5t22.5 169.5q8 314 -8 494q-6 66 -15.5 132t-14.5 100t-3 47q4 5 12.5 26.5t24.5 22.5q45 2 73.5 -3t37 -12t14 -15.5t8.5 -10.5q19 -90 29 -230q10 -164 10 -344q0 -181 -28 -370q-7 -52 -31 -125q-11 -30 -14.5 -39t-12 -29t-17 -33.5t-20.5 -29.5 q-41 -52 -90 -86q-60 -43 -149 -43q-138 0 -219.5 42.5t-126.5 139.5q-28 59 -41 184q-1 9 -8 393t-29 463q-2 5 0.5 13.5t3.5 12.5t-6 7q-5 1 -3 4.5t1 6.5t-9 1zM385 1385q-16 49 6 65q33 62 85.5 108.5t141.5 92.5q172 90 172 72q0 -3 -6 -11q-5 -6 5 -6h8q13 1 15 -1 q1 -3 -7 -11q-3 -3 -7.5 -7t-7.5 -6.5t-5 -5.5t-2 -5.5t3 -4.5q17 -4 32 5t18 9q9 3 2 -12q-4 -7 -16 -27l-13 -22q-1 -3 9 2q29 13 32 10q0 -5 -3.5 -12t-10 -16t-7.5 -11q-12 -16 -22 -30t-21.5 -27.5t-18 -21.5t-20 -22t-17.5 -18l-20.5 -20.5l-19.5 -19.5 q-39 -39 -90.5 -66.5t-103 -32.5t-80.5 35q1 -23 -7 -22q-12 2 -24 39z" />
<glyph unicode="&#xfb;" horiz-adv-x="864" d="M20 1249q-11 -5 7 17q6 8 12 14q19 19 41 31q46 25 104 30q48 0 66 -4q9 -1 28.5 -2t33 -2t29 -3.5t25.5 -7.5t15 -13q4 -6 7 -22t7 -21q6 -56 6.5 -126.5t-2 -123.5t-6.5 -136t-6 -126q-1 -37 -9 -153.5t-7.5 -184.5t12.5 -113q16 -59 44.5 -87t59.5 -28q62 0 97 58 q25 41 44.5 114.5t22.5 169.5q8 314 -8 494q-6 66 -15.5 132t-14.5 100t-3 47q4 5 12.5 26.5t24.5 22.5q45 2 73.5 -3t37 -12t14 -15.5t8.5 -10.5q19 -90 29 -230q10 -164 10 -344q0 -181 -28 -370q-7 -52 -31 -125q-11 -30 -14.5 -39t-12 -29t-17 -33.5t-20.5 -29.5 q-41 -52 -90 -86q-60 -43 -149 -43q-138 0 -219.5 42.5t-126.5 139.5q-28 59 -41 184q-1 9 -8 393t-29 463q-2 5 0.5 13.5t3.5 12.5t-6 7q-5 1 -3 4.5t1 6.5t-9 1zM152.5 1425q6.5 30 31.5 50q66 54 138 131q70 113 129 176q4 -1 9 -7t9 -8q21 13 55 -2q56 -82 109 -127 q11 -10 38.5 -28.5t51.5 -46.5q2 -2 15 -14.5t17 -18.5t9 -19.5t0.5 -28.5t-16.5 -34q-28 -42 -57.5 -50t-63.5 13q-38 19 -66 45.5t-60.5 65.5t-58.5 63q-23 -66 -84 -117q-59 -52 -110 -65q-6 -1 -9.5 -0.5t-4.5 3t-1 5.5t1 5.5t0.5 4t-1.5 0.5q-46 -26 -67 -26 q-20 0 -13.5 30z" />
<glyph unicode="&#xfc;" horiz-adv-x="864" d="M20 1249q-11 -5 7 17q6 8 12 14q19 19 41 31q46 25 104 30q48 0 66 -4q9 -1 28.5 -2t33 -2t29 -3.5t25.5 -7.5t15 -13q4 -6 7 -22t7 -21q6 -56 6.5 -126.5t-2 -123.5t-6.5 -136t-6 -126q-1 -37 -9 -153.5t-7.5 -184.5t12.5 -113q16 -59 44.5 -87t59.5 -28q62 0 97 58 q25 41 44.5 114.5t22.5 169.5q8 314 -8 494q-6 66 -15.5 132t-14.5 100t-3 47q4 5 12.5 26.5t24.5 22.5q45 2 73.5 -3t37 -12t14 -15.5t8.5 -10.5q19 -90 29 -230q10 -164 10 -344q0 -181 -28 -370q-7 -52 -31 -125q-11 -30 -14.5 -39t-12 -29t-17 -33.5t-20.5 -29.5 q-41 -52 -90 -86q-60 -43 -149 -43q-138 0 -219.5 42.5t-126.5 139.5q-28 59 -41 184q-1 9 -8 393t-29 463q-2 5 0.5 13.5t3.5 12.5t-6 7q-5 1 -3 4.5t1 6.5t-9 1zM115 1548.5q7 15.5 20 35t15 28.5q14 50 37.5 69.5t50 12.5t50.5 -21.5t47.5 -31.5t31.5 -19q6 -1 11 -12 t7 -13q27 -3 39 -17t9.5 -35.5t-10 -42t-20.5 -42.5q-29 -39 -50.5 -51.5t-69.5 -13.5q-4 1 -17.5 3.5t-23 5.5t-15.5 7l-16 5q-16 6 -32 14.5t-27 19.5q-29 29 -36.5 56t-0.5 42.5zM511.5 1470.5q-17.5 51.5 7 90.5t83.5 47q80 11 112 -7q35 -19 31 -69q22 8 24 -23 q1 -42 -27 -80q-29 -36 -64 -24q-20 -18 -33.5 -26.5t-31 -11.5t-29.5 11q-55 41 -72.5 92.5z" />
<glyph unicode="&#xfd;" d="M8 1298q58 55 185 41q112 -16 131 -71q0 -1 11 8q8 6 9 0q4 -29 38 -137t50 -148q75 -178 109 -246q43 92 143 412q4 13 16 54.5t22.5 75.5t18.5 52q2 7 6.5 2.5t6.5 -4.5q0 1 -0.5 13t4.5 12q5 -1 8.5 -7.5t5.5 -8.5q16 -3 35 -25t35 -25q3 1 3 16q-1 11 7 3q6 -5 6 -55 q1 -2 5 -5.5t5 -5.5q0 -27 -32 -134.5t-43 -137.5q-61 -184 -138 -367q-28 -73 -43 -88q1 -46 6.5 -148.5t4 -172.5t-14.5 -131q-21 -38 -35 -52q-4 -4 -20 -12.5t-21 -17.5q-4 2 -13.5 7t-16.5 7.5t-13 1.5q-9 -1 -28 -5t-31.5 -6t-25.5 -1t-17 8q-20 -13 -30 -7q-5 3 3 11 q-23 3 -32 12.5t-19 34.5q-10 21 -13 111.5t-2 210.5t1 137q-38 75 -154 336q-61 147 -98 252q-63 176 -35 200zM397 1313q-24 23 11 59q-6 15 -6.5 29.5t5.5 28t12.5 26t22 26t27 23.5t32.5 23.5t34.5 21.5t38.5 20.5t37.5 19t37.5 18.5q28 14 92 52q88 52 89 43 q0 -1 -1 -3q-7 -19 7.5 -24t11.5 -17q7 0 13 5.5t10.5 9t7.5 1.5q3 -53 -61 -158t-136 -169q-54 -49 -162 -57q-92 -7 -123 22z" />
<glyph unicode="&#xfe;" horiz-adv-x="839" d="M61 682q2 128 12 284.5t15 214.5t0 113q-2 6 -6.5 13t-5.5 12q3 6 8 9.5t13 5.5t13 3t18 2t19 2q12 2 35.5 8.5t33 7t36.5 -4.5q9 -2 29.5 -16t29.5 -19q8 -5 23 -12t26 -13t15 -10q3 -3 3.5 -13t2.5 -14q4 -8 17.5 -20t15.5 -25q2 -19 -3 -59.5t-5 -56.5v-56q83 0 92 -2 q70 -13 125.5 -40t88 -61t48 -57t26.5 -47q35 -75 25 -157q-13 -112 -85.5 -198t-168.5 -132q-54 -26 -88 -35.5t-78 -9.5q3 -123 12 -233q-32 -16 -57 -56q-13 0 -31.5 -6.5t-33.5 -5.5q-3 -2 -7 -11t-10 -10q-30 -2 -71 12.5t-56 16.5q-30 42 -45 112.5t-17 132t-3 154.5 t-4 140q0 10 -3.5 59.5t-3.5 77.5zM389 451q109 61 133 114q21 38 23.5 84t-11.5 90t-50.5 82.5t-88.5 59.5q-1 -36 -2 -109.5t-2 -109.5q-2 -63 -2 -211z" />
<glyph unicode="&#xff;" d="M8 1298q58 55 185 41q112 -16 131 -71q0 -1 11 8q8 6 9 0q4 -29 38 -137t50 -148q75 -178 109 -246q43 92 143 412q4 13 16 54.5t22.5 75.5t18.5 52q2 7 6.5 2.5t6.5 -4.5q0 1 -0.5 13t4.5 12q5 -1 8.5 -7.5t5.5 -8.5q16 -3 35 -25t35 -25q3 1 3 16q-1 11 7 3q6 -5 6 -55 q1 -2 5 -5.5t5 -5.5q0 -27 -32 -134.5t-43 -137.5q-61 -184 -138 -367q-28 -73 -43 -88q1 -46 6.5 -148.5t4 -172.5t-14.5 -131q-21 -38 -35 -52q-4 -4 -20 -12.5t-21 -17.5q-4 2 -13.5 7t-16.5 7.5t-13 1.5q-9 -1 -28 -5t-31.5 -6t-25.5 -1t-17 8q-20 -13 -30 -7q-5 3 3 11 q-23 3 -32 12.5t-19 34.5q-10 21 -13 111.5t-2 210.5t1 137q-38 75 -154 336q-61 147 -98 252q-63 176 -35 200zM155 1511q3 33 33 68q14 17 78 22t86 -4q22 -7 32 -12t30 -17t29.5 -31t9.5 -44v-41q0 -39 -22 -82t-40 -43q-13 0 -36.5 16t-45.5 23q-24 8 -47.5 18 t-51.5 29.5t-43 42t-12 55.5zM201 1485q2 0 6 -2t6 -2q1 5 21 39t14 49q-19 -4 -33 -30t-14 -54zM512.5 1402.5q-5.5 48.5 3 95.5t25.5 63q35 26 73 30t82 -10q5 -2 13.5 -9.5t17 -11t18.5 -1.5q38 -29 13 -72q0 -32 -3 -55.5t-13 -50t-33 -45t-58 -27.5q-62 -16 -97.5 14.5 t-41 79z" />
<glyph unicode="&#x130;" horiz-adv-x="403" d="M27.5 1508q3.5 37 33.5 57q-4 -21 0 -21q2 0 28 30q44 53 85 66q5 1 18 3t18 2.5l15 1.5t16.5 0t15 -3t17.5 -6q-2 -7 2 -9.5t12.5 -3t22 -9.5t25.5 -25q3 -4 18.5 -22t22.5 -29q6 -17 8.5 -26.5t0.5 -23.5t-11 -28q-1 -3 -13.5 -14t-17.5 -14q-16 -31 -74 -36.5 t-108 1.5q-26 3 -64.5 16.5t-48.5 24.5q-25 31 -21.5 68zM51 1286q0 6 6 2q2 -1 3.5 -1.5t3 -0.5t2.5 2q2 7 -6 25.5t-1 25.5q9 -2 30 -8t34 -6q0 5 -19 23q-9 8 -2 8q36 -2 70.5 -17t52.5 -41q11 -1 19 -6t16 -12.5t14 -11.5q4 -4 15 -12.5t14 -12.5q16 -22 27.5 -72.5 t15.5 -91.5q5 -30 2.5 -107.5t-0.5 -107.5q0 -158 -10 -270q-1 -10 -5 -48t-5 -51.5t-3.5 -45t-2.5 -50t1 -45t3 -51.5q2 -23 7.5 -70t9 -80.5t2.5 -75.5t-9 -71l-6 -12q-6 -12 -13 -14q-8 1 -51 28q-26 0 -39 8q-10 -2 -27.5 -13t-37.5 -9q-3 0 -2 -7t-2 -7q-4 -7 -20 -3 t-21 3q-11 15 -17 50t-9.5 79t-6.5 61q-24 168 -24.5 396t10.5 382q-5 51 -2 103t0 121t-17 114z" />
<glyph unicode="&#x131;" horiz-adv-x="385" d="M24.5 1266.5q-1.5 6.5 0.5 17.5q5 1 11 -0.5t9 -1.5q1 7 -5.5 15.5t-4.5 13.5q3 5 9 6.5t18.5 2.5t15.5 1q3 4 -2.5 6.5t-14 4.5t-10.5 5q40 5 47 2q1 3 -1.5 5t-6 2.5l-7 1t-6 2t-1.5 4.5q14 10 65 4q3 1 3.5 0t1 -4t1.5 -4q22 5 39.5 -4.5t6.5 -32.5q12 -5 24 2.5 t23 5.5q4 -1 24 -12t37 -6q5 -5 7.5 -11.5t3 -10t0 -15.5t-0.5 -15q7 -1 35 -12q-2 -61 -9.5 -264.5t-8.5 -292.5q-1 -6 1.5 -14t2.5 -11q-33 -364 -35 -393q-6 -175 -4 -203q0 -4 -1.5 -6t-6 -6t-6.5 -6q4 -26 0 -33h-10t-13 4q-2 -8 -16.5 -10.5t-16.5 -11.5 q-4 -1 -6.5 4.5t-7.5 5.5q-7 -7 4 -12q-25 0 -33 -10q-3 7 -18.5 13t-14.5 17q-7 -11 -26 -6q-12 31 -20.5 64.5t-14 77.5t-8 67t-7 80t-5.5 69q-7 151 -7 252q-1 30 -4 115.5t-4 130.5q-1 30 -5 89t-5 85q-1 16 -1 98.5t-5 104.5q-1 4 -5 13.5t-5.5 16zM86 922 q0 -35 1 -205t3 -282.5t6 -112.5q8 1 5.5 16t2.5 18q5 0 11 -79q2 -36 -2 -33q11 -110 20 -144q9 8 4 31q-1 33 -8 100.5t-11.5 113.5t-0.5 46q2 0 3 -8.5t3 -9.5q3 7 2 24t-4.5 52.5t-3.5 50.5q1 1 3 -5q2 -5 5 -18q6 -22 8 -22q3 4 2.5 28.5t-3.5 57.5t-7 45q-2 -4 -1 -25 t1.5 -36.5t-2.5 -18.5q-18 88 -8 129q3 0 4.5 -13.5t5.5 -15.5q8 27 -6 74q-5 -2 0 -25q1 -9 -2 -8q-16 48 -23 213q-3 62 -8 62zM111.5 728.5q0.5 -20.5 7.5 -32.5q0 2 1 8.5t1.5 14t0.5 15t-2 12.5t-5 6q-4 -3 -3.5 -23.5zM178 270q0 -36 8 -55q5 42 -8 55z" />
<glyph unicode="&#x13f;" horiz-adv-x="702" d="M27 1319q81 25 182 18q19 -1 37.5 -9t28.5 -16t27.5 -23.5t23.5 -20.5q32 -84 45 -209q3 -24 3.5 -64t-0.5 -109t-1 -98q0 -48 -3.5 -133.5t-4.5 -119.5q-3 -52 -1 -193.5t-4 -196.5q103 -7 150 -4q45 0 63 4q2 1 9 5.5t13 7t11 2.5q8 -2 20 -20t21 -19q-2 -9 -1 -10.5 t5.5 -4t5.5 -6.5q-9 -25 11 -45q-4 -8 -18 -17t-17 -13q-10 -6 -21 -10t-24 -6.5t-22.5 -4t-26.5 -2t-24.5 -0.5h-28h-27.5q-109 -6 -185 0q-13 0 -38 0.5t-37.5 0.5t-31.5 -1.5t-36 -5.5q-7 6 -33.5 8.5t-34.5 7.5q2 2 11 2q-1 3 -8.5 5.5t-8.5 5.5q-1 4 3 4q6 0 8 -2 q-3 5 -12 8.5t-9 11.5q-1 4 0 5t4 0.5t4 0.5q-12 1 -15 17t1 28q11 -3 25 0q-3 6 -19 14t-14 17q0 4 6.5 4.5t13.5 -0.5t13 0q4 304 4 655q-1 22 -1 69t-1 69q-1 20 -1 61t-1 71.5t-5 57.5q-3 22 -4.5 72.5t-7 82.5t-22.5 48zM422 655q3 23 0.5 43t0.5 43t17 39 q3 37 33.5 61t67.5 19q34 -4 62 -22.5t44 -40.5q17 -35 12.5 -88t-21.5 -102.5t-32 -51.5q-9 0 -42.5 -2.5t-41.5 -1.5q-6 2 -17.5 10t-17 9.5t-16.5 -3.5q-6 5 -11.5 10t-10 11.5t-7 10.5t-6 13.5t-4.5 12.5t-5 15.5t-5 14.5z" />
<glyph unicode="&#x140;" horiz-adv-x="768" d="M35 1307q66 63 211 30q141 -35 139 -155q0 -6 -3 -19t-3 -20q-3 -20 -3.5 -62.5t-2.5 -60.5q-4 -97 10 -184q1 -49 5.5 -209t4.5 -215t-2 -213q33 -3 105.5 1t122.5 -1t77 -29q0 -5 -2.5 -14t-2 -14.5t6.5 -8.5q0 -3 3 -11.5t4.5 -14.5t0.5 -14t-6 -13q-30 -39 -68.5 -56 t-101.5 -22q-37 -4 -171 -2.5t-169 0.5q-11 0 -28 -1t-28.5 -1t-20.5 2q4 15 -7.5 25.5t-7.5 21.5q-40 16 -51 31q0 26 8 31q-1 5 -4.5 8.5t-3.5 7.5q0 3 3 8t3 8q-5 35 -4 47q2 24 9 84t10 92t6 98.5t-2 102.5q-20 510 -21 621q0 3 2 20.5t2.5 29.5t0 28t-6 27t-14.5 16z M437 645q-7 40 1.5 84t32.5 70q61 67 96 85.5t62 4.5q66 -35 90 -85.5t11 -98t-40.5 -89.5t-61.5 -67.5t-55 -24.5q-22 3 -61 25t-51 35q-17 21 -24 61z" />
<glyph unicode="&#x152;" horiz-adv-x="1306" d="M35.5 352q-16.5 153 3.5 291q2 29 10 82q43 190 130.5 348.5t205.5 255.5q10 10 10 19q6 -1 21 2.5t26 1.5q5 -1 15.5 -4.5t15.5 -4.5q14 -2 39 -2q11 -3 28.5 -13.5t24.5 -12.5q6 -3 22 -5t23 -5q3 -1 13.5 -5t13.5 -5t11 -1.5t11 1.5t7.5 7.5t7.5 14.5q16 5 35 16 q7 1 23.5 3.5t26 3.5t22.5 1t24 -2q10 -2 39 -10.5t51 -9.5q56 1 161.5 13.5t114.5 13.5q28 3 67 1.5t60 2.5q-4 -7 -1.5 -33.5t-4.5 -36.5q5 -8 1 -25t-3 -30q-3 -2 -14 -11.5t-23 -15.5q-5 -2 -13.5 -8.5t-12.5 -7.5q-27 -12 -96.5 -13.5t-83.5 -3.5q6 -106 2 -264 q0 -21 -4 -62.5t-3 -62.5l-2 -51q4 -2 9.5 -2.5t13.5 -0.5t14 -1q76 -6 127 0q10 2 21.5 5.5t18.5 6t13.5 3.5t9.5 -1.5t3 -9.5q-5 -24 1.5 -52t0.5 -36q-8 -8 -23.5 -31t-29.5 -33q-75 -28 -187 -8q-10 -20 -10 -73q-2 -42 -3 -92t-1.5 -110.5t-1.5 -92.5q168 -10 291 -31 q1 -4 -3 -10t-1 -13q-7 -1 -11 -12.5t-16 -11.5q-1 -3 1.5 -3.5t5.5 -0.5t3 -2q-6 -10 -28 -23.5t-25 -34.5q1 -2 4.5 -6.5t4 -6.5t-0.5 -9q-2 -4 -3.5 -5t-6.5 -3t-10 -5q-16 -6 -44 -8.5t-47 4.5q-12 -6 -34.5 -8t-45 -1t-49.5 -1q-64 -5 -129 -2q-83 7 -118 35l-19 12 q-4 3 -11 15t-13 12q-21 83 -25 121q-65 -116 -117 -168q-64 -59 -160.5 -77.5t-185.5 19.5q-30 12 -69 52.5t-56 76.5q-46 97 -62.5 250zM82 209q3 -30 31 -84t41 -55q-11 28 -36 81t-36 58zM160 59q13 -26 28 -28q-6 25 -28 28zM215 14q13 -22 61 -30q-15 20 -61 30z M232.5 360.5q1.5 -42.5 13.5 -53.5q3 16 2.5 32.5t-3.5 43.5t-3 35q-1 0 -2.5 2t-3.5 2q-5 -19 -3.5 -61.5zM256 272q-5 -8 1 -27.5t15 -19.5q2 4 -4.5 22t-5.5 25h-6zM272 176q43 -61 76 -72q39 -17 49 -4q-66 15 -116 76h-9zM295 193q4 -22 22 -39t41 -23q0 6 -3 9.5 t-9 5.5t-8 4q-15 21 -37 43h-6zM303 412.5q3 -64.5 12.5 -118.5t40 -95t80.5 -54q87 9 195 172q4 5 12.5 31t15.5 29q5 3 13.5 1t9.5 1q0 45 -1.5 187t-2 208.5t0.5 175t5 195.5q-27 44 -104 76q-8 -18 -43 -62q-71 -97 -111 -196q-50 -128 -55 -144q-60 -162 -66 -282 q-5 -60 -2 -124.5z" />
<glyph unicode="&#x153;" horiz-adv-x="1132" d="M31 506q-12 158 8 321q13 108 53 226.5t105 210t133 90.5q4 0 12.5 -2t13.5 -2q94 -10 144 -45q59 15 65 16q17 4 37 6t45 3.5t39 2.5q22 3 49.5 4t48 1t54 -0.5t51.5 -0.5q36 0 72.5 -0.5t67.5 -1t50.5 -2t18.5 -2.5q35 -6 14 -71q-11 -8 -42 -24.5t-46 -29.5 q-36 -22 -74 -24q-16 0 -73.5 3.5t-83.5 2.5q1 -64 5 -223t5 -234q45 11 140 5t147 7q6 -17 -13 -45q-1 -9 -2.5 -25.5t-3.5 -28.5t-6 -21q-2 -3 -8.5 -9t-9.5 -10q-4 -5 -5.5 -12.5t-5.5 -9.5q-18 -9 -47 -13q-17 -2 -52.5 4t-59.5 5q-49 0 -76 -7q-25 -209 -4 -381 q31 -4 123 -11t139 -17q26 -5 -5 -12q-12 -3 -18 -3q55 -17 92 -4q-1 -17 -13 -45t-13 -47q-44 -34 -135 -37q-9 0 -34.5 2t-39.5 2.5t-33.5 -1t-32.5 -5.5q-5 -1 -25.5 -11t-33.5 -3q-1 -6 -6.5 -7.5t-7.5 -6.5q-53 31 -90 0q-61 8 -74 18q-10 7 0 12q-13 8 -39 29 q6 13 -2 25l-8 -9q-77 -86 -152 -104q-15 -2 -18.5 -2t-18.5 3.5t-22 4.5q-19 0 -27 2q-6 3 -19 14t-20 15q-36 16 -65 45q-22 20 -49 69q-101 169 -119 400zM307.5 639.5q-5.5 -102.5 9.5 -199.5q9 -62 22 -111.5t26 -77.5t26 -46.5t22 -24.5t15 -6q5 -1 10 1t9.5 7t7.5 9 t8 11t6 9q42 53 68 166q39 162 14 385q-26 231 -84 270q-45 -7 -81 -64t-54.5 -141.5t-24 -187z" />
<glyph unicode="&#x178;" horiz-adv-x="888" d="M1 1294q-2 5 4 10t10.5 7.5t13 6t12.5 5.5q22 11 64.5 15t72.5 -1q32 -4 56.5 -9t43 -11t28.5 -10t26.5 -12.5t21.5 -10.5q23 -18 29 -22q10 -15 11.5 -32.5t-0.5 -39.5t-1 -35q3 -29 13.5 -70t25.5 -85t27 -77.5t25 -67.5t14 -36q1 -3 18 -42t29 -56q12 35 52 129 t58 151q5 21 13.5 43.5t21 52.5t17.5 44q9 22 27.5 82.5t33.5 87.5q4 5 7.5 18t9.5 18t20 3q8 -1 18 -10.5t15 -12.5q5 -2 12.5 -4.5t13 -4t10 -4.5t5.5 -7q10 -23 0 -43q-7 -15 -18 -49.5t-17 -49.5q-36 -90 -64 -200q-17 -51 -70.5 -201t-68.5 -184l-14 -27 q-2 -9 -10 -143t-15 -158q11 -116 -2 -205q-9 1 -23 -10t-18 -12q-3 -1 -26 -5.5t-31 -15.5q-7 8 -24.5 1.5t-22.5 -5.5q-5 -12 -18 -15t-23 9q-38 -19 -75 -6t-46 49q-3 10 -4.5 24.5t-3 34.5t-2.5 33q-1 38 1.5 124t2.5 114q1 10 3.5 40t3 47t0 41.5t-5 43.5t-12.5 34 q-22 33 -70 124.5t-77 164.5q-26 60 -61 170q-15 46 -21 94q-2 12 -6 53t-11.5 65.5t-23.5 35.5q-3 9 -5 14zM224 1590q21 43 77 9q19 -6 67 -1.5t64 -2.5q36 -15 40.5 -65.5t-34.5 -136.5q-20 -38 -54.5 -40.5t-78.5 19.5q-52 21 -78 101q-24 74 -3 117zM555 1451.5 q0 12.5 6 16.5q19 19 22.5 38t0 31t8.5 32q7 4 46 7.5t86 3t76.5 -23t14.5 -65.5q-37 -107 -67 -138.5t-86 -31.5q-24 0 -42 9.5t-25 18t-18.5 30t-15.5 26.5q0 4 -3 19t-3 27.5z" />
<glyph unicode="&#x2c6;" horiz-adv-x="1228" d="M49 1464q10 13 19 23.5t15 16t19 17t21 19.5q55 42 110 100q4 7 12.5 16.5t15 17t11.5 16.5t5 20t-7 23q33 13 41 39q5 0 10.5 -6t10.5 -5q8 19 20 21q4 -1 9.5 -7t9.5 -8q21 13 55 -2q2 -3 1 -7.5t1 -6.5q21 -17 60.5 -53.5t46.5 -42.5q28 -22 42.5 -37t47.5 -55l80 -90 q9 -9 11.5 -14.5t3 -14t3.5 -17.5q-7 -1 -12.5 3.5t-10.5 3.5q-1 -1 -2 -5q-4 -9 -6 -9l-2 1q4 0 4 6q-11 -2 -37 -7t-43 -8.5t-44.5 -5t-41.5 4.5q-31 30 -84.5 77t-89.5 81q-11 -10 -41.5 -37t-52.5 -49q-16 -17 -46.5 -34.5t-43.5 -29.5q-6 -6 -11 -3.5t-7 8.5t-4.5 10.5 t-4.5 3.5q-9 -5 -26.5 -23.5t-32.5 -19.5q-31 24 -23 61q-1 3 -6 4.5t-6 3.5zM604 1550q2 -3 8.5 -13.5t10 -15.5t11 -11.5t15.5 -10.5q-1 7 -4.5 12.5t-5 9t-8 9t-8 6.5t-10.5 8z" />
<glyph unicode="&#x2dc;" horiz-adv-x="1228" d="M47 1483q18 62 69 112t93 58q37 6 63.5 -1.5t83.5 -37.5q81 -44 125 -27q39 16 64 72q4 3 8 -0.5t8 -9.5t6 -7q18 7 19 11q5 -3 4 -5t-3.5 -8t-0.5 -12q6 4 7 1v-4q2 0 11 7q0 -5 3 -12.5t3 -11.5q2 -12 -8 -19q-6 -9 6 -9q3 0 8 1q-15 -24 -2 -39q-23 -9 -32 -20 q1 -4 9 0q3 2 3 -1v-3q4 -11 -14 -39q-24 -37 -64 -66q-63 -41 -117 -31q0 3 3 4t10 1.5t10 1.5q-73 11 -178 75q-51 28 -92 -10q-16 -14 -43 -57q-5 -7 -5 -2q-24 0 -31 9.5t-2.5 21t4 20t-11.5 6.5q-7 27 -16 31z" />
<glyph unicode="&#x1e9e;" horiz-adv-x="894" d="M62.5 737.5q-0.5 73.5 5.5 210.5q7 114 36.5 191.5t106.5 148.5q21 19 65.5 38t77.5 22q80 6 275 -37q126 -31 180 -58l9 -10q9 -10 11 -16q0 -6 -5 0q-8 8 -13 6q8 -7 5 -13.5t5 -13.5q-2 -4 -1 -10t4.5 -19.5t4.5 -19.5q-30 -61 -73.5 -171t-75.5 -175 q26 -54 74 -148.5t75 -154.5q6 -20 18 -51t20 -56.5t12 -50.5q27 -205 -74 -315q-30 -32 -77 -52t-117.5 -16t-137.5 47q-25 17 -44.5 58t-26 99.5t13.5 125.5q1 3 3 9.5t3.5 10t5.5 5.5q-2 -5 5.5 -7t15.5 -1.5t8 3.5l24 7q3 -6 7.5 -13t7.5 -16q20 -4 26 4q15 -35 15 -119 q0 -30 11.5 -52t29.5 -26q19 -2 33.5 17.5t20.5 41t9 42.5q8 67 0.5 115.5t-31.5 111.5q-34 85 -80 158q-9 14 -32.5 49t-39.5 62.5t-24 52.5q-2 -5 -3 -8t3 -12.5t7 -14.5t8.5 -14.5t7.5 -12.5q9 -16 24.5 -40.5t22.5 -36t4 -11.5q-10 0 -57 78q-12 16 -31 55 q-11 21 8 76.5t74 87.5q3 -16 29 29q35 61 90 192q-25 4 -66 15.5t-67.5 18.5t-52.5 5t-36 -18q-36 -59 -46.5 -130t-8.5 -186q1 -94 2 -275.5t2 -268.5q1 -34 -1.5 -86.5t-2.5 -71.5v-11.5v-12t-1 -11t-3.5 -11.5t-6.5 -9t-11 -9l-10 -6q-11 -6 -15 -11.5t-2 -12.5 q-10 -2 -26.5 -13.5t-32.5 -9.5q-2 -2 -10.5 -12.5t-16.5 -11.5q-48 3 -76 9.5t-38.5 12.5t-14.5 6q-16 47 -14 84q0 7 3 28.5t3 39.5q-1 30 -1 86.5t-1 89.5q0 65 -3.5 195.5t-4 204zM465 737q0 -6 33 -60.5t66.5 -106.5t35.5 -50q5 3 -62 108t-73 109z" />
<glyph unicode="&#x2000;" horiz-adv-x="924" />
<glyph unicode="&#x2001;" horiz-adv-x="1848" />
<glyph unicode="&#x2002;" horiz-adv-x="924" />
<glyph unicode="&#x2003;" horiz-adv-x="1848" />
<glyph unicode="&#x2004;" horiz-adv-x="616" />
<glyph unicode="&#x2005;" horiz-adv-x="462" />
<glyph unicode="&#x2006;" horiz-adv-x="308" />
<glyph unicode="&#x2007;" horiz-adv-x="308" />
<glyph unicode="&#x2008;" horiz-adv-x="231" />
<glyph unicode="&#x2009;" horiz-adv-x="369" />
<glyph unicode="&#x200a;" horiz-adv-x="102" />
</font>
</defs>
</svg>
